<?xml version="1.0" encoding="UTF-8" standalone="no"?>
<!-- Created with Inkscape (http://www.inkscape.org/) -->

<svg
   version="1.1"
   id="svg2"
   width="4000"
   height="2666.6667"
   viewBox="0 0 4000 2666.6667"
   sodipodi:docname="IST_37929_02035.eps"
   xmlns:inkscape="http://www.inkscape.org/namespaces/inkscape"
   xmlns:sodipodi="http://sodipodi.sourceforge.net/DTD/sodipodi-0.dtd"
   xmlns="http://www.w3.org/2000/svg"
   xmlns:svg="http://www.w3.org/2000/svg">
  <defs
     id="defs6">
    <clipPath
       clipPathUnits="userSpaceOnUse"
       id="clipPath180">
      <path
         d="m 21657.8,5092.3 c -13.1,196.9 -50.3,456 -137.8,774.6 l -0.8,2.5 c -8.1,29.6 -16.8,60.5 -25.9,92.4 -52.1,183 -118,401.3 -183.2,633.7 l 6.3,9.3 c 101.5,32 334.3,109 384.4,159.2 40.3,40.2 286.8,519.9 466.9,875.8 71.5,-387.5 246.2,-1366.6 238.4,-1635.6 -6.3,-212 -138.3,-576.5 -363.2,-843.1 -124.1,-20.5 -252.7,-43.4 -385.1,-68.8"
         id="path178" />
    </clipPath>
  </defs>
  <sodipodi:namedview
     id="namedview4"
     pagecolor="#ffffff"
     bordercolor="#000000"
     borderopacity="0.25"
     inkscape:showpageshadow="2"
     inkscape:pageopacity="0.0"
     inkscape:pagecheckerboard="0"
     inkscape:deskcolor="#d1d1d1" />
  <g
     id="g8"
     inkscape:groupmode="layer"
     inkscape:label="ink_ext_XXXXXX"
     transform="matrix(1.3333333,0,0,-1.3333333,0,2666.6667)">
    <g
       id="g10"
       transform="scale(0.1)">
      <path
         d="M 0,0 H 30000 V 20000 H 0 Z"
         style="fill:#ffffff;fill-opacity:1;fill-rule:nonzero;stroke:none"
         id="path12" />
      <path
         d="m 27936.6,1441.8 h -2430 c 76.1,0 138.5,62 138.5,137.8 v 252.7 0 c 0,75.8 -62.4,137.9 -138.5,137.9 h 854.8 c 76.2,0 138.5,62.1 138.5,137.9 v 252.7 c 0,75.8 -62.3,137.9 -138.5,137.9 h -566.1 c 76.1,0 138.5,62 138.5,138 v 252.5 c 0,67.5 -49.2,123.9 -113.6,135.7 h 770.1 c 76.1,0 138.5,61.9 138.5,137.9 v 252.5 c 0,75.9 -62.4,138 -138.5,138 h -5178 c -76.1,0 -138.5,-62.1 -138.5,-138 v -252.5 0 c 0,-67.5 49.2,-123.9 113.6,-135.7 h -770.1 c -76.2,0 -138.5,-61.9 -138.5,-137.9 v -252.5 c 0,-76 62.3,-138 138.5,-138 h 566.1 c -76.2,0 -138.5,-62.1 -138.5,-137.9 v -252.7 0 c 0,-75.8 62.3,-137.9 138.5,-137.9 h -854.8 c -76.2,0 -138.6,-62.1 -138.6,-137.9 v -252.7 c 0,-75.8 62.4,-137.8 138.6,-137.8 h -2065.9 c 783.3,69.4 1411.9,700.7 1476.3,1485.7 375.2,267.6 689.6,508.8 785,628.1 h 2443.6 c 0,0 1556.9,91.2 841.6,1787 v 0 0 c 46.3,22.5 70.2,74.4 57.2,124.1 -64.8,247.2 -256.5,1008.4 -410,1917.3 -187.5,1111.5 -608.2,2097.2 -1108.3,2318.7 -1.8,0.9 -4.1,1.3 -6.6,1.3 -27.6,0 -95.5,-46.1 -178.1,-109.3 -26.4,6.5 -47.7,8 -61.7,8 -2.9,0 -5.4,0 -7.6,-0.1 -7.2,-0.3 -11.1,-0.9 -11.1,-0.9 0,0 -1.6,1.2 -5.2,1.2 -13.3,0 -53,-17.2 -131,-180.3 -141.5,-104.8 -295.3,-146.7 -452,-149.3 -0.9,-0.2 -124.5,-177 -125.7,-177 -153.2,-222.6 -274.6,-518 -316,-905.2 -28.8,-270.5 21,-621.8 100.7,-982.1 v 0 0 l 0.2,-0.9 c 19.4,-88.4 40.7,-177.4 63.1,-265.8 -18.8,-78.3 -38,-158.9 -57.5,-241.8 -290.8,210.2 -633.7,273.5 -1409.5,647 l 8.6,6651.9 c 1.2,893.8 -729.2,1626.2 -1623.2,1627.3 l -1094.6,1.5 h -1.5 l -2614,3.3 -1055.2,1.5 h -24.6 c -0.7,0 -1.5,0 -2.2,0 -178.4,0 -350.4,-29.1 -511.4,-83 -195.6,-65.3 -374.9,-166.9 -529.9,-296.8 L 9252.29,17459 c -39.47,28.6 -85.33,42.3 -130.84,42.3 -69.6,0 -138.36,-32.2 -182.03,-92.5 l -217.98,-301.4 v 0 l -129.62,-179.2 -1738.95,-2404.3 c -72.22,-99.9 -49.61,-240.7 50.25,-312.9 l 4810.78,-3479.5 -8,-6141.2 H 7490.47 c -370.8,1242.5 -794.16,2606.1 -998.81,3261.6 0.62,0 0.93,0 0.93,0 0,0 -18.89,62.8 -14.19,1002.5 0,26 251.2,1105.6 246.5,1224.1 -3.6,74.4 -10.7,149.5 -20.7,224.3 l 6.8,-5.1 c 3.1,142.2 259.2,730.2 259.2,730.2 -393.85,334.6 -550.96,356.3 -585.21,356.3 -3.76,0 -6.04,-0.3 -6.99,-0.4 l -0.3,0.5 c 0,0 -56.74,9.5 -234.7,18.9 234.18,500.6 23.43,1564 -208.95,1696.1 -82.18,46.7 -177.89,58.9 -255.53,58.9 -15.98,0 -31.18,-0.5 -45.35,-1.4 21.38,22.1 63.45,30.2 63.45,30.2 -3.59,0.5 -7.49,0.7 -11.63,0.7 -55.34,0 -154.83,-44.2 -154.83,-44.2 -81.81,31.6 -155.74,45.7 -222.51,45.7 -517.94,0 -604.77,-852.4 -591.43,-1069.5 14.94,-245.1 -240.73,-325.1 -613.47,-518.2 -711.14,-368.4 -773.6,-861.7 -773.6,-861.7 5.53,-3.3 11.32,-7 17.47,-11.2 35.28,59.7 107.92,172 169.17,188.9 -2.32,-5.4 -72.38,-154.5 -98.53,-239.9 209.33,-159.3 600.49,-511.7 873.94,-762.3 -12.68,-191.1 -27.65,-443.9 -44.71,-776.7 0,0 -169.89,-1037.9 -213.65,-1537 0,0 -259.82,-180.5 -125.97,-500.6 0,0 36.62,-72.2 82.95,-72.2 15.13,0 31.3,7.7 47.56,28.1 66.04,83 30.3,61.1 125.65,176 95.35,114.9 136.37,265.3 94.13,363.7 0,0 23.66,82.2 59.62,208.2 -18.2,-111.6 -35.23,-248 -47.91,-412.7 -66.11,-858.7 -17.5,-2459.4 588.49,-5213.6 0,0 190.82,0 500.74,0 h 269.19 c 17.01,0 12,2199.4 5.32,3950 2.69,-7.2 5.35,-14.3 8.05,-21.4 418.23,-1104.7 952.77,-2299.8 1313.93,-3079.9 h -579.36 c -76.12,0 -138.46,-62.3 -138.46,-138.5 V 2635 c 0,-76.2 62.34,-138.6 138.46,-138.6 h 566.09 c -76.12,0 -138.47,-62.3 -138.47,-138.5 v -253.7 0 c 0,-76.2 62.35,-138.5 138.47,-138.5 h -854.77 c -76.25,0 -138.59,-62.4 -138.59,-138.5 v -253.8 c 0,-61.2 40.32,-113.5 95.77,-131.6 H 2127.03 V 18558.5 H 27936.6 V 1441.8 m -14618.7,0 h -2010.6 c 55.4,18.1 95.7,70.4 95.7,131.6 v 253.8 0 c 0,76.1 -62.3,138.5 -138.4,138.5 h 854.7 c 5.5,0 11,0.3 16.3,0.9 295.1,-319.6 716.2,-521.7 1182.3,-524.8 m -1510.1,1054.6 h -254.5 c 76.1,0 138.4,62.4 138.4,138.6 v 253.7 c 0,67.7 -49.2,124.4 -113.5,136.2 h 126.2 c 4.8,-185.3 41,-363.2 103.4,-528.5 m 7939,2335.3 2.8,2124.1 c 445,-390.1 1307.8,-1111.2 1602.3,-1111.2 28.5,0 51.6,6.7 68.6,21.1 0,0 26.8,34.3 72.8,96.1 9.1,-31.9 17.8,-62.8 25.9,-92.4 l 0.8,-2.5 c 70.6,-257 108.4,-475.1 127.3,-653.3 -320.5,-55.3 -610.2,-106.8 -795.6,-142.9 -479.7,-93.4 -851.6,-177.7 -1104.9,-239 M 4479.71,8380.1 c 93.93,335.2 183.28,662 189.31,713.2 7.83,66.6 76.15,540.7 128.97,905.3 4.11,-39.6 7.74,-79.8 10.81,-120.4 8.12,-103.3 12.75,-208.9 12.75,-315.3 -0.01,-115 -5.44,-231.1 -17.75,-346.2 -0.3,-3.1 -0.6,-6.3 -1.01,-9.4 -1.09,-9.7 -2.19,-19.3 -3.28,-29 -2.41,-19.6 -5.01,-39.2 -7.81,-58.8 -1.4,-9.8 -2.8,-19.5 -4.3,-29.3 -19.93,-130.8 -142.52,-313.5 -307.69,-710.1 m -186.93,1559 c 0.08,26.9 1.46,56.8 5.7,83.1 -1.84,-26.3 -3.74,-53.9 -5.7,-83.1 M 6083.77,11406 c -6.91,0.3 -13.95,0.6 -21.16,0.9 43.23,136.4 60.97,266.5 62.95,281.8 -9.86,-117.9 -24.8,-210.2 -41.79,-282.7"
         style="fill:#f1f3fb;fill-opacity:1;fill-rule:nonzero;stroke:none"
         id="path14" />
      <path
         d="m 11403,1827.2 v -253.8 c 0,-76.1 -62.3,-138.4 -138.4,-138.4 H 6086.55 c -76.25,0 -138.59,62.3 -138.59,138.4 v 253.8 c 0,76.1 62.34,138.5 138.59,138.5 h 5178.05 c 76.1,0 138.4,-62.4 138.4,-138.5"
         style="fill:#ddc558;fill-opacity:1;fill-rule:nonzero;stroke:none"
         id="path16" />
      <path
         d="m 12257.8,2357.9 v -253.7 c 0,-76.2 -62.2,-138.5 -138.5,-138.5 H 6941.32 c -76.12,0 -138.47,62.3 -138.47,138.5 v 253.7 c 0,76.2 62.35,138.5 138.47,138.5 h 5177.98 c 76.3,0 138.5,-62.3 138.5,-138.5"
         style="fill:#ddc558;fill-opacity:1;fill-rule:nonzero;stroke:none"
         id="path18" />
      <path
         d="m 12486.8,3417 v -253.6 c 0,-76.3 -62.4,-138.5 -138.5,-138.5 H 7170.26 c -76.12,0 -138.46,62.2 -138.46,138.5 V 3417 c 0,76.3 62.34,138.6 138.46,138.6 h 5178.04 c 76.1,0 138.5,-62.3 138.5,-138.6"
         style="fill:#ddc558;fill-opacity:1;fill-rule:nonzero;stroke:none"
         id="path20" />
      <path
         d="M 11691.7,2888.7 V 2635 c 0,-76.2 -62.3,-138.6 -138.4,-138.6 H 6375.23 c -76.12,0 -138.46,62.4 -138.46,138.6 v 253.7 c 0,76.2 62.34,138.5 138.46,138.5 h 5178.07 c 76.1,0 138.4,-62.3 138.4,-138.5"
         style="fill:#ddc558;fill-opacity:1;fill-rule:nonzero;stroke:none"
         id="path22" />
      <path
         d="m 11307.3,1441.8 h -757.2 c -245.2,339.6 -1048.65,475.3 -1835.53,523.9 h 2550.03 c 76.1,0 138.4,-62.4 138.4,-138.5 v -253.8 c 0,-61.2 -40.3,-113.5 -95.7,-131.6"
         style="fill:#d3a93e;fill-opacity:1;fill-rule:nonzero;stroke:none"
         id="path24" />
      <path
         d="m 7677.84,1965.7 h -736.52 c -76.12,0 -138.47,62.3 -138.47,138.5 v 253.7 c 0,76.2 62.35,138.5 138.47,138.5 h 261.93 c 98.3,-207.1 156.62,-326.7 156.62,-326.7 h 736.63 c -194.86,-75.7 -331.69,-149.8 -418.66,-204 m 477.98,226.4 c -14.95,76.9 -38.84,180 -70.11,304.3 h 2100.19 c -959.82,0 -1614.33,-151.6 -2030.08,-304.3"
         style="fill:#d3a93e;fill-opacity:1;fill-rule:nonzero;stroke:none"
         id="path26" />
      <path
         d="m 7919.21,3116.7 c -36.44,130.3 -75.88,269.2 -117.65,414.4 H 9583.81 C 8947.23,3458.6 8254.3,3242.5 7919.21,3116.7"
         style="fill:#d3a93e;fill-opacity:1;fill-rule:nonzero;stroke:none"
         id="path28" />
      <path
         d="m 12486.8,4451.8 v -253.7 c 0,-76.3 -62.4,-138.5 -138.5,-138.5 H 7170.26 c -76.12,0 -138.46,62.2 -138.46,138.5 v 253.7 c 0,76.2 62.34,138.5 138.46,138.5 h 5178.04 c 76.1,0 138.5,-62.3 138.5,-138.5"
         style="fill:#ddc558;fill-opacity:1;fill-rule:nonzero;stroke:none"
         id="path30" />
      <path
         d="m 12498.5,3923.4 v -253.7 c 0,-76.2 -62.3,-138.6 -138.4,-138.6 H 7182.04 c -76.12,0 -138.47,62.4 -138.47,138.6 v 253.7 c 0,76.2 62.35,138.5 138.47,138.5 h 5178.06 c 76.1,0 138.4,-62.3 138.4,-138.5"
         style="fill:#ddc558;fill-opacity:1;fill-rule:nonzero;stroke:none"
         id="path32" />
      <path
         d="m 7716.13,4061.9 h -69.04 c -50.56,171.9 -103.04,348.9 -156.62,528.4 H 9968.05 C 9037.6,4585.5 7760.64,4112.2 7716.13,4061.9"
         style="fill:#d3a93e;fill-opacity:1;fill-rule:nonzero;stroke:none"
         id="path34" />
      <path
         d="m 7713.53,4059.6 h -65.77 c -0.19,0.7 -0.47,1.6 -0.67,2.3 h 69.04 v 0 l -2.6,-2.3"
         style="fill:#d3a93e;fill-opacity:1;fill-rule:nonzero;stroke:none"
         id="path36" />
      <path
         d="m 7639.79,6166.2 c 91.73,773.2 792.83,1325.5 1565.96,1233.8 773.12,-91.7 1325.45,-792.8 1233.75,-1565.9 -91.7,-773.2 -792.83,-1325.5 -1565.96,-1233.8 -773.12,91.7 -1325.49,792.8 -1233.75,1565.9"
         style="fill:#ddc558;fill-opacity:1;fill-rule:nonzero;stroke:none"
         id="path38" />
      <path
         d="m 9037.14,7240.1 c -276.81,0 -543.89,-92.1 -764.69,-266.2 C 8012.3,6769 7847.64,6475 7808.64,6146.3 c -39.12,-328.9 52.3,-653.2 257.24,-913.3 204.95,-260.1 498.88,-424.8 827.65,-463.8 328.88,-39 653.13,52.2 913.28,257.2 260.09,204.9 424.79,498.9 463.79,827.7 39.1,328.8 -52.3,653.1 -257.2,913.2 -204.86,260.2 -498.91,424.9 -827.67,463.9 -49.76,5.9 -99.29,8.9 -148.59,8.9 z m 5.09,-2539.3 c -51.61,0 -103.57,3 -155.65,9.1 -344.61,41 -652.66,213.7 -867.44,486.2 -214.78,272.6 -310.6,612.6 -269.76,957.1 40.97,344.6 213.63,652.7 486.15,867.5 272.64,214.9 612.52,310.1 957.14,269.7 344.73,-41 652.79,-213.6 867.53,-486.1 214.8,-272.7 310.5,-612.6 269.7,-957.2 -41,-344.7 -213.7,-652.8 -486.18,-867.5 -231.44,-182.3 -511.38,-278.8 -801.49,-278.8"
         style="fill:#c48017;fill-opacity:1;fill-rule:nonzero;stroke:none"
         id="path40" />
      <path
         d="m 9207.69,5612 c 3.42,28.8 2.35,54.6 -3.16,77.5 -5.52,22.9 -16.45,44.4 -32.78,64.4 -16.35,20 -38.21,39.3 -65.58,57.9 -27.38,18.5 -61.24,37.5 -101.62,56.9 -69.35,33.9 -131.9,68.3 -187.67,103.1 -55.78,34.8 -102.54,72.9 -140.3,114.2 -37.78,41.3 -65.4,87.7 -82.88,139.2 -17.48,51.4 -22.24,110.8 -14.26,178 6.92,58.3 23.55,110.2 49.93,155.8 26.36,45.5 60.86,83.9 103.49,115 42.61,31.1 92.01,54.6 148.19,70.5 56.17,16 117.86,23.1 185.04,21.4 l 26.12,220.1 177.2,-21 -26.49,-223.2 c 62.5,-15.8 118.1,-39.4 166.78,-70.9 48.65,-31.5 88.69,-69.7 120.08,-114.4 31.35,-44.8 53.55,-96 66.58,-153.5 13,-57.5 15.45,-120.6 7.31,-189.1 l -320.06,37.9 c 9.77,82.3 -1.2,146.1 -32.9,191.2 -31.72,45.1 -78.21,71.4 -139.48,78.6 -33.23,4 -62.4,2.7 -87.48,-3.7 -25.1,-6.4 -46.35,-16.7 -63.77,-31 -17.41,-14.3 -31.13,-32 -41.1,-53 -9.99,-21.1 -16.49,-44.3 -19.5,-69.7 -3.01,-25.4 -2.05,-48.8 2.9,-70.2 4.93,-21.5 15.41,-42 31.43,-61.7 16,-19.6 38.05,-38.9 66.12,-57.9 28.07,-19 63.29,-39.3 105.63,-61.1 68.43,-35.2 130.35,-70.4 185.71,-105.4 55.35,-35.1 101.9,-73.5 139.63,-115.2 37.73,-41.7 65.33,-88.3 82.82,-139.7 17.46,-51.5 22.26,-110.5 14.37,-177 -7.16,-60.3 -24.11,-113.3 -50.85,-158.8 -26.74,-45.5 -61.39,-83.5 -103.92,-113.9 -42.55,-30.4 -92.21,-53 -149,-67.8 -56.78,-14.9 -118.77,-21.4 -185.95,-19.7 l -24.29,-204.7 -176.09,20.9 24.17,203.7 c -60.57,13.4 -118.22,33.8 -172.99,61.2 -54.78,27.3 -102.01,63 -141.72,107 -39.7,44 -69.34,97.1 -88.92,159.2 -19.58,62.2 -24.49,134.4 -14.73,216.7 l 320.06,-38 c -5.77,-48.7 -3.78,-90.1 6.03,-124.3 9.78,-34.2 24.96,-62.5 45.54,-84.7 20.56,-22.3 44.95,-39.1 73.19,-50.4 28.22,-11.4 57.47,-18.8 87.75,-22.4 34.7,-4.1 65.68,-3.3 92.95,2.5 27.26,5.8 50.7,15.5 70.3,29.2 19.59,13.7 35.09,30.8 46.52,51.4 11.43,20.5 18.64,43.5 21.65,68.9"
         style="fill:#c48017;fill-opacity:1;fill-rule:nonzero;stroke:none"
         id="path42" />
      <path
         d="m 23596.4,18002.8 -1576.3,-5898.8 -55.2,142.1 -121.9,-94.7 -56.4,142.3 -133.9,-91.5 -57.8,142.8 -122.7,-94.6 -83.3,149.6 -122.9,-94.4 -79.1,148.4 -153.7,-86.2 -75.6,147.5 -135.8,-91 -42.7,138.7 -138.6,-90.3 -46.3,139.7 -112.2,-97.3 -56.1,142.3 -129.3,-92.8 -95.1,152.7 -138.2,-90.4 -68.5,145.7 -132.4,-92 -51.1,141 -114.7,-96.7 -60.9,143.7 -124.5,-94.1 -56,142.3 -138.1,-90.4 -57.1,142.5 -139,-90.1 -55,142 -124.8,-94 -81.2,149 -129.3,-92.7 -65.8,144.9 -160.1,-84.6 1576.4,5898.8 3515.2,-939.4"
         style="fill:#595aa3;fill-opacity:1;fill-rule:nonzero;stroke:none"
         id="path44" />
      <path
         d="m 22934.8,17344.8 -2534.8,677.3 c -47.6,12.8 -76.2,62.2 -63.4,109.8 12.7,47.6 62.1,76.2 109.7,63.5 l 2534.8,-677.4 c 47.7,-12.8 76.2,-62.1 63.5,-109.8 -12.7,-47.6 -62.1,-76.2 -109.8,-63.4"
         style="fill:#ced2ec;fill-opacity:1;fill-rule:nonzero;stroke:none"
         id="path46" />
      <path
         d="m 22786.2,16788.5 -2534.8,677.4 c -47.6,12.7 -76.2,62.1 -63.5,109.8 12.8,47.6 62.1,76.1 109.8,63.4 l 2534.8,-677.4 c 47.6,-12.7 76.2,-62.1 63.4,-109.7 -12.7,-47.6 -62.1,-76.2 -109.7,-63.5"
         style="fill:#ced2ec;fill-opacity:1;fill-rule:nonzero;stroke:none"
         id="path48" />
      <path
         d="m 22637.5,16232.3 -2534.8,677.4 c -47.6,12.7 -76.2,62.1 -63.4,109.7 12.7,47.6 62.1,76.2 109.7,63.5 l 2534.8,-677.4 c 47.7,-12.7 76.2,-62.1 63.5,-109.8 -12.7,-47.6 -62.1,-76.1 -109.8,-63.4"
         style="fill:#ced2ec;fill-opacity:1;fill-rule:nonzero;stroke:none"
         id="path50" />
      <path
         d="m 22488.9,15676 -2534.8,677.4 c -47.6,12.7 -76.2,62.1 -63.5,109.8 12.8,47.6 62.1,76.2 109.8,63.4 l 2534.8,-677.3 c 47.6,-12.8 76.2,-62.2 63.5,-109.8 -12.8,-47.6 -62.2,-76.2 -109.8,-63.5"
         style="fill:#ced2ec;fill-opacity:1;fill-rule:nonzero;stroke:none"
         id="path52" />
      <path
         d="m 22340.3,15119.8 -2534.9,677.4 c -47.6,12.7 -76.1,62.1 -63.4,109.7 12.7,47.7 62.1,76.2 109.7,63.5 l 2534.8,-677.4 c 47.7,-12.7 76.2,-62.1 63.5,-109.7 -12.7,-47.7 -62.1,-76.2 -109.7,-63.5"
         style="fill:#ced2ec;fill-opacity:1;fill-rule:nonzero;stroke:none"
         id="path54" />
      <path
         d="m 20837.5,14070.3 c 3.6,13.5 4.9,25.9 3.8,37.2 -1,11.3 -4.8,22.3 -11.2,33 -6.4,10.7 -15.5,21.4 -27.3,32.1 -11.8,10.7 -26.6,22.1 -44.6,34.1 -30.8,21 -58.2,41.7 -82.5,62.1 -24.2,20.4 -43.9,41.8 -59.1,64.1 -15.2,22.4 -25.2,46.4 -30,72.1 -4.8,25.8 -3,54.4 5.4,85.9 7.3,27.4 18.8,51 34.5,71 15.7,19.9 34.8,35.8 57.3,47.7 22.5,12 47.7,19.8 75.6,23.5 27.9,3.8 57.8,3 89.7,-2.5 l 27.6,103.3 83.1,-22.2 -27.9,-104.7 c 28.7,-11.8 53.6,-26.9 74.7,-45.3 21,-18.4 37.5,-39.3 49.4,-62.8 11.9,-23.5 19,-49.5 21.3,-77.8 2.2,-28.3 -0.9,-58.6 -9.5,-90.8 l -150.1,40.1 c 10.3,38.6 9.4,69.8 -2.6,93.5 -12.1,23.7 -32.4,39.4 -61.2,47.1 -15.6,4.1 -29.6,5.6 -42,4.2 -12.4,-1.3 -23.2,-4.8 -32.5,-10.4 -9.3,-5.6 -17.1,-13.1 -23.3,-22.5 -6.2,-9.4 -10.9,-20 -14.1,-31.9 -3.2,-11.9 -4.3,-23.1 -3.4,-33.7 0.9,-10.6 4.5,-21.1 10.8,-31.6 6.2,-10.5 15.4,-21.2 27.5,-32.2 12.1,-11 27.5,-23.1 46.3,-36.3 30.2,-21.5 57.3,-42.6 81.3,-63.1 24,-20.6 43.6,-42.1 58.8,-64.5 15.1,-22.5 25.1,-46.6 29.9,-72.4 4.8,-25.8 3,-54.2 -5.3,-85.4 -7.5,-28.3 -19.3,-52.4 -35.1,-72.3 -15.9,-19.9 -35.1,-35.6 -57.4,-47.2 -22.4,-11.6 -47.7,-19 -75.8,-22.2 -28.1,-3.2 -58.1,-2 -90.1,3.4 l -25.6,-96 -82.6,22 25.5,95.5 c -28,10.6 -54.1,24.3 -78.4,41.1 -24.2,16.8 -44.3,37.1 -60.2,60.8 -16,23.7 -26.5,51.1 -31.5,82.1 -5.1,31 -2.5,65.8 7.8,104.4 l 150.1,-40.1 c -6.1,-22.8 -8,-42.8 -5.6,-59.7 2.3,-17 7.6,-31.5 15.9,-43.6 8.3,-12 18.8,-21.7 31.4,-29 12.7,-7.4 26.2,-13 40.4,-16.8 16.3,-4.3 31.1,-6 44.5,-5.1 13.4,0.9 25.3,3.9 35.6,9.1 10.2,5.2 18.8,12.3 25.7,21.3 6.8,9 11.9,19.5 15,31.4"
         style="fill:#ced2ec;fill-opacity:1;fill-rule:nonzero;stroke:none"
         id="path56" />
      <path
         d="m 20775.7,14926.8 c -114.1,0 -226.6,-29.9 -328.1,-88.6 -152,-87.9 -260.7,-229.8 -306.1,-399.5 -45.3,-169.6 -21.9,-346.8 66.1,-498.9 87.9,-152 229.8,-260.8 399.5,-306.1 169.6,-45.4 346.8,-21.9 498.9,66 152,88 260.7,229.8 306.1,399.5 45.3,169.7 21.9,346.9 -66,498.9 -88,152.1 -229.8,260.8 -399.5,306.1 -56.5,15.2 -113.9,22.6 -170.9,22.6 z m 2.2,-1342.9 c -59.3,0 -119,7.8 -177.9,23.5 -176.7,47.3 -324.4,160.5 -416,318.8 -91.5,158.3 -116,342.9 -68.7,519.6 47.2,176.7 160.4,324.4 318.7,416 158.4,91.5 342.9,115.9 519.6,68.7 176.7,-47.2 324.4,-160.4 416,-318.7 91.6,-158.4 116,-342.9 68.8,-519.6 -47.3,-176.7 -160.5,-324.5 -318.8,-416 -105.6,-61.1 -222.9,-92.3 -341.7,-92.3"
         style="fill:#ced2ec;fill-opacity:1;fill-rule:nonzero;stroke:none"
         id="path58" />
      <path
         d="M 28430.9,1441.8 H 1728.33 c -51.13,0 -92.96,-47 -92.96,-104.4 v -1.2 c 0,-57.4 41.83,-104.4 92.96,-104.4 H 16290.5 16476 28430.9 c 50.2,0 91.3,46.2 91.3,102.6 v 4.8 c 0,56.4 -41.1,102.6 -91.3,102.6"
         style="fill:#3a3583;fill-opacity:1;fill-rule:nonzero;stroke:none"
         id="path60" />
      <path
         d="M 12159.3,10409.4 6903.12,14211 c -99.86,72.2 -122.47,213 -50.25,312.9 l 2086.55,2884.9 c 72.23,99.8 213.02,122.4 312.87,50.2 l 5256.21,-3801.6 c 99.8,-72.3 122.4,-213.1 50.2,-312.9 l -2086.5,-2884.9 c -72.2,-99.8 -213,-122.4 -312.9,-50.2"
         style="fill:#ddc558;fill-opacity:1;fill-rule:nonzero;stroke:none"
         id="path62" />
      <path
         d="m 11718.1,13961 -3461.54,2503.6 335.26,463.6 129.62,179.2 3200.16,-2314.6 c -129.2,-232.5 -203.1,-499.5 -203.5,-783 v -48.8"
         style="fill:#d3a93e;fill-opacity:1;fill-rule:nonzero;stroke:none"
         id="path64" />
      <path
         d="m 11622.5,12987.2 -3438.19,2486.7 365.5,505.3 3167.89,-2291.2 -0.7,-570.2 -94.5,-130.6"
         style="fill:#d8b74b;fill-opacity:1;fill-rule:nonzero;stroke:none"
         id="path66" />
      <path
         d="m 8091.45,13988.2 c -34.39,0 -69.09,10.5 -99.09,32.1 l -427,308.9 c -75.78,54.8 -92.78,160.6 -37.97,236.4 l 266.41,368.4 c 33.11,45.7 84.86,70.1 137.34,70.1 34.39,0 69.09,-10.5 99.09,-32.2 l 427.01,-308.8 c 75.77,-54.8 92.76,-160.7 37.97,-236.4 l -266.42,-368.4 c -33.11,-45.8 -84.86,-70.1 -137.34,-70.1"
         style="fill:#d8b74b;fill-opacity:1;fill-rule:nonzero;stroke:none"
         id="path68" />
      <path
         d="m 11715.8,12207.5 -2544.62,1840.4 c -19.64,14.2 -24.04,41.7 -9.84,61.3 8.58,11.9 22,18.2 35.61,18.2 8.92,0 17.92,-2.7 25.69,-8.3 l 2493.26,-1803.3 -0.1,-108.3"
         style="fill:#d8b74b;fill-opacity:1;fill-rule:nonzero;stroke:none"
         id="path70" />
      <path
         d="m 11715.2,11756 -2758.63,1995.2 c -19.64,14.2 -24.04,41.7 -9.83,61.3 8.58,11.9 22,18.2 35.61,18.2 8.92,0 17.91,-2.7 25.69,-8.3 l 2707.26,-1958.2 -0.1,-108.2"
         style="fill:#d8b74b;fill-opacity:1;fill-rule:nonzero;stroke:none"
         id="path72" />
      <path
         d="m 11714.6,11318.6 -2965.92,2145.1 c -19.65,14.2 -24.06,41.7 -9.85,61.4 8.59,11.8 22,18.1 35.61,18.1 8.92,0 17.92,-2.7 25.7,-8.3 l 2914.66,-2108.1 -0.2,-108.2"
         style="fill:#d8b74b;fill-opacity:1;fill-rule:nonzero;stroke:none"
         id="path74" />
      <path
         d="m 9323.03,11203.7 c -391.71,50.3 -490.57,-306 -490.57,-306 0,0 -486.41,-200.5 -650.84,-274.8 -152.25,-68.7 -615.89,-297 -615.89,-297 0,0 -862.39,1024.6 -1188.31,1051.2 l 55.79,-782.8 c 0,0 383.96,-419.1 536.97,-554 102.83,-90.7 486.38,-348.4 486.38,-348.4 0,0 362.74,119.5 854.31,479.7 154.3,113.1 594.72,481.4 594.72,481.4 120.74,-16.6 226.4,14.8 323.75,154.1 97.34,139.3 124.15,85.8 186.04,189.5 83.95,140.6 -47.4,193 -92.35,207.1"
         style="fill:#d2a4ab;fill-opacity:1;fill-rule:nonzero;stroke:none"
         id="path76" />
      <path
         d="m 4937.22,2494.1 191.62,-807 287.01,1.6 10.53,805.4 h -489.16"
         style="fill:#d4a6ad;fill-opacity:1;fill-rule:nonzero;stroke:none"
         id="path78" />
      <path
         d="M 5274.36,1758.2 C 4949.66,1772.3 4937.22,1442 4937.22,1442 h 275.68 122.91 265.26 c 0,0 -2.03,330.3 -326.71,316.2"
         style="fill:#b64d00;fill-opacity:1;fill-rule:nonzero;stroke:none"
         id="path80" />
      <path
         d="m 7428.34,2459.7 468.39,-772.6 287.02,1.6 -231.08,877.2 -524.33,-106.2"
         style="fill:#d4a6ad;fill-opacity:1;fill-rule:nonzero;stroke:none"
         id="path82" />
      <path
         d="M 8042.24,1758.2 C 7717.55,1772.3 7705.11,1442 7705.11,1442 h 275.68 122.91 265.26 c 0,0 -2.03,330.3 -326.72,316.2"
         style="fill:#b64d00;fill-opacity:1;fill-rule:nonzero;stroke:none"
         id="path84" />
      <path
         d="m 5934.05,13099.3 c -99.09,56.3 -217.84,62.5 -300.88,57.5 21.38,22.1 63.45,30.2 63.45,30.2 -51.51,7.6 -166.46,-43.5 -166.46,-43.5 -716.39,276.1 -829,-778.8 -813.94,-1023.8 14.94,-245.1 -240.73,-325.1 -613.47,-518.2 -711.14,-368.4 -773.6,-861.7 -773.6,-861.7 5.53,-3.3 11.32,-7 17.47,-11.2 35.28,59.7 107.92,172 169.17,188.9 -2.32,-5.4 -72.38,-154.5 -98.53,-239.9 209.81,-159.7 602.27,-513.3 875.8,-764 -1.21,49 0.74,118.6 18.64,155.3 l 33.8,-203.5 c 146.36,-134.6 247.3,-229.2 247.3,-229.2 -18.07,198 895.66,1243.1 1372.38,1556.1 116.06,170.8 157.3,472.6 160.38,496.4 -20.03,-239.3 -60.96,-373.5 -97.55,-449.1 403.68,371.5 168.67,1710.5 -93.96,1859.7"
         style="fill:#a53c00;fill-opacity:1;fill-rule:nonzero;stroke:none"
         id="path86" />
      <path
         d="m 5936.97,11176.8 c -66.24,30.8 -25.43,594.6 -25.43,594.6 l -561.22,111.2 c -38.98,-184.7 -18.61,-507.3 -88.25,-521.1 -2.26,-0.5 105.29,-213.9 269.74,-258.8 175.01,-47.8 407.59,72.9 405.16,74.1"
         style="fill:#c38b95;fill-opacity:1;fill-rule:nonzero;stroke:none"
         id="path88" />
      <path
         d="m 5364.04,12945.8 c 0,0 302.08,279 599.68,-18.9 0,0 -198.48,22.8 -599.68,18.9"
         style="fill:#595aa3;fill-opacity:1;fill-rule:nonzero;stroke:none"
         id="path90" />
      <path
         d="m 5327.16,11934 c 0,0 -155.33,245.4 -192.61,455.3 -26.62,149.8 49.7,705.2 607.78,625.2 0,0 162.1,-16 314.46,-118.9 121.16,-81.8 296.04,-258.5 100.51,-743.1 l -50.79,-163.7 -779.35,-54.8"
         style="fill:#b64d00;fill-opacity:1;fill-rule:nonzero;stroke:none"
         id="path92" />
      <path
         d="M 6367.98,8246.9 H 5016.06 c 0.27,-2.3 0.6,-4.8 0.87,-7.3 l -590.07,-7 c 0,0 -110.12,-218.5 -157.99,-840.5 -66.11,-858.7 -17.5,-2459.4 588.49,-5213.6 0,0 190.82,0 500.74,0 h 269.19 c 17.01,0 12,2199.4 5.32,3950 2.69,-7.2 5.35,-14.3 8.05,-21.4 697.71,-1842.9 1719.21,-3937.4 1719.21,-3937.4 h 800.18 C 7993.47,3078.3 6367.98,8246.9 6367.98,8246.9"
         style="fill:#595aa3;fill-opacity:1;fill-rule:nonzero;stroke:none"
         id="path94" />
      <path
         d="m 4860.48,10429 -520.53,55.9 c 0,0 -34.04,-187.1 -93.46,-1346.3 0,0 -169.89,-1037.9 -213.65,-1537 0,0 -259.82,-180.5 -125.97,-500.6 0,0 64.46,-127.1 130.51,-44.1 66.04,83 30.3,61.1 125.65,176 95.35,114.9 136.37,265.3 94.13,363.7 0,0 398.89,1386.5 411.86,1496.7 12.97,110.2 191.46,1335.7 191.46,1335.7"
         style="fill:#d4a6ad;fill-opacity:1;fill-rule:nonzero;stroke:none"
         id="path96" />
      <path
         d="m 7359.87,2169.7 c 0,0 -1021.5,2094.5 -1719.21,3937.4 -19.86,255.4 -53.23,622.3 106.98,749.9 0,0 1701.96,-3151.2 1612.23,-4687.3"
         style="fill:#53529e;fill-opacity:1;fill-rule:nonzero;stroke:none"
         id="path98" />
      <path
         d="m 6478.4,8854.4 c -4.7,-939.7 14.19,-1002.5 14.19,-1002.5 0,0 -748.89,-29.7 -1238.29,79.4 -10.6,2.3 -22.5,5.9 -34.3,8.3 -163.6,40.3 -474,137.4 -661.3,196.7 -93.6,29.6 -156.4,49.7 -156.4,49.7 14.2,38 28.5,74.7 42.7,109.1 182.5,456.2 321.1,655.3 342.4,795.1 1.5,9.8 2.9,19.5 4.3,29.3 2.8,19.6 5.4,39.2 7.81,58.8 1.09,9.7 2.19,19.3 3.28,29 0.41,3.1 0.71,6.3 1.01,9.4 23.7,221.6 21.9,446.5 5,661.5 -7.6,100.6 -18.71,198.7 -31.9,292.9 l -16.5,8 -471.7,228.8 c 96.1,462 268.6,712.5 268.6,712.5 l 2,1 c 180.3,136.9 484,252.2 733.29,277 56.81,-81.8 157.31,-162.2 306.61,-157.5 172.99,3.6 249.1,91.2 300,171.8 373.3,-10.7 478.5,-28.4 478.5,-28.4 l 0.3,-0.5 c 9.59,1.4 155.1,15.4 592.2,-355.9 0,0 -256.1,-588 -259.2,-730.2 l -6.8,5.1 c 10,-74.8 17.1,-149.9 20.7,-224.3 4.7,-118.5 -246.5,-1198.1 -246.5,-1224.1"
         style="fill:#ddc558;fill-opacity:1;fill-rule:nonzero;stroke:none"
         id="path100" />
      <path
         d="m 5358.11,2178.5 c -309.93,0 -500.76,0 -500.76,0 -605.97,2754.2 -654.59,4354.9 -588.48,5213.6 150.34,-765.3 1009.38,-5126.6 1089.24,-5213.6"
         style="fill:#53529e;fill-opacity:1;fill-rule:nonzero;stroke:none"
         id="path102" />
      <path
         d="m 4558.7,8136.3 v 0 c -61.48,19.4 -109.67,34.8 -135.5,43 -13.5,4.3 -20.9,6.7 -20.9,6.7 14.2,38 28.5,74.7 42.7,109.1 182.5,456.2 321.1,655.3 342.4,795.1 1.5,9.7 2.9,19.4 4.3,29.3 2.8,19.3 5.4,38.9 7.81,58.8 1.19,9.6 2.29,19.3 3.28,29 0.41,3.1 0.71,6.3 1.01,9.4 12.31,115.1 17.74,231.2 17.75,346.2 0,106.4 -4.63,212 -12.75,315.3 -3.07,40.6 -6.7,80.8 -10.81,120.4 -6.09,58.7 -13.22,116.3 -21.09,172.5 0,0 0.37,0 1.06,0 6.88,0 45.6,-1.5 61.24,-34.4 463.3,-977.6 162.7,-1602.3 -280.5,-2000.4"
         style="fill:#d3a93e;fill-opacity:1;fill-rule:nonzero;stroke:none"
         id="path104" />
      <path
         d="m 6010.53,11622.7 c 0,0 -701.28,-11.5 -701.76,425.3 -0.48,436.8 -91.32,729.5 356.41,755.4 447.73,25.9 534.91,-140.7 570.53,-286.5 35.63,-145.8 -42.77,-879.9 -225.18,-894.2"
         style="fill:#d2a4ab;fill-opacity:1;fill-rule:nonzero;stroke:none"
         id="path106" />
      <path
         d="m 6214.86,12759.8 c -108.21,131.1 -190.06,102.6 -236,63.2 -66.54,99.5 -196.18,92.1 -320.7,52.6 -163.7,-52 -331.49,-115.6 -360.09,-334.8 -28.03,-214.9 -222.66,-311.8 -222.66,-311.8 0,0 127.81,-78.9 422.49,-3.2 231.9,59.7 400.2,389.7 461.38,527.7 41.69,-37.1 129.7,-122.8 156.07,-206.7 34.96,-111.2 50.68,-340.2 117.42,-332.4 0,0 144.66,348.3 -17.91,545.4"
         style="fill:#b64d00;fill-opacity:1;fill-rule:nonzero;stroke:none"
         id="path108" />
      <path
         d="m 9442.46,11226.8 -261.27,179.4 c -2.23,1.5 -4.58,2.7 -7,3.5 l -0.19,0.2 -44.5,18 -245.21,-757.1 205.88,-169.3 42.16,-17.3 0.1,-0.1 0.52,-0.2 0.04,0.1 c 17.07,-7 38.78,4 47.87,26.3 l 272.15,666.9 c 7.8,19.1 3.35,40 -10.55,49.6"
         style="fill:#3a3582;fill-opacity:1;fill-rule:nonzero;stroke:none"
         id="path110" />
      <path
         d="m 8830.62,10715.8 249.32,-208.8 c 17.57,-14.7 44.97,-3.9 55.48,21.9 l 272.14,666.9 c 7.8,19.1 3.35,40 -10.55,49.5 l -261.27,179.5 c -17.81,12.2 -43.29,0.9 -53.28,-23.5 l -260.19,-637.7 c -7.33,-17.9 -3.89,-37.6 8.35,-47.8"
         style="fill:#595aa3;fill-opacity:1;fill-rule:nonzero;stroke:none"
         id="path112" />
      <path
         d="m 8871.11,10797.5 245.56,-205.6 246.81,604.9 -257.32,176.7 -235.05,-576"
         style="fill:#ddc558;fill-opacity:1;fill-rule:nonzero;stroke:none"
         id="path114" />
      <path
         d="m 8967.95,10658.4 c 3.42,12.2 -1.45,25.1 -10.86,29 -9.41,3.8 -19.8,-2.9 -23.22,-15.1 -3.42,-12.1 1.44,-25.1 10.86,-28.9 9.41,-3.9 19.81,2.9 23.22,15"
         style="fill:#3a3582;fill-opacity:1;fill-rule:nonzero;stroke:none"
         id="path116" />
      <path
         d="m 9115.03,10920.8 c 2.82,6.2 4.56,11.7 5.24,16.4 0.68,4.7 0.22,9.1 -1.36,12.9 -1.6,3.9 -4.28,7.5 -8.07,10.9 -3.79,3.3 -8.77,6.6 -14.96,9.8 -10.58,5.7 -19.84,11.6 -27.78,17.7 -7.94,6.2 -13.94,13.2 -17.98,21.2 -4.04,7.9 -5.78,17.1 -5.22,27.7 0.55,10.5 4.12,23 10.68,37.4 5.69,12.5 12.75,23.9 21.17,34.2 8.42,10.2 17.83,19.1 28.24,26.7 10.41,7.5 21.53,13.6 33.37,18.2 11.84,4.7 24.05,7.5 36.64,8.7 l 21.5,47.3 31.97,-0.6 -21.8,-47.9 c 10.64,-2 19.39,-5.8 26.25,-11.4 6.84,-5.6 11.55,-12.8 14.13,-21.6 2.56,-8.8 2.93,-19.2 1.07,-31.1 -1.87,-11.9 -6.15,-25.2 -12.85,-40 l -57.74,1 c 8.04,17.7 10.75,31 8.14,39.8 -2.61,8.9 -9.44,13.5 -20.49,13.6 -6,0.1 -11.62,-0.8 -16.85,-2.7 -5.22,-1.9 -10.03,-4.6 -14.4,-8 -4.37,-3.4 -8.3,-7.5 -11.77,-12.1 -3.48,-4.8 -6.46,-9.8 -8.93,-15.3 -2.48,-5.4 -4.06,-10.4 -4.73,-14.8 -0.69,-4.5 -0.25,-8.6 1.31,-12.4 1.56,-3.8 4.28,-7.4 8.16,-10.8 3.89,-3.4 9.03,-7 15.41,-10.6 10.31,-6 19.39,-12.1 27.24,-18.3 7.84,-6.2 13.76,-13.4 17.77,-21.4 4.01,-8 5.74,-17.2 5.17,-27.8 -0.56,-10.5 -4.08,-22.9 -10.58,-37.2 -5.9,-13 -13.09,-24.6 -21.57,-34.9 -8.49,-10.2 -17.9,-19 -28.24,-26.4 -10.35,-7.4 -21.45,-13.3 -33.32,-17.7 -11.86,-4.4 -24.09,-7.2 -36.69,-8.3 l -19.99,-44 -31.77,0.5 19.89,43.8 c -10.45,1.5 -19.83,4.6 -28.15,9.1 -8.31,4.7 -14.57,11.2 -18.78,19.6 -4.2,8.5 -5.82,19.1 -4.86,31.9 0.96,12.7 5.47,27.9 13.5,45.6 l 57.75,-1 c -4.76,-10.4 -7.5,-19.2 -8.21,-26.2 -0.72,-7.1 0.03,-12.7 2.25,-17 2.22,-4.3 5.58,-7.3 10.07,-9.1 4.49,-1.8 9.47,-2.7 14.93,-2.8 6.26,-0.1 12.19,0.8 17.79,2.6 5.6,1.9 10.76,4.4 15.51,7.8 4.73,3.3 8.96,7.3 12.66,11.9 3.71,4.6 6.8,9.7 9.28,15.1"
         style="fill:#c88412;fill-opacity:1;fill-rule:nonzero;stroke:none"
         id="path118" />
      <path
         d="m 18117,1435.4 -4789.9,6.3 c -894,1.1 -1624.4,733.5 -1623.2,1627.3 l 14.2,10940.8 c 1,714.8 469.3,1325 1113.9,1540.2 161.7,54.1 334.4,83.2 513.6,83 h 24.6 l 1055.2,-1.5 2614,-3.3 h 1.5 l 1094.6,-1.5 c 894,-1.1 1624.4,-733.5 1623.2,-1627.3 l -14.2,-10940.8 c -1.2,-894 -733.5,-1624.3 -1627.5,-1623.2"
         style="fill:#595aa3;fill-opacity:1;fill-rule:nonzero;stroke:none"
         id="path120" />
      <path
         d="m 17931.9,1720.1 -4418.9,5.7 c -759.2,1.1 -1379.7,623.1 -1378.7,1382.4 l 7.4,5761 1.2,799.7 0.8,640.8 3,2321 1.5,1146.4 0.3,192.4 c 0.9,759.4 623,1379.8 1382.3,1378.9 l 897.3,-1.3 1370.8,-1.8 2150.7,-2.8 c 366.7,-0.4 700.8,-145.7 948.3,-381.3 103.4,-98.2 191.6,-212.4 260.7,-338.3 75.3,-136.9 128,-287.7 153.1,-447.3 11.1,-70.2 16.8,-142.2 16.6,-215.3 l -14.2,-10861.5 c -0.9,-759.3 -622.9,-1379.6 -1382.2,-1378.7"
         style="fill:#ddc558;fill-opacity:1;fill-rule:nonzero;stroke:none"
         id="path122" />
      <path
         d="m 17038.7,15060.1 -2614,3.4 c -156.2,0.2 -283.9,128.2 -283.7,284.4 0.2,156.2 128.2,283.9 284.4,283.7 l 2614,-3.4 c 156.3,-0.2 283.9,-128.2 283.7,-284.4 -0.2,-156.2 -128.2,-283.9 -284.4,-283.7"
         style="fill:#595aa3;fill-opacity:1;fill-rule:nonzero;stroke:none"
         id="path124" />
      <path
         d="m 17998.6,8255.2 c -0.2,0 -0.3,0 -0.4,0 l -4459.3,8.3 c -129.1,0.3 -234.5,106.1 -234.3,235.2 0.3,128.9 105.8,234.2 234.7,234.2 0.2,0 0.3,0 0.5,0 l 4459.2,-8.3 c 129.1,-0.2 234.5,-106 234.3,-235.1 -0.2,-128.9 -105.8,-234.3 -234.7,-234.3"
         style="fill:#d3a93e;fill-opacity:1;fill-rule:nonzero;stroke:none"
         id="path126" />
      <path
         d="m 17996.4,7042.6 c -0.2,0 -0.3,0 -0.5,0 l -4459.3,8.3 c -129.1,0.3 -234.5,106.1 -234.2,235.2 0.2,128.9 105.8,234.2 234.7,234.2 0.1,0 0.3,0 0.4,0 l 4459.3,-8.3 c 129.1,-0.2 234.5,-106 234.2,-235.1 -0.2,-129 -105.8,-234.3 -234.6,-234.3"
         style="fill:#d3a93e;fill-opacity:1;fill-rule:nonzero;stroke:none"
         id="path128" />
      <path
         d="m 17993.9,5712.7 c -0.2,0 -0.3,0 -0.5,0 l -4459.2,8.3 c -129.1,0.2 -234.5,106 -234.3,235.1 0.2,128.9 105.8,234.3 234.7,234.3 0.1,0 0.3,0 0.4,0 l 4459.3,-8.3 c 129.1,-0.3 234.5,-106.1 234.3,-235.2 -0.3,-128.9 -105.9,-234.2 -234.7,-234.2"
         style="fill:#d3a93e;fill-opacity:1;fill-rule:nonzero;stroke:none"
         id="path130" />
      <path
         d="m 14527.7,3372.1 c -0.2,0 -0.3,0 -0.4,0 l -997.5,1.9 c -129.1,0.2 -234.5,106 -234.3,235.1 0.3,128.9 105.9,234.3 234.7,234.3 0.2,0 0.3,0 0.5,0 l 997.4,-1.9 c 129.1,-0.2 234.5,-106 234.3,-235.1 -0.2,-129 -105.8,-234.3 -234.7,-234.3"
         style="fill:#d3a93e;fill-opacity:1;fill-rule:nonzero;stroke:none"
         id="path132" />
      <path
         d="m 17989.5,3365.7 c -0.2,0 -0.3,0 -0.4,0 l -997.5,1.8 c -129.1,0.3 -234.5,106.1 -234.3,235.2 0.3,128.9 105.8,234.2 234.7,234.2 0.2,0 0.3,0 0.5,0 l 997.4,-1.8 c 129.1,-0.3 234.5,-106.1 234.3,-235.2 -0.2,-128.9 -105.8,-234.2 -234.7,-234.2"
         style="fill:#d3a93e;fill-opacity:1;fill-rule:nonzero;stroke:none"
         id="path134" />
      <path
         d="m 15732.1,13182.6 c -927.3,0 -1681.7,-754.4 -1681.7,-1681.6 0,-927.3 754.4,-1681.7 1681.7,-1681.7 927.2,0 1681.6,754.4 1681.6,1681.7 0,927.2 -754.4,1681.6 -1681.6,1681.6 z m 0,-3465 c -983.4,0 -1783.4,800 -1783.4,1783.4 0,983.3 800,1783.3 1783.4,1783.3 983.3,0 1783.3,-800 1783.3,-1783.3 0,-983.4 -800,-1783.4 -1783.3,-1783.4"
         style="fill:#c48017;fill-opacity:1;fill-rule:nonzero;stroke:none"
         id="path136" />
      <path
         d="m 14534.4,12138.8 c 0,0 705.3,-1244.6 1082.4,-1982.9 0,0 1024.8,2570.2 1651.6,3430.9 0,0 -1172.6,-1006 -1802.8,-2030 0,0 -421.6,268.6 -931.2,582"
         style="fill:#595aa3;fill-opacity:1;fill-rule:nonzero;stroke:none"
         id="path138" />
      <path
         d="m 19772.4,7297.9 -174.2,124 c 0,0 -71.8,408.7 -526.7,425.5 0,0 -186.8,-6.8 -124.3,-131.1 62.5,-124.4 56,-69.7 140.4,-246.5 84.3,-176.8 240.8,-308.4 381.2,-312.3 l 150.5,-65.7 153.1,206.1"
         style="fill:#8b5a2a;fill-opacity:1;fill-rule:nonzero;stroke:none"
         id="path140" />
      <path
         d="m 19598.2,7421.9 -121.3,-222.4 c 0,0 1686.2,-1552.8 1943.6,-1333.8 0,0 1452.6,1853.7 1267.8,2829.9 -167.2,882.6 -527,909.9 -594.2,907 -7.2,-0.3 -11.1,-0.9 -11.1,-0.9 0,0 -204.1,151.5 -923.4,-2901.2 -309.1,223.4 -677,280.8 -1561.4,721.4"
         style="fill:#b66c0c;fill-opacity:1;fill-rule:nonzero;stroke:none"
         id="path142" />
      <path
         d="m 25580.6,4835 -634.9,-1.9 -0.4,133 1.1,1.1 632.8,1.8 1.1,-1.1 z m -1372.4,-138.8 2.9,-1008.4 c 0.2,-74.5 60.7,-134.7 135.2,-134.5 l 1841.1,5.3 c 74.4,0.2 134.6,60.7 134.4,135.2 l -2.9,1008.4 c -0.2,74.5 -60.7,134.7 -135.2,134.5 l -485.7,-1.4 -0.4,133 c -0.2,65.3 -53.4,118.2 -118.7,118 l -632.8,-1.8 c -65.3,-0.1 -118.3,-53.4 -118.1,-118.7 l 0.3,-133 -485.6,-1.4 c -74.5,-0.2 -134.7,-60.7 -134.5,-135.2"
         style="fill:#595aa3;fill-opacity:1;fill-rule:nonzero;stroke:none"
         id="path144" />
      <path
         d="m 24209.3,4317.7 2110.7,6 -0.1,39.5 -2110.7,-6 0.1,-39.5"
         style="fill:#3a3583;fill-opacity:1;fill-rule:nonzero;stroke:none"
         id="path146" />
      <path
         d="M 17460.6,1789.3 17343.7,1440 H 16184 c 0,0 296.7,471.2 1276.6,349.3"
         style="fill:#2b2555;fill-opacity:1;fill-rule:nonzero;stroke:none"
         id="path148" />
      <path
         d="m 21589.8,9347.1 c -114.8,299.3 -153.4,482.7 -153.4,482.7 l 501.8,603 c 111.2,-668.1 600.6,-901.6 600.6,-901.6 0,0 -719,-553.3 -1209.5,-500.6 0,0 84.4,168 260.5,316.5"
         style="fill:#8b5a2a;fill-opacity:1;fill-rule:nonzero;stroke:none"
         id="path150" />
      <path
         d="m 21293.2,9812.4 c 0,0 787.2,26.6 763.1,516.6 -24.1,490 61.2,823.5 -442.5,827.2 -503.6,3.7 -592,-188.1 -623.7,-353.6 -31.8,-165.5 97.7,-984.6 303.1,-990.2"
         style="fill:#9a6a38;fill-opacity:1;fill-rule:nonzero;stroke:none"
         id="path152" />
      <path
         d="m 22057.9,10295.2 c 0,0 -143.5,634 -858.2,596.7 -489.6,-25.6 -281.6,429.6 -239.9,503.5 0,0 377.4,3.7 765.9,-3.1 815.2,-14.4 395.6,-985.8 332.2,-1097.1"
         style="fill:#332e62;fill-opacity:1;fill-rule:nonzero;stroke:none"
         id="path154" />
      <path
         d="M 17987.9,1789.3 17871.1,1440 h -1159.8 c 0,0 296.7,471.2 1276.6,349.3"
         style="fill:#332e62;fill-opacity:1;fill-rule:nonzero;stroke:none"
         id="path156" />
      <path
         d="m 23480,5520.8 c 0,0 -1970.5,-322.1 -2628.3,-450.1 -969.1,-188.7 -1498.3,-340.2 -1498.3,-340.2 l -2671.8,-2962 h 994 c 0,0 2219.2,1432.4 2502.8,1787.1 H 22622 c 0,0 1573.3,269.3 858,1965.2"
         style="fill:#332e62;fill-opacity:1;fill-rule:nonzero;stroke:none"
         id="path158" />
      <path
         d="m 23809.2,5342.6 c -824.2,-401.4 -1744,-650.4 -2058.3,-725.4 -18.8,-4.5 -37.1,-2 -52.8,5.5 -29,13.8 -48.8,45 -44.8,80.7 4.5,40.1 8.9,97.3 10.1,171.2 3.8,204.7 -18.6,537.9 -143.4,992.3 l -0.8,2.5 c -54.9,199.8 -132.6,453.2 -209.1,726.1 -0.6,2.2 -1.2,4.5 -1.8,6.7 -55.1,196.3 -109.5,402.5 -154.3,605.9 l -0.2,0.9 c -79.7,360.3 -129.5,711.6 -100.7,982.1 41.4,387.2 162.8,682.6 316,905.2 1.2,0 124.8,176.8 125.7,177 167,2.8 330.7,50.2 479.7,170.7 162.8,132 337.8,274.7 373.6,258.7 500.1,-221.5 920.8,-1207.2 1108.3,-2318.7 153.5,-908.9 345.2,-1670.1 410,-1917.3 13,-49.7 -10.9,-101.6 -57.2,-124.1"
         style="fill:#c68216;fill-opacity:1;fill-rule:nonzero;stroke:none"
         id="path160" />
      <path
         d="m 18836.7,8054 272.6,187.2 c 2.4,1.6 4.8,2.8 7.4,3.7 l 46.1,18.8 256.4,-789.8 -219.5,-177.6 -39.4,-17.2 h -0.1 l -0.5,-0.3 -0.1,0.1 c -17.8,-7.2 -40.4,4.2 -49.9,27.5 l -284,695.9 c -8.1,19.9 -3.5,41.7 11,51.7"
         style="fill:#3a3582;fill-opacity:1;fill-rule:nonzero;stroke:none"
         id="path162" />
      <path
         d="M 19475.2,7520.8 19215,7303 c -18.3,-15.4 -46.9,-4.1 -57.9,22.7 l -284,696 c -8.1,19.9 -3.5,41.7 11,51.6 l 272.7,187.3 c 18.6,12.7 45.1,1 55.6,-24.5 l 271.5,-665.4 c 7.6,-18.7 4,-39.3 -8.7,-49.9"
         style="fill:#595aa3;fill-opacity:1;fill-rule:nonzero;stroke:none"
         id="path164" />
      <path
         d="m 19432.9,7606.1 -256.2,-214.5 -257.6,631.1 268.5,184.4 245.3,-601"
         style="fill:#dbdff0;fill-opacity:1;fill-rule:nonzero;stroke:none"
         id="path166" />
      <path
         d="m 19331.9,7460.9 c -3.6,12.7 1.5,26.2 11.3,30.2 9.8,4 20.6,-3 24.2,-15.7 3.6,-12.6 -1.5,-26.2 -11.3,-30.2 -9.8,-4 -20.7,3 -24.2,15.7"
         style="fill:#3a3582;fill-opacity:1;fill-rule:nonzero;stroke:none"
         id="path168" />
      <path
         d="m 19188.1,7719 c 3.8,-4.8 8.2,-9 13.2,-12.5 4.9,-3.5 10.3,-6.2 16.2,-8.1 5.8,-1.9 12,-2.8 18.5,-2.7 5.7,0.1 10.9,1.1 15.6,3 4.7,1.8 8.2,5 10.5,9.4 2.3,4.5 3.1,10.4 2.4,17.7 -0.8,7.4 -3.6,16.5 -8.6,27.4 l 60.3,1 c 8.3,-18.4 13,-34.3 14,-47.6 1,-13.3 -0.6,-24.4 -5,-33.2 -4.4,-8.8 -11,-15.6 -19.6,-20.4 -8.7,-4.8 -18.5,-8 -29.4,-9.6 l 20.7,-45.7 -33.1,-0.5 -20.9,45.9 c -13.1,1.2 -25.9,4 -38.3,8.6 -12.3,4.6 -23.9,10.8 -34.7,18.5 -10.8,7.7 -20.6,16.9 -29.5,27.6 -8.8,10.7 -16.3,22.8 -22.5,36.4 -6.8,14.9 -10.4,27.8 -11,38.8 -0.6,11 1.2,20.7 5.4,29.1 4.1,8.3 10.3,15.7 18.5,22.2 8.2,6.5 17.7,12.9 28.4,19.1 6.7,3.8 12.1,7.5 16.1,11.1 4.1,3.5 6.9,7.3 8.5,11.3 1.6,4 2.1,8.3 1.4,12.9 -0.7,4.6 -2.3,9.8 -4.9,15.5 -2.6,5.7 -5.7,11 -9.4,15.9 -3.6,4.9 -7.7,9.1 -12.2,12.7 -4.6,3.5 -9.6,6.3 -15.1,8.3 -5.4,2 -11.3,3 -17.5,2.8 -11.6,-0.1 -18.7,-4.9 -21.4,-14.1 -2.8,-9.3 0.1,-23.2 8.5,-41.6 l -60.3,-1 c -7,15.3 -11.4,29.3 -13.4,41.7 -1.9,12.4 -1.6,23.2 1.1,32.4 2.7,9.2 7.6,16.7 14.8,22.6 7.1,5.8 16.3,9.8 27.4,11.8 l -22.8,50.1 33.4,0.6 22.4,-49.4 c 13.1,-1.2 25.9,-4.2 38.2,-9 12.4,-4.8 24,-11.2 34.9,-19.1 10.8,-7.8 20.6,-17.1 29.4,-27.8 8.8,-10.7 16.2,-22.6 22.1,-35.7 6.9,-15 10.6,-28.1 11.2,-39.1 0.5,-10.9 -1.3,-20.6 -5.5,-28.9 -4.2,-8.2 -10.5,-15.6 -18.7,-22 -8.3,-6.4 -18,-12.6 -29,-18.5 -6.5,-3.4 -11.7,-6.8 -15.6,-10.3 -4,-3.4 -6.8,-7.2 -8.5,-11.3 -1.6,-4 -2.1,-8.5 -1.4,-13.5 0.7,-4.9 2.5,-10.6 5.5,-17.1 2.6,-5.7 5.8,-10.9 9.7,-15.7"
         style="fill:#c88412;fill-opacity:1;fill-rule:nonzero;stroke:none"
         id="path170" />
      <path
         d="m 19772.4,7037.2 -174.2,124 c 0,0 -71.8,408.7 -526.7,425.5 0,0 -186.8,-6.8 -124.3,-131.1 62.5,-124.4 56,-69.7 140.4,-246.5 84.3,-176.8 240.8,-308.4 381.2,-312.3 l 150.5,-65.7 153.1,206.1"
         style="fill:#9a6a38;fill-opacity:1;fill-rule:nonzero;stroke:none"
         id="path172" />
      <g
         id="g174">
        <g
           id="g176"
           clip-path="url(#clipPath180)">
          <path
             d="m 21310.1,5092.3 h 1103.8 v 2547.5 h -1103.8 z"
             style="fill:#bc7510;fill-opacity:1;fill-rule:nonzero;stroke:none"
             id="path182" />
        </g>
      </g>
      <path
         d="m 23809.2,5342.6 c 0,0 -1149,-14.5 -2634.7,-351.4 -544.2,-123.4 -1698.7,-376.3 -1698.7,-376.3 L 17027.2,1768.5 h 994 c 0,0 2219.1,1432.4 2502.8,1787.1 h 2443.6 c 0,0 1556.9,91.2 841.6,1787"
         style="fill:#3a3583;fill-opacity:1;fill-rule:nonzero;stroke:none"
         id="path184" />
      <path
         d="m 21308.3,6602.2 v 0 c -55.1,196.3 -109.5,402.5 -154.3,605.9 l -0.2,0.9 c 0,0 154.8,255.1 229.3,514.8 74.5,259.5 475,867.6 475,867.6 l 309.6,-203.6 193.7,-362.5 c 0,0 -84.7,-170.1 -193.7,-385.5 -18.3,99.1 -29.8,159.5 -29.8,159.5 l -821.5,-1194.5 c -2.8,-0.9 -5.5,-1.8 -8.1,-2.6"
         style="fill:#bc7510;fill-opacity:1;fill-rule:nonzero;stroke:none"
         id="path186" />
      <path
         d="m 21316.4,6604.8 821.5,1194.5 c 0,0 11.5,-60.4 29.8,-159.5 -180.1,-355.9 -426.6,-835.6 -466.9,-875.8 -50.1,-50.2 -282.9,-127.2 -384.4,-159.2"
         style="fill:#b8700e;fill-opacity:1;fill-rule:nonzero;stroke:none"
         id="path188" />
      <path
         d="m 19625.2,7159.5 -148.3,-283.8 c 0,0 1686.2,-1552.8 1943.6,-1333.8 0,0 1452.6,1853.7 1267.8,2829.9 -167.1,882.6 -527,909.9 -594.2,907 -7.2,-0.3 -11.1,-0.9 -11.1,-0.9 0,0 -204.1,151.5 -923.4,-2901.2 -309.1,223.4 -650,342.2 -1534.4,782.8"
         style="fill:#c68216;fill-opacity:1;fill-rule:nonzero;stroke:none"
         id="path190" />
      <path
         d="m 8276.5,3834.4 c 2.5,0.8 5.11,1.6 7.73,2.3 -1.37,-0.5 -3.98,-1.4 -7.73,-2.3"
         style="fill:#54519e;fill-opacity:1;fill-rule:nonzero;stroke:none"
         id="path192" />
      <path
         d="m 12630,2479.9 c -179.8,168.7 -434.6,641.7 -434.6,641.7 0,0 -259,-99.9 -887.1,-116.3 -628,-16.3 -966.5,79.6 -966.5,79.6 -179.4,-266.2 -238.8,-537 -417.93,-689.5 -149.69,-127.5 -695.35,-134.6 -695.35,-134.6 0,0 639.91,-806.5 1294.28,-817.5 673.7,-11.3 1267.9,0 1267.9,0 0,0 738,241.1 1252.7,672.6 0,0 -370.3,323.5 -413.4,364"
         style="fill:#3a3583;fill-opacity:1;fill-rule:nonzero;stroke:none"
         id="path194" />
      <path
         d="m 11576.4,7855 c -104.4,49.8 -225,47.3 -308.7,36.3 20.1,23.9 62,35.1 62,35.1 -52.6,4 -165.2,-56.1 -165.2,-56.1 -745.2,227.1 -782.2,-848.6 -749,-1095.5 32.9,-246.8 -220,-346.5 -583.06,-569.1 -692.78,-424.6 -720.01,-928.4 -720.01,-928.4 5.84,-2.9 11.96,-6.3 18.5,-10.1 31.34,63.1 96.66,182 157.4,203.6 -1.94,-5.7 -61.97,-161.7 -82.19,-250.1 223.95,-146.2 646.91,-475.4 941.96,-709.2 -4.8,49.5 -7.9,120.1 7.6,158.5 l 49,-203.4 c 157.9,-125.5 267,-214 267,-214 -32.7,199.1 815.7,1323.4 1275.3,1674.9 105,181.3 124.7,489.8 126.1,514 -2.8,-243.6 -34.5,-382.4 -66,-461.6 381.4,405.4 46,1743.2 -230.7,1875.1"
         style="fill:#332e62;fill-opacity:1;fill-rule:nonzero;stroke:none"
         id="path196" />
      <path
         d="m 10838.5,7585.8 c 0,0 275.1,272.5 598,-7.2 0,0 -192.3,40.5 -598,7.2"
         style="fill:#5a59a3;fill-opacity:1;fill-rule:nonzero;stroke:none"
         id="path198" />
      <path
         d="m 10733.7,6581.1 c 0,0 -86.4,180.2 -139.4,389.8 -37.8,149.7 -1.1,717.3 569.5,677.1 0,0 165.2,-4.4 326.9,-97.4 128.5,-74 318.4,-240 155.9,-744.7 l -39.5,-169.4 -873.4,-55.4"
         style="fill:#3a3583;fill-opacity:1;fill-rule:nonzero;stroke:none"
         id="path200" />
      <path
         d="m 11961,3434 c 152.9,1676.2 86.1,2356.4 86.1,2356.4 0,0 -241.3,58.2 -561.1,156.6 -34.1,149.2 -18,458.4 -18,458.4 l -557.9,-12.5 c -18.3,-133.7 -10.2,-334.6 -28,-448.5 -223,-78.8 -482.7,-76.5 -736.1,-194.4 0,0 313.4,-1287.3 426,-2357.6 12.3,-116.3 1375.5,-105.7 1389,41.6"
         style="fill:#c38b95;fill-opacity:1;fill-rule:nonzero;stroke:none"
         id="path202" />
      <path
         d="m 11531.4,6340.3 c -147.8,-140.4 -331.4,-327.6 -724.9,20.7 -76.9,68.2 -71.4,172.6 -75.5,322.6 -4.9,177.5 -47.3,286.3 -27.1,388.6 23.9,122.3 128.7,177.3 346.1,195.6 399,33.4 600.3,-57 573,-254.9 -61.1,-441.6 58.6,-529.8 -91.6,-672.6"
         style="fill:#cca1aa;fill-opacity:1;fill-rule:nonzero;stroke:none"
         id="path204" />
      <path
         d="m 10699,7182.7 c -123.3,-232.2 -343.8,-214.9 -343.8,-214.9 0,0 215.4,-201.2 454.7,-120.9 239.3,80.3 410.1,450 410.1,450 -134.4,193.2 -458.5,3.6 -521,-114.2"
         style="fill:#3a3583;fill-opacity:1;fill-rule:nonzero;stroke:none"
         id="path206" />
      <path
         d="m 11343.4,7310 c -33.9,-7.5 -134.4,-35.4 -134.4,-35.4 0,0 236.5,4.3 290.3,-74.9 53.7,-79.3 61,-167.7 88,-212.4 27.1,-44.6 22.5,-94.7 22.5,-94.7 0,0 203.6,521.2 -266.4,417.4"
         style="fill:#3a3583;fill-opacity:1;fill-rule:nonzero;stroke:none"
         id="path208" />
      <path
         d="m 12961.1,4230.7 c 0,0 -397.4,-79.5 -579.1,-300.9 0,0 -190,423.1 -210.6,420.2 l -0.3,-0.1 c -19,-7.6 -195,-885.6 -172.3,-948.1 22.7,-62.4 201.6,-275.3 224.3,-320.7 10.1,-20.1 -106.2,-104.2 -272.4,-191.7 -209.1,-110.1 -497.4,-225.6 -712.6,-225.6 -381.1,0 -989.1,179 -980.7,300 0.1,1.5 0.2,3.1 0.6,4.7 8.5,42.4 264.8,319.8 276.2,450.4 11.2,129.3 -192.7,937.7 -218.8,935.1 l -0.7,-0.4 c -22.7,-18.8 -206.3,-461.6 -206.3,-461.6 0,0 -372.71,281.9 -537.34,298.9 0,0 365.14,1356.8 566.64,1572.5 0,0 96.5,27.5 431.5,118.3 0,0 231.8,-720 651.9,-1026.6 0,0 471.2,369 560.1,1015.3 0,0 443.8,-109.8 481.6,-155.2 37.8,-45.5 698.3,-1484.5 698.3,-1484.5"
         style="fill:#595aa3;fill-opacity:1;fill-rule:nonzero;stroke:none"
         id="path210" />
      <path
         d="m 10810.4,3350.7 c -41.7,-66 -416.6,-414.3 -553,-386.9 0.1,1.5 0.2,3.1 0.6,4.7 8.5,42.4 264.8,319.8 276.2,450.4 11.2,129.3 -192.7,937.7 -218.8,935.1 12.5,30.6 35,65.5 74.9,94.3 94.7,68.1 465.5,-1025.7 420.1,-1097.6"
         style="fill:#53529e;fill-opacity:1;fill-rule:nonzero;stroke:none"
         id="path212" />
      <path
         d="m 11950.7,2889.4 c -115.5,190.3 -199,463.1 -210.2,498.2 -17,54 227.1,939.6 346.3,985 47.9,18.2 72.5,2.6 84.6,-22.6 l -0.3,-0.1 c -19,-7.6 -195,-885.6 -172.3,-948.1 22.7,-62.4 201.6,-275.3 224.3,-320.7 10.1,-20.1 -106.2,-104.2 -272.4,-191.7"
         style="fill:#53529e;fill-opacity:1;fill-rule:nonzero;stroke:none"
         id="path214" />
      <path
         d="m 13169.5,2218.6 c -17.2,-17.9 -35.6,-35.4 -55.1,-52.3 -152.9,-132.2 -597.9,-277.3 -1025.8,-393.7 -134.4,-36.6 -267.1,-70.4 -388.4,-100.1 -100.4,-31.2 -304.3,-95.9 -522.5,-171.9 -308.2,-107.3 -442.9,-56 -595.6,-29 -152.7,26.9 -325,-79.9 -551.2,2.8 -226.14,82.7 -168.96,528.1 -168.96,528.1 76.62,50.2 374.36,64.7 575.96,-80 201.6,-144.7 471.8,-117.8 471.8,-117.8 10.3,-1.1 34.9,11.2 68.6,32.4 0,0 260.9,152.6 735.5,547.4 69.2,57.6 143,120.4 221.2,188.5 180.4,157.4 345.2,346.3 513.9,478.9 97.8,77 196.9,135 301.2,157.1 484.1,102.8 656.3,-85.4 656.3,-85.4 0,0 108.3,-545.6 -236.9,-905"
         style="fill:#c38b95;fill-opacity:1;fill-rule:nonzero;stroke:none"
         id="path216" />
      <path
         d="m 10893,2225 v -647 c -139.3,46.7 -260.8,85.4 -338.4,109.9 -117.8,31.6 -244.8,67.2 -371.7,105.6 -347.69,104.9 -694.53,229.9 -847.96,347 -11.33,8.7 -21.55,17.3 -30.71,25.8 -380.48,356 -234.65,987.6 -234.65,987.6 0,0 123.84,157.9 571.53,55.1 112.44,-25.7 226.5,-88.2 340.74,-170.6 152.65,-110.1 305.75,-255.9 455.85,-397.3 50.8,-47.8 100.3,-94 148.3,-138.3 111.8,-103.2 215.4,-196.6 307,-277.8"
         style="fill:#cca1aa;fill-opacity:1;fill-rule:nonzero;stroke:none"
         id="path218" />
      <path
         d="m 11084.8,1512.4 c 22.4,-7.9 43.9,-15 64.5,-21.3 -288.2,-94.6 -419.3,-45.6 -567.2,-19.5 -152.7,26.9 -325,-79.9 -551.2,2.8 -226.14,82.7 -168.96,528.1 -168.96,528.1 65.22,42.7 290.56,59.6 480.56,-25.5 -47.5,-71.2 -101,-136 -159.6,-183.5 126.9,-38.4 253.9,-74 371.7,-105.6 111.7,-35.2 314.3,-100.1 530.2,-175.5"
         style="fill:#c38b95;fill-opacity:1;fill-rule:nonzero;stroke:none"
         id="path220" />
      <path
         d="m 11182.9,1973.2 c -134.2,-95 -204.6,-136.1 -204.6,-136.1 -33.7,-21.2 -58.3,-33.5 -68.6,-32.4 0,0 -270.2,-26.9 -471.8,117.8 -30,21.5 -62.2,39.6 -95.4,54.5 27.6,41.4 53.2,85.1 76.6,128.7 106.2,198.2 166.9,397.1 166.9,397.1 225.8,-208.5 417.9,-376.5 545.9,-486.1 18.4,-15.7 35.4,-30.2 51,-43.5"
         style="fill:#c68216;fill-opacity:1;fill-rule:nonzero;stroke:none"
         id="path222" />
      <path
         d="m 12363.2,1851.1 c -7.6,-103.5 -37.7,-352.8 -150.1,-389.2 -195.6,-63.5 -349.3,38.1 -510.7,8.6 -150.3,-27.6 -274.2,-66.1 -553.1,20.6 9.3,3 18.8,6.1 28.4,9.5 218.2,76 422.1,140.7 522.5,171.9 121.3,29.7 254,63.5 388.4,100.1 91.7,25 184.3,51.2 274.6,78.5"
         style="fill:#b66c0c;fill-opacity:1;fill-rule:nonzero;stroke:none"
         id="path224" />
      <path
         d="m 10893,3239.7 -54.6,-350.3 c -512.3,-6.3 -1393.63,424 -1393.63,424 -124.96,193.5 108.93,834.7 129.8,890.4 205.19,-16.7 382.93,-210.4 499.43,-286.6 L 9939.99,3635 c 46.72,-17.7 953.01,-395.3 953.01,-395.3"
         style="fill:#c38b95;fill-opacity:1;fill-rule:nonzero;stroke:none"
         id="path226" />
      <path
         d="m 11623.3,3239.7 54.6,-350.3 c 512.3,-6.3 1393.6,424 1393.6,424 125,193.5 -120.1,854.5 -141,910.3 -205.2,-16.7 -414.9,-161.5 -518.9,-261 l 164.7,-327.7 c -46.7,-17.7 -953,-395.3 -953,-395.3"
         style="fill:#c38b95;fill-opacity:1;fill-rule:nonzero;stroke:none"
         id="path228" />
      <path
         d="m 12266.5,2783.7 h -2009.1 v 1270.7 h 2009.1 V 2783.7"
         style="fill:#c68216;fill-opacity:1;fill-rule:nonzero;stroke:none"
         id="path230" />
      <path
         d="m 11175.2,3419 c 0,47.9 38.9,86.7 86.7,86.7 47.9,0 86.7,-38.8 86.7,-86.7 0,-47.8 -38.8,-86.6 -86.7,-86.6 -47.8,0 -86.7,38.8 -86.7,86.6"
         style="fill:#b66c0c;fill-opacity:1;fill-rule:nonzero;stroke:none"
         id="path232" />
      <path
         d="m 9981.85,3038.4 c -17.38,-15.4 -42.42,-27.9 -76.31,-36.9 -319.5,-84.5 -500.76,-608.6 -570.6,-861 -11.33,8.7 -21.55,17.3 -30.71,25.8 -380.48,356 -234.65,987.6 -234.65,987.6 0,0 123.84,157.9 571.53,55.1 112.44,-25.7 226.5,-88.2 340.74,-170.6"
         style="fill:#5a59a3;fill-opacity:1;fill-rule:nonzero;stroke:none"
         id="path234" />
      <path
         d="m 13169.5,2218.6 c -121.4,297.6 -540.5,678.8 -720.6,833.3 97.8,77 196.9,135 301.2,157.1 484.1,102.8 656.3,-85.4 656.3,-85.4 0,0 108.3,-545.6 -236.9,-905"
         style="fill:#5a59a3;fill-opacity:1;fill-rule:nonzero;stroke:none"
         id="path236" />
      <path
         d="m 12088.6,1772.6 c -134.4,-36.6 -267.1,-70.4 -388.4,-100.1 -100.4,-31.2 -304.3,-95.9 -522.5,-171.9 -308.2,-107.3 -442.9,-56 -595.6,-29 -152.7,26.9 -325,-79.9 -551.2,2.8 -226.14,82.7 -168.96,528.1 -168.96,528.1 76.62,50.2 374.36,64.7 575.96,-80 201.6,-144.7 471.8,-117.8 471.8,-117.8 10.3,-1.1 34.9,11.2 68.6,32.4 0,0 260.9,152.6 735.5,547.4 47.4,-135.2 175.8,-456.1 374.8,-611.9"
         style="fill:#c68216;fill-opacity:1;fill-rule:nonzero;stroke:none"
         id="path238" />
      <path
         d="m 11182.9,1973.2 c -134.2,-95 -204.6,-136.1 -204.6,-136.1 -33.7,-21.2 -58.3,-33.5 -68.6,-32.4 0,0 -270.2,-26.9 -471.8,117.8 -30,21.5 -62.2,39.6 -95.4,54.5 27.6,41.4 53.2,85.1 76.6,128.7 147.5,-49.8 445.5,-130.8 712.8,-89 18.4,-15.7 35.4,-30.2 51,-43.5"
         style="fill:#b66c0c;fill-opacity:1;fill-rule:nonzero;stroke:none"
         id="path240" />
      <path
         d="m 22456.8,3027.2 h 44.4 c -38.3,-1.3 -59.2,-2.3 -59.2,-2.3 l 14.8,2.3"
         style="fill:#c48017;fill-opacity:1;fill-rule:nonzero;stroke:none"
         id="path242" />
      <path
         d="m 25645.1,1832.3 v -252.7 c 0,-75.8 -62.4,-137.8 -138.5,-137.8 h -5178 c -76.2,0 -138.6,62 -138.6,137.8 v 252.7 c 0,75.8 62.4,137.9 138.6,137.9 h 5178 c 76.1,0 138.5,-62.1 138.5,-137.9"
         style="fill:#ddc558;fill-opacity:1;fill-rule:nonzero;stroke:none"
         id="path244" />
      <path
         d="m 26499.9,2360.8 v -252.7 c 0,-75.8 -62.3,-137.9 -138.5,-137.9 h -5178 c -76.2,0 -138.5,62.1 -138.5,137.9 v 252.7 c 0,75.8 62.3,137.9 138.5,137.9 h 5178 c 76.2,0 138.5,-62.1 138.5,-137.9"
         style="fill:#ddc558;fill-opacity:1;fill-rule:nonzero;stroke:none"
         id="path246" />
      <path
         d="m 26728.8,3415.3 v -252.5 c 0,-76 -62.4,-137.9 -138.5,-137.9 h -5178 c -76.1,0 -138.5,61.9 -138.5,137.9 v 252.5 c 0,75.9 62.4,138 138.5,138 h 5178 c 76.1,0 138.5,-62.1 138.5,-138"
         style="fill:#ddc558;fill-opacity:1;fill-rule:nonzero;stroke:none"
         id="path248" />
      <path
         d="m 25933.8,2889.2 v -252.5 c 0,-76 -62.4,-138 -138.5,-138 h -5178 c -76.2,0 -138.5,62 -138.5,138 v 252.5 c 0,76 62.3,137.9 138.5,137.9 h 5178 c 76.1,0 138.5,-61.9 138.5,-137.9"
         style="fill:#ddc558;fill-opacity:1;fill-rule:nonzero;stroke:none"
         id="path250" />
      <path
         d="M 25506.6,1441.8 H 24797 c -239.4,343.1 -1048.3,479.7 -1840.4,528.4 h 2550 c 76.1,0 138.5,-62.1 138.5,-137.9 v -252.7 c 0,-75.8 -62.4,-137.8 -138.5,-137.8"
         style="fill:#d3a93e;fill-opacity:1;fill-rule:nonzero;stroke:none"
         id="path252" />
      <path
         d="m 21919.9,1970.2 h -736.5 c -76.2,0 -138.5,62.1 -138.5,137.9 v 252.7 c 0,75.8 62.3,137.9 138.5,137.9 H 24428 c -1483.4,0 -2237.4,-360.6 -2508.1,-528.5"
         style="fill:#d3a93e;fill-opacity:1;fill-rule:nonzero;stroke:none"
         id="path254" />
      <path
         d="m 21958.2,3027.1 h -570.8 c -64.4,11.8 -113.6,68.2 -113.6,135.7 v 252.5 c 0,75.9 62.4,138 138.5,138 h 2797.8 c -930.5,-4.8 -2207.4,-476 -2251.9,-526.2"
         style="fill:#d3a93e;fill-opacity:1;fill-rule:nonzero;stroke:none"
         id="path256" />
      <path
         d="m 21955.6,3024.9 h -543.3 c -8.5,0 -16.8,0.7 -24.9,2.2 v 0 h 570.8 v 0 l -2.6,-2.2"
         style="fill:#d3a93e;fill-opacity:1;fill-rule:nonzero;stroke:none"
         id="path258" />
      <path
         d="m 25316.7,3555.6 c -10.3,-0.1 -21,-0.1 -32.3,0 h 32.3"
         style="fill:#dde1f4;fill-opacity:1;fill-rule:nonzero;stroke:none"
         id="path260" />
      <path
         d="m 13696.7,14839.8 h -631.3 c -53.5,0 -97.3,43.7 -97.3,97.3 0,53.5 43.8,97.3 97.3,97.3 h 631.3 c 53.5,0 97.3,-43.8 97.3,-97.3 0,-53.6 -43.8,-97.3 -97.3,-97.3"
         style="fill:#595aa3;fill-opacity:1;fill-rule:nonzero;stroke:none"
         id="path262" />
      <path
         d="m 18350.1,14839.8 h -631.3 c -53.6,0 -97.3,43.7 -97.3,97.3 0,53.5 43.7,97.3 97.3,97.3 h 631.3 c 53.5,0 97.3,-43.8 97.3,-97.3 0,-53.6 -43.8,-97.3 -97.3,-97.3"
         style="fill:#595aa3;fill-opacity:1;fill-rule:nonzero;stroke:none"
         id="path264" />
    </g>
  </g>
</svg>
