<?xml version="1.0" encoding="UTF-8" standalone="no"?>
<!-- Created with Inkscape (http://www.inkscape.org/) -->

<svg
   version="1.1"
   id="svg2"
   width="4000"
   height="2666.6667"
   viewBox="0 0 4000 2666.6667"
   sodipodi:docname="IST_37929_07226.eps"
   xmlns:inkscape="http://www.inkscape.org/namespaces/inkscape"
   xmlns:sodipodi="http://sodipodi.sourceforge.net/DTD/sodipodi-0.dtd"
   xmlns="http://www.w3.org/2000/svg"
   xmlns:svg="http://www.w3.org/2000/svg">
  <defs
     id="defs6" />
  <sodipodi:namedview
     id="namedview4"
     pagecolor="#ffffff"
     bordercolor="#000000"
     borderopacity="0.25"
     inkscape:showpageshadow="2"
     inkscape:pageopacity="0.0"
     inkscape:pagecheckerboard="0"
     inkscape:deskcolor="#d1d1d1" />
  <g
     id="g8"
     inkscape:groupmode="layer"
     inkscape:label="ink_ext_XXXXXX"
     transform="matrix(1.3333333,0,0,-1.3333333,0,2666.6667)">
    <g
       id="g10"
       transform="scale(0.1)">
      <path
         d="M 0,0 H 30000 V 20000 H 0 Z"
         style="fill:#ffffff;fill-opacity:1;fill-rule:nonzero;stroke:none"
         id="path12" />
      <path
         d="m 2983.7,4323.6 c 0,0 -3636.227,2953 -1511.44,6287 1371.15,2151.4 5517.7,2325.4 7719.04,1011.8 937.6,-559.4 3230.8,-2390.4 5125.3,1795.7 2214.4,4892.9 15088.1,1348.4 12644.5,-3910.7 -1493.3,-3213.8 4241,-2285 1494.5,-5183.8 H 2983.7"
         style="fill:#ebf3fa;fill-opacity:1;fill-rule:nonzero;stroke:none"
         id="path14" />
      <path
         d="M 22939.4,8102.1 V 6133.4 c 0,-120.8 98.8,-219.7 219.7,-219.7 h 1170.1 c 31.3,0 61.2,6.6 88.2,18.6 77.2,34.1 131.5,111.6 131.5,201.1 v 1968.7 c 0,120.9 -98.9,219.7 -219.7,219.7 h -1170.1 c -120.9,0 -219.7,-98.8 -219.7,-219.7"
         style="fill:#fcecdb;fill-opacity:1;fill-rule:nonzero;stroke:none"
         id="path16" />
      <path
         d="m 23457.8,7581.4 c 123.6,46.5 186.2,184.4 139.8,308 -46.5,123.6 -184.3,186.2 -308,139.8 -123.6,-46.4 -186.2,-184.3 -139.8,-307.9 46.5,-123.7 184.3,-186.3 308,-139.9"
         style="fill:#f7e0cb;fill-opacity:1;fill-rule:nonzero;stroke:none"
         id="path18" />
      <path
         d="m 23149.8,7721.3 447.8,168.1 c -46.5,123.6 -184.3,186.2 -308,139.8 -123.6,-46.4 -186.2,-184.3 -139.8,-307.9"
         style="fill:#efcbab;fill-opacity:1;fill-rule:nonzero;stroke:none"
         id="path20" />
      <path
         d="m 24265.8,7620.1 c 102.4,83.5 117.6,234.2 34.1,336.4 -83.6,102.3 -234.2,117.6 -336.5,34 -102.3,-83.5 -117.5,-234.1 -34,-336.4 83.5,-102.3 234.1,-117.5 336.4,-34"
         style="fill:#f7e0cb;fill-opacity:1;fill-rule:nonzero;stroke:none"
         id="path22" />
      <path
         d="m 23929.4,7654.1 370.5,302.4 c -83.6,102.3 -234.2,117.6 -336.5,34 -102.3,-83.5 -117.5,-234.1 -34,-336.4"
         style="fill:#efcbab;fill-opacity:1;fill-rule:nonzero;stroke:none"
         id="path24" />
      <path
         d="m 24417.4,7036.3 h -10.3 v 0 h -153.5 v 565.6 c 0,2.9 0,5.8 -0.2,8.7 4.2,3 8.4,6.2 12.4,9.5 82.8,67.6 108.6,179.1 71.2,273.4 49.4,-46.3 80.4,-112 80.4,-184.7 v -672.5 m -541.3,785.3 h -263.8 c -1.5,22.6 -6.4,45.4 -14.7,67.8 -10.3,27.3 -25.1,51.7 -43.2,72.6 h 379.5 c -34.8,-40.1 -54.4,-89.6 -57.8,-140.4 m -741,0 h -195.7 V 7962 h 253.6 c -33.9,-39.1 -54.3,-88.5 -57.9,-140.4"
         style="fill:#f5dbc3;fill-opacity:1;fill-rule:nonzero;stroke:none"
         id="path26" />
      <path
         d="m 23612.3,7821.6 h -195.2 l 180.5,67.8 c -10.3,27.3 -25.1,51.7 -43.2,72.6 v 0 c 18.1,-20.9 32.9,-45.3 43.2,-72.6 8.3,-22.4 13.2,-45.2 14.7,-67.8"
         style="fill:#f3d5bb;fill-opacity:1;fill-rule:nonzero;stroke:none"
         id="path28" />
      <path
         d="m 23417.1,7821.6 h -282 c 3.6,51.9 24,101.3 57.9,140.4 h 361.4 c 18.1,-20.9 32.9,-45.3 43.2,-72.6 l -180.5,-67.8"
         style="fill:#efcbab;fill-opacity:1;fill-rule:nonzero;stroke:none"
         id="path30" />
      <path
         d="m 24253.4,7610.6 c -3.4,88.4 -59.8,163.8 -138.1,195.3 l 159.7,130.4 h 0.1 c 22.7,-11.2 43.5,-25.7 61.8,-42.8 h 0.1 c 37.4,-94.3 11.6,-205.8 -71.2,-273.4 -4,-3.3 -8.2,-6.5 -12.4,-9.5"
         style="fill:#f3d5bb;fill-opacity:1;fill-rule:nonzero;stroke:none"
         id="path32" />
      <path
         d="m 24115.3,7805.9 c -25.2,10.1 -52.6,15.7 -81.4,15.7 h -157.8 c 3.4,50.8 23,100.3 57.8,140.4 h 230.4 c 39.7,0 77.2,-9.3 110.7,-25.7 l -159.7,-130.4"
         style="fill:#efcbab;fill-opacity:1;fill-rule:nonzero;stroke:none"
         id="path34" />
      <path
         d="m 22863.8,7821.6 h 1170.1 c 120.9,0 219.7,-98.8 219.7,-219.7 V 5633.2 c 0,-120.8 -98.8,-219.7 -219.7,-219.7 h -1170.1 c -120.8,0 -219.7,98.9 -219.7,219.7 v 1968.7 c 0,120.9 98.9,219.7 219.7,219.7"
         style="fill:#fcecdb;fill-opacity:1;fill-rule:nonzero;stroke:none"
         id="path36" />
      <path
         d="m 23162.5,7081.3 c 123.6,46.4 186.2,184.3 139.8,307.9 -46.5,123.6 -184.3,186.2 -308,139.8 -123.6,-46.4 -186.2,-184.3 -139.8,-307.9 46.5,-123.6 184.3,-186.2 308,-139.8"
         style="fill:#f7e0cb;fill-opacity:1;fill-rule:nonzero;stroke:none"
         id="path38" />
      <path
         d="m 22854.5,7221.1 447.8,168.1 c -46.5,123.6 -184.3,186.2 -308,139.8 -123.6,-46.4 -186.2,-184.3 -139.8,-307.9"
         style="fill:#efcbab;fill-opacity:1;fill-rule:nonzero;stroke:none"
         id="path40" />
      <path
         d="m 23970.5,7119.9 c 102.4,83.5 117.6,234.2 34.1,336.4 -83.5,102.3 -234.2,117.6 -336.5,34.1 -102.3,-83.5 -117.5,-234.2 -34,-336.5 83.5,-102.3 234.2,-117.5 336.4,-34"
         style="fill:#f7e0cb;fill-opacity:1;fill-rule:nonzero;stroke:none"
         id="path42" />
      <path
         d="m 23634.1,7153.9 370.5,302.4 c -83.5,102.3 -234.2,117.6 -336.5,34.1 -102.3,-83.5 -117.5,-234.2 -34,-336.5"
         style="fill:#efcbab;fill-opacity:1;fill-rule:nonzero;stroke:none"
         id="path44" />
      <path
         d="m 22825.2,4293.5 h 1837.9 v 2742.8 h -1837.9 z"
         style="fill:#e58435;fill-opacity:1;fill-rule:nonzero;stroke:none"
         id="path46" />
      <path
         d="m 22569.2,4293.5 h 1837.9 v 2742.8 h -1837.9 z"
         style="fill:#f1a34f;fill-opacity:1;fill-rule:nonzero;stroke:none"
         id="path48" />
      <path
         d="m 24407.1,6877.2 88.1,-137 h 167.9 v 296.1 h -256 v -159.1"
         style="fill:#ce732e;fill-opacity:1;fill-rule:nonzero;stroke:none"
         id="path50" />
      <path
         d="m 24663.1,7036.3 157,-216 h -256 l -157,216 h 256"
         style="fill:#f1a34f;fill-opacity:1;fill-rule:nonzero;stroke:none"
         id="path52" />
      <path
         d="m 23459.2,4284.8 h 947.902 v 8.3008 H 23459.2 Z"
         style="fill:#f7e5d5;fill-opacity:1;fill-rule:nonzero;stroke:none"
         id="path54" />
      <path
         d="m 24407.1,5902.6 h -947.9 v 917.7 l 947.9,91 V 5902.6"
         style="fill:#f0b77d;fill-opacity:1;fill-rule:nonzero;stroke:none"
         id="path56" />
      <path
         d="m 22569.2,6820.3 149.1,-80.1 h 1600.2 l 88.6,137 v 159.1 l -1837.9,-216"
         style="fill:#eb9342;fill-opacity:1;fill-rule:nonzero;stroke:none"
         id="path58" />
      <path
         d="m 22569.2,7036.3 h 1837.9 l -129.8,-216 h -1837.9 l 129.8,216"
         style="fill:#f1a34f;fill-opacity:1;fill-rule:nonzero;stroke:none"
         id="path60" />
      <path
         d="M 23269.3,5902.6 H 25238 c 120.8,0 219.7,-98.8 219.7,-219.6 V 4512.8 c 0,-120.8 -98.9,-219.7 -219.7,-219.7 h -1968.7 c -120.9,0 -219.7,98.9 -219.7,219.7 V 5683 c 0,120.8 98.8,219.6 219.7,219.6"
         style="fill:#fcecdb;fill-opacity:1;fill-rule:nonzero;stroke:none"
         id="path62" />
      <path
         d="m 24717.3,5384.3 c 46.5,-123.7 184.3,-186.2 307.9,-139.8 123.6,46.4 186.3,184.2 139.8,307.9 -46.4,123.6 -184.3,186.2 -307.9,139.8 -123.6,-46.4 -186.2,-184.3 -139.8,-307.9"
         style="fill:#f7e0cb;fill-opacity:1;fill-rule:nonzero;stroke:none"
         id="path64" />
      <path
         d="m 24857.1,5692.2 168.1,-447.7 c 123.6,46.4 186.3,184.2 139.8,307.9 -46.4,123.6 -184.3,186.2 -307.9,139.8"
         style="fill:#efcbab;fill-opacity:1;fill-rule:nonzero;stroke:none"
         id="path66" />
      <path
         d="m 24755.9,4576.2 c 83.6,-102.3 234.2,-117.5 336.5,-34 102.3,83.5 117.6,234.1 34,336.4 -83.5,102.3 -234.2,117.6 -336.4,34.1 -102.3,-83.5 -117.6,-234.2 -34.1,-336.5"
         style="fill:#f7e0cb;fill-opacity:1;fill-rule:nonzero;stroke:none"
         id="path68" />
      <path
         d="m 24790,4912.7 302.4,-370.5 c 102.3,83.5 117.6,234.1 34,336.4 -83.5,102.3 -234.2,117.6 -336.4,34.1"
         style="fill:#efcbab;fill-opacity:1;fill-rule:nonzero;stroke:none"
         id="path70" />
      <path
         d="m 23258.6,5384.3 c 46.5,-123.7 184.3,-186.2 307.9,-139.8 123.7,46.4 186.3,184.2 139.8,307.9 -46.4,123.6 -184.2,186.2 -307.9,139.8 -123.6,-46.4 -186.2,-184.3 -139.8,-307.9"
         style="fill:#f7e0cb;fill-opacity:1;fill-rule:nonzero;stroke:none"
         id="path72" />
      <path
         d="m 23398.4,5692.2 168.1,-447.7 c 123.6,46.4 186.2,184.2 139.8,307.9 -46.4,123.6 -184.3,186.2 -307.9,139.8"
         style="fill:#efcbab;fill-opacity:1;fill-rule:nonzero;stroke:none"
         id="path74" />
      <path
         d="m 23297.3,4576.2 c 80.6,-98.8 223.8,-116.4 325.7,-42.2 3.6,2.6 7.2,5.3 10.7,8.2 102.3,83.5 117.5,234.1 34,336.5 -83.5,102.3 -234.1,117.5 -336.4,34 -3.5,-2.9 -6.9,-5.8 -10.2,-8.8 -93.1,-84.9 -104.5,-228.9 -23.8,-327.7"
         style="fill:#f7e0cb;fill-opacity:1;fill-rule:nonzero;stroke:none"
         id="path76" />
      <path
         d="M 23321.1,4903.9 23623,4534 c 3.6,2.6 7.2,5.3 10.7,8.2 102.3,83.5 117.5,234.1 34,336.5 -83.5,102.3 -234.1,117.5 -336.4,34 -3.5,-2.9 -6.9,-5.8 -10.2,-8.8"
         style="fill:#efcbab;fill-opacity:1;fill-rule:nonzero;stroke:none"
         id="path78" />
      <path
         d="m 23968.6,5570.8 c -56.6,-119.4 -5.7,-262 113.7,-318.5 119.3,-56.6 261.9,-5.7 318.5,113.6 56.5,119.4 5.6,262 -113.7,318.5 -119.3,56.6 -262,5.7 -318.5,-113.6"
         style="fill:#f7e0cb;fill-opacity:1;fill-rule:nonzero;stroke:none"
         id="path80" />
      <path
         d="m 24287.1,5684.4 -204.8,-432.1 c 119.3,-56.6 261.9,-5.7 318.5,113.6 56.5,119.4 5.6,262 -113.7,318.5"
         style="fill:#efcbab;fill-opacity:1;fill-rule:nonzero;stroke:none"
         id="path82" />
      <path
         d="m 24273.5,4505.4 c 122.7,49.1 182.2,188.3 133.2,310.9 -49.1,122.6 -188.2,182.2 -310.9,133.1 -122.6,-49 -182.2,-188.2 -133.1,-310.8 49,-122.6 188.2,-182.2 310.8,-133.2"
         style="fill:#f7e0cb;fill-opacity:1;fill-rule:nonzero;stroke:none"
         id="path84" />
      <path
         d="m 23962.7,4638.6 444,177.7 c -49.1,122.6 -188.2,182.2 -310.9,133.1 -122.6,-49 -182.2,-188.2 -133.1,-310.8"
         style="fill:#efcbab;fill-opacity:1;fill-rule:nonzero;stroke:none"
         id="path86" />
      <path
         d="m 25674.7,6882.2 c 0,0 -1,-0.9 -2.7,-2.6 0.9,0.9 1.8,1.8 2.7,2.6 z m 1,45.3 c 67.5,33.9 122.9,158.2 117.1,180.4 -0.7,2.6 -3.9,9.6 -8.9,19.8 l -321.4,136 c 0,0 34.5,200.9 137.2,228.3 3,39.2 23.6,124.1 147,124.1 0,0 -48.6,-13.2 -73.7,-39.6 0,0 102.2,60.1 213.4,-32.2 111.3,-92.2 42.2,-323.5 76,-367.4 33.8,-43.9 165.6,-52.7 149.5,-194.6 -16.1,-142 -418.1,-319.9 -392.3,-437.3 0,0 -147.6,216.9 -55,326.7 -16.1,-18.2 -46.3,-57.8 -50.4,-102.7 0,0 -14.9,120.1 61.5,158.5"
         style="fill:#b5453c;fill-opacity:1;fill-rule:nonzero;stroke:none"
         id="path88" />
      <path
         d="m 26049.7,4370.9 79.7,11.7 c 0,0 267.9,212.9 307.8,610.2 4.1,40.5 5,81.5 2,122.9 -0.4,4.7 0.1,9.5 2.7,13.5 l 0.1,0.1 c 8.6,13.2 29.9,46.1 58.8,93 28.5,46.1 77.3,133.3 130.9,231.2 96.6,176.3 209.1,387.2 247.7,454.3 122.9,214.1 63.6,358 63.6,358 0,0 -342.9,33.9 -436.9,116.1 l -33.8,-52.2 c 0,0 -74.3,-328.9 -70.8,-330.4 -3.7,-11.2 -7.4,-22.6 -11.1,-34.2 -58.7,-181 -126.1,-407.2 -162.9,-591.4 -20.7,-103.7 -31.6,-194 -25.7,-255.5 2,-21.1 -0.5,-53.6 -6.1,-93.6 -33.2,-236.1 -146,-653.7 -146,-653.7"
         style="fill:#2b478b;fill-opacity:1;fill-rule:nonzero;stroke:none"
         id="path90" />
      <path
         d="m 25882.6,4270.1 h 332.4 c 0,0 8,50.7 -9.4,89.1 -16.6,36.9 -40.3,38.1 -3,95.9 -21.1,-21.8 -89,-30.8 -137.1,-24.3 -5.9,-9.6 -38,-73.6 -57.6,-87.7 -21.7,-15.6 -118.6,-10.1 -125.3,-73"
         style="fill:#233862;fill-opacity:1;fill-rule:nonzero;stroke:none"
         id="path92" />
      <path
         d="m 26390.4,5965.1 c 29,-160.2 97.6,-426.7 241.3,-511.6 96.6,176.3 209.1,387.2 247.7,454.3 122.9,214.1 63.6,358 63.6,358 0,0 -342.9,33.9 -436.9,116.1 l -33.8,-52.2 c 0,0 -74.3,-328.9 -70.8,-330.4 -3.7,-11.2 -7.4,-22.6 -11.1,-34.2"
         style="fill:#233862;fill-opacity:1;fill-rule:nonzero;stroke:none"
         id="path94" />
      <path
         d="m 26623.5,6241 -1.1,62.2 c 123.9,-15.6 427.1,148.1 427.1,148.1 0,0 129.6,-86.2 147.4,-332.4 8.6,-120.2 63.4,-628.3 69.5,-780.1 2.2,-55 2.9,-94.2 3.2,-109.9 v -0.1 c 0,-4.8 2.3,-9 5.2,-12.8 25.7,-32.6 47.9,-67.1 67.2,-102.9 189,-351.7 90.1,-829.7 90.1,-829.7 l -43.9,11.2 c 0,0 -159.8,495.4 -264.3,709.7 -17.7,36.4 -33.8,64.6 -47.3,81 -39.3,47.7 -80.7,128.7 -121.5,226.3 -77.2,184.3 -152.1,427.5 -205.5,615.9 -3.8,-0.7 -126.1,313.5 -126.1,313.5"
         style="fill:#2b478b;fill-opacity:1;fill-rule:nonzero;stroke:none"
         id="path96" />
      <path
         d="m 24903.3,5944.5 c 8.8,4 90.1,-15.6 90.1,-15.6 0,0 52.3,18.7 110.4,55.6 119.9,76.3 298.4,204 329.5,220.2 53.4,27.9 216.3,394.5 330.9,594.8 60.4,105.5 218.6,92.8 257.9,-22.3 7,-20.7 9.4,-43.2 4.7,-67.3 -26,-133.6 -402,-589.8 -446.8,-627.5 -81.7,-68.8 -508,-183.3 -508,-183.3 -9.8,-2.9 -13.5,-17.5 -18.7,-22.8 -12,-12.3 -21,-14.4 -21,-14.4 v 0 c 0,0 -52.7,-3.3 -68.2,-9.5 l -16.2,-5.9 c 0,0 -6.2,11 9,18.4 3.6,1.8 10.3,5.1 16.9,10 l -22.2,4.9 c -2,0.4 -3.9,1 -5.7,1.8 -12.2,5.5 -23.8,12.7 -37.5,15.2 -14,2.6 -28.7,1.2 -39.4,2 -10.8,0.8 -59.3,12.4 -59.3,12.4 -2.2,4.6 78,26.2 93.6,33.3"
         style="fill:#ed985f;fill-opacity:1;fill-rule:nonzero;stroke:none"
         id="path98" />
      <path
         d="m 25898.6,6656 c 202.5,46.5 73.1,331.1 61.4,326.1 -28.1,5.7 -89.7,55 -144.9,151.2 l -7.4,-6.5 -124.4,-109 c 0,0 28.8,-42.4 52.9,-84 18.9,-32.5 35,-64.6 32.5,-75.5 -10.1,-7.9 75.8,-214.7 129.9,-202.3"
         style="fill:#ffb27d;fill-opacity:1;fill-rule:nonzero;stroke:none"
         id="path100" />
      <path
         d="m 25777.2,6888.3 c 0,0 -42.3,-112.9 -74,-168.2 -31.7,-55.3 -120,-234.1 -120,-234.1 0,0 71.5,-130.4 206,-153.5 0,0 96.5,96.2 93.7,203 -2.9,106.8 -105.7,352.8 -105.7,352.8"
         style="fill:#91cecf;fill-opacity:1;fill-rule:nonzero;stroke:none"
         id="path102" />
      <path
         d="m 25683.3,7017.8 c 0,0 28.8,-42.4 52.9,-84 77.4,47.7 77.5,143.4 71.5,193 l -124.4,-109"
         style="fill:#ed985f;fill-opacity:1;fill-rule:nonzero;stroke:none"
         id="path104" />
      <path
         d="m 25679.9,6963.1 c 0,0 187.7,104.5 120.9,220.5 -66.9,115.9 -87.7,207.5 -210.4,145.6 -122.7,-61.8 -120.3,-119.3 -107.4,-163.4 12.9,-44.2 146.3,-226.9 196.9,-202.7"
         style="fill:#ffb27d;fill-opacity:1;fill-rule:nonzero;stroke:none"
         id="path106" />
      <path
         d="m 25451.3,7233.4 c 8.6,51.4 34.7,56.4 53,52.9 69.3,114.7 228.7,96.4 228.7,96.4 60.6,-75.9 101.9,-115.3 101.9,-115.3 0,0 -21.8,-40.6 -111.6,-65.7 -27.4,-7.7 -58.5,-3 -88.5,7.1 62.2,-34.7 127.4,-48 127.4,-48 -118.3,-10.9 -230.9,97.3 -242.6,108.9 -5.4,-16.8 -15,-51.9 -9.3,-77.5 7.8,-34.9 38.8,-98.1 19.9,-106.2 0,0 -91.8,70.2 -78.9,147.4"
         style="fill:#b5453c;fill-opacity:1;fill-rule:nonzero;stroke:none"
         id="path108" />
      <path
         d="m 27167.8,4270.1 h 332.4 c 0,0 8,50.7 -9.4,89.1 -16.6,36.9 -42.7,53.7 -36.4,98.3 -21.2,-21.8 -55.6,-46.1 -103.7,-39.7 -5.8,-9.5 -38,-60.6 -57.6,-74.7 -21.8,-15.6 -118.6,-10.1 -125.3,-73"
         style="fill:#233862;fill-opacity:1;fill-rule:nonzero;stroke:none"
         id="path110" />
      <path
         d="m 25874.7,6430.4 c 42.8,-14.9 102.8,-23.1 164.2,-29.8 87.4,-9.5 177.7,-16 225,-34.9 9.2,-3.7 36.1,-14.9 63.1,-34.4 v -0.1 c 0,0 0.6,-0.4 1.8,-1.4 8.9,-6.5 17.9,-14 26.1,-22.5 12.5,-12.9 23.4,-27.9 30.5,-45.2 17.3,-42.9 -5.7,-161.6 -20.4,-226.5 -5.9,-26.1 6.4,-53.1 30.2,-65.5 33.3,-17.2 65.9,-33 98,-47.6 1.7,-0.7 3.4,-1.4 5.1,-2.2 -0.3,6.6 -0.4,13.1 -0.4,19.5 -0.1,44.8 5.6,82.1 5.6,82.1 7.9,-45.2 37.7,-94 65.4,-131.6 446.2,-179 757.9,-101.2 752.8,-12 -17.6,309.6 -226.4,573 -226.4,573 -389.5,452.8 -1177.2,572 -1177.2,572 0,0 -37.7,4.6 -83.2,-50.1 -65.5,-78.8 -68.8,-99.4 -68.8,-99.4 0,0 -17.3,-399.5 108.6,-443.4"
         style="fill:#abddda;fill-opacity:1;fill-rule:nonzero;stroke:none"
         id="path112" />
      <path
         d="m 26039,6400.6 c 87.4,-9.5 177.6,-16 224.9,-34.9 19.3,288.7 -116.9,505.9 -116.9,505.9 0,0 -88.9,-361.7 -108,-471"
         style="fill:#91cecf;fill-opacity:1;fill-rule:nonzero;stroke:none"
         id="path114" />
      <path
         d="m 26365,6035.6 c -5.9,-26.1 6.4,-53.1 30.2,-65.5 33.3,-17.2 65.9,-33 98,-47.6 1.7,5.5 3.3,11.2 4.7,17.3 5,22.6 7.4,49.7 5.6,82.1 -7.4,137.1 -100.8,240.8 -148.6,285.4 12.5,-12.9 23.4,-27.9 30.5,-45.2 17.3,-42.9 -5.7,-161.6 -20.4,-226.5"
         style="fill:#91cecf;fill-opacity:1;fill-rule:nonzero;stroke:none"
         id="path116" />
      <path
         d="m 25918.1,7023.3 c 0,0 -34.3,43.4 -57.5,42 0,0 -93.7,-131.2 -94.5,-191.5 0,0 117,155.6 152,149.5"
         style="fill:#91cecf;fill-opacity:1;fill-rule:nonzero;stroke:none"
         id="path118" />
      <path
         d="m 25409.1,5432.9 c 4.2,11.6 29.2,92.8 56.2,101.8 26.9,8.9 60.6,43.9 60.6,43.9 0,0 214.1,437.8 249.3,479.9 55.2,66.2 54.4,821.6 124.5,876.5 0,0 220.1,-4.3 248.8,-144.9 28.7,-140.5 -152.7,-736.4 -181.1,-791.3 -51.6,-100 -374.3,-454.1 -374.3,-454.1 -37.7,-59 -24.1,-59.8 -38.2,-115.4 -14.1,-55.7 -101.5,-84.3 -116.4,-87.2 -14.9,-2.8 -4.4,24 14.1,54.8 18.6,30.8 20.3,83.8 16.3,87.6 -4,3.9 -11.9,-4.3 -22.9,-24.4 -11,-20.2 -41,-38.9 -36.9,-27.2"
         style="fill:#ffb27d;fill-opacity:1;fill-rule:nonzero;stroke:none"
         id="path120" />
      <path
         d="m 25809.2,6655.1 c 0,0 -51.3,364.2 235.8,297.7 287,-66.4 13,-721.2 13,-721.2 0,0 -165,-4.9 -234.6,134 l -14.2,289.5"
         style="fill:#abddda;fill-opacity:1;fill-rule:nonzero;stroke:none"
         id="path122" />
      <path
         d="m 22690.9,4417.9 c 0,-34.2 14,-65.3 36.6,-87.8 22.5,-22.6 53.6,-36.6 87.8,-36.6 h 587.1 c 68.4,0 124.3,56 124.3,124.4 0,34.2 -14,65.2 -36.5,87.8 -22.5,22.5 -53.6,36.5 -87.8,36.5 h -587.1 c -68.4,0 -124.4,-55.9 -124.4,-124.3"
         style="fill:#2b478b;fill-opacity:1;fill-rule:nonzero;stroke:none"
         id="path124" />
      <path
         d="m 22993.8,4417.9 c 0,-34.2 14,-65.3 36.5,-87.8 22.6,-22.6 53.6,-36.6 87.8,-36.6 h 284.3 c 68.4,0 124.3,56 124.3,124.4 0,34.2 -14,65.2 -36.5,87.8 -22.5,22.5 -53.6,36.5 -87.8,36.5 h -284.3 c -68.3,0 -124.3,-55.9 -124.3,-124.3"
         style="fill:#699ff0;fill-opacity:1;fill-rule:nonzero;stroke:none"
         id="path126" />
      <path
         d="m 23008,4475.4 h -202.7 c -9.7,0 -17.6,7.9 -17.6,17.6 v 4 c 0,9.7 7.9,17.6 17.6,17.6 h 235 c -13.3,-10.7 -24.3,-24 -32.3,-39.2"
         style="fill:#778cb9;fill-opacity:1;fill-rule:nonzero;stroke:none"
         id="path128" />
      <path
         d="M 23365.4,4475.4 H 23008 c 8,15.2 19,28.5 32.3,39.2 h 325.1 c 9.7,0 17.6,-7.9 17.6,-17.6 v -4 c 0,-9.7 -7.9,-17.6 -17.6,-17.6"
         style="fill:#9cc1f6;fill-opacity:1;fill-rule:nonzero;stroke:none"
         id="path130" />
      <path
         d="m 23192,4770.1 c -16.3,-32.4 -17.8,-68.5 -7.1,-100.6 10.7,-32.1 33.5,-60.1 65.9,-76.4 l 556.5,-278.9 c 64.8,-32.4 144.4,-5.9 176.9,58.9 16.2,32.4 17.7,68.5 7.1,100.5 -10.7,32.1 -33.5,60.1 -65.9,76.3 l -556.5,278.9 c -64.8,32.5 -144.4,6.1 -176.9,-58.7"
         style="fill:#e58435;fill-opacity:1;fill-rule:nonzero;stroke:none"
         id="path132" />
      <path
         d="m 23479.1,4626.2 c -16.3,-32.4 -17.8,-68.5 -7.1,-100.6 10.6,-32.1 33.4,-60.1 65.8,-76.3 l 269.5,-135.1 c 64.8,-32.4 144.4,-5.9 176.9,58.9 16.2,32.4 17.7,68.5 7.1,100.5 -10.7,32.1 -33.5,60.1 -65.9,76.3 l -269.5,135.1 c -64.8,32.4 -144.4,6 -176.8,-58.8"
         style="fill:#f1a34f;fill-opacity:1;fill-rule:nonzero;stroke:none"
         id="path134" />
      <path
         d="m 23519.8,4674 -192.1,96.2 c -9.2,4.6 -12.9,15.9 -8.3,25.1 l 1.9,3.8 c 3.3,6.5 9.9,10.3 16.7,10.3 2.8,0 5.7,-0.7 8.3,-2 l 222.7,-111.6 c -17.6,-3.8 -34.4,-11.2 -49.2,-21.8"
         style="fill:#f2b381;fill-opacity:1;fill-rule:nonzero;stroke:none"
         id="path136" />
      <path
         d="m 23866.9,4502.3 c -2.8,0 -5.7,0.6 -8.3,1.9 l -338.8,169.8 c 14.8,10.6 31.6,18 49.2,21.8 l 308.2,-154.4 c 9.2,-4.6 12.9,-15.9 8.3,-25.1 l -1.9,-3.8 c -3.2,-6.5 -9.9,-10.2 -16.7,-10.2"
         style="fill:#f8c38e;fill-opacity:1;fill-rule:nonzero;stroke:none"
         id="path138" />
      <path
         d="M 17046.5,11616.6 H 9652.43 v -5617 h 7398.97 l -4.9,5617"
         style="fill:#db6161;fill-opacity:1;fill-rule:nonzero;stroke:none"
         id="path140" />
      <path
         d="M 16774.1,11424.3 H 8477.45 V 5999.6 h 8297.85 l -1.2,5424.7"
         style="fill:#233862;fill-opacity:1;fill-rule:nonzero;stroke:none"
         id="path142" />
      <path
         d="m 12753,5999.6 h 1022.4 V 7036.1 H 12753 V 5999.6"
         style="fill:#e69d43;fill-opacity:1;fill-rule:nonzero;stroke:none"
         id="path144" />
      <path
         d="m 12753,5999.6 h 1022.4 v 1036.5 h -229 L 12753,5999.6"
         style="fill:#e78b37;fill-opacity:1;fill-rule:nonzero;stroke:none"
         id="path146" />
      <path
         d="m 13732.8,5999.6 h 618.8 v 1036.5 h -618.8 V 5999.6"
         style="fill:#d57912;fill-opacity:1;fill-rule:nonzero;stroke:none"
         id="path148" />
      <path
         d="m 12698.7,7022 h 1695.5 V 8338.5 H 12698.7 V 7022"
         style="fill:#e69d43;fill-opacity:1;fill-rule:nonzero;stroke:none"
         id="path150" />
      <path
         d="m 12698.7,7022 h 1695.5 v 1316.5 h -318.1 L 12698.7,7022"
         style="fill:#e78b37;fill-opacity:1;fill-rule:nonzero;stroke:none"
         id="path152" />
      <path
         d="m 14351.6,7022 h 468.1 v 1316.5 h -468.1 V 7022"
         style="fill:#d57912;fill-opacity:1;fill-rule:nonzero;stroke:none"
         id="path154" />
      <path
         d="M 5563.76,5607.5 H 3380.59 c -53.06,0 -96.47,43.4 -96.47,96.4 v 861 c 0,53.1 43.41,96.5 96.47,96.5 h 2183.17 c 53.06,0 96.47,-43.4 96.47,-96.5 v -861 c 0,-53 -43.41,-96.4 -96.47,-96.4"
         style="fill:#b65615;fill-opacity:1;fill-rule:nonzero;stroke:none"
         id="path156" />
      <path
         d="m 11536.8,5259.4 c 0,526 426.4,952.5 952.5,952.5 526,0 952.5,-426.5 952.5,-952.5 0,-526.1 -426.5,-952.5 -952.5,-952.5 -526.1,0 -952.5,426.4 -952.5,952.5"
         style="fill:#233862;fill-opacity:1;fill-rule:nonzero;stroke:none"
         id="path158" />
      <path
         d="m 14715.8,5259.4 c 0,526 426.5,952.5 952.5,952.5 526.1,0 952.5,-426.5 952.5,-952.5 0,-526.1 -426.4,-952.5 -952.5,-952.5 -526,0 -952.5,426.4 -952.5,952.5"
         style="fill:#233862;fill-opacity:1;fill-rule:nonzero;stroke:none"
         id="path160" />
      <path
         d="m 3124.99,5259.4 c 0,526 426.44,952.5 952.49,952.5 526.05,0 952.49,-426.5 952.49,-952.5 0,-526.1 -426.44,-952.5 -952.49,-952.5 -526.05,0 -952.49,426.4 -952.49,952.5"
         style="fill:#233862;fill-opacity:1;fill-rule:nonzero;stroke:none"
         id="path162" />
      <path
         d="m 3596.74,5259.4 c 0,265.5 215.23,480.7 480.74,480.7 265.5,0 480.73,-215.2 480.73,-480.7 0,-265.5 -215.23,-480.7 -480.73,-480.7 -265.51,0 -480.74,215.2 -480.74,480.7"
         style="fill:#f59040;fill-opacity:1;fill-rule:nonzero;stroke:none"
         id="path164" />
      <path
         d="m 4397.48,5618 c 27,-60 42.15,-126.6 42.15,-196.8 0,-265.5 -215.23,-480.7 -480.73,-480.7 -122.92,0 -235.01,46.2 -320.01,122.1 75.22,-167.3 243.23,-283.9 438.59,-283.9 265.5,0 480.73,215.2 480.73,480.7 0,142.6 -62.13,270.6 -160.73,358.6"
         style="fill:#d36e2a;fill-opacity:1;fill-rule:nonzero;stroke:none"
         id="path166" />
      <path
         d="m 3928.45,5259.4 c 0,82.3 66.72,149 149.03,149 82.3,0 149.02,-66.7 149.02,-149 0,-82.3 -66.72,-149 -149.02,-149 -82.31,0 -149.03,66.7 -149.03,149"
         style="fill:#b65615;fill-opacity:1;fill-rule:nonzero;stroke:none"
         id="path168" />
      <path
         d="m 3766.2,5004 c 0,31.9 25.83,57.7 57.69,57.7 31.86,0 57.69,-25.8 57.69,-57.7 0,-31.9 -25.83,-57.7 -57.69,-57.7 -31.86,0 -57.69,25.8 -57.69,57.7"
         style="fill:#b65615;fill-opacity:1;fill-rule:nonzero;stroke:none"
         id="path170" />
      <path
         d="m 3698.9,5432.5 c 0,31.8 25.82,57.6 57.68,57.6 31.87,0 57.69,-25.8 57.69,-57.6 0,-31.9 -25.82,-57.7 -57.69,-57.7 -31.86,0 -57.68,25.8 -57.68,57.7"
         style="fill:#b65615;fill-opacity:1;fill-rule:nonzero;stroke:none"
         id="path172" />
      <path
         d="m 4333.47,5432.5 c 0,31.8 25.83,57.6 57.69,57.6 31.86,0 57.69,-25.8 57.69,-57.6 0,-31.9 -25.83,-57.7 -57.69,-57.7 -31.86,0 -57.69,25.8 -57.69,57.7"
         style="fill:#b65615;fill-opacity:1;fill-rule:nonzero;stroke:none"
         id="path174" />
      <path
         d="m 4285.4,5004 c 0,31.9 25.83,57.7 57.69,57.7 31.86,0 57.68,-25.8 57.68,-57.7 0,-31.9 -25.82,-57.7 -57.68,-57.7 -31.86,0 -57.69,25.8 -57.69,57.7"
         style="fill:#b65615;fill-opacity:1;fill-rule:nonzero;stroke:none"
         id="path176" />
      <path
         d="m 4019.79,5626.7 c 0,31.9 25.83,57.7 57.69,57.7 31.86,0 57.69,-25.8 57.69,-57.7 0,-31.9 -25.83,-57.7 -57.69,-57.7 -31.86,0 -57.69,25.8 -57.69,57.7"
         style="fill:#b65615;fill-opacity:1;fill-rule:nonzero;stroke:none"
         id="path178" />
      <path
         d="m 11990.8,5259.4 c 0,265.5 215.2,480.7 480.7,480.7 265.5,0 480.8,-215.2 480.8,-480.7 0,-265.5 -215.3,-480.7 -480.8,-480.7 -265.5,0 -480.7,215.2 -480.7,480.7"
         style="fill:#d36e2a;fill-opacity:1;fill-rule:nonzero;stroke:none"
         id="path180" />
      <path
         d="m 12322.5,5259.4 c 0,82.3 66.7,149 149,149 82.3,0 149.1,-66.7 149.1,-149 0,-82.3 -66.8,-149 -149.1,-149 -82.3,0 -149,66.7 -149,149"
         style="fill:#b65615;fill-opacity:1;fill-rule:nonzero;stroke:none"
         id="path182" />
      <path
         d="m 12160.2,5004 c 0,31.9 25.9,57.7 57.7,57.7 31.9,0 57.7,-25.8 57.7,-57.7 0,-31.9 -25.8,-57.7 -57.7,-57.7 -31.8,0 -57.7,25.8 -57.7,57.7"
         style="fill:#b65615;fill-opacity:1;fill-rule:nonzero;stroke:none"
         id="path184" />
      <path
         d="m 12138.6,5432.5 c 0,31.8 25.9,57.6 57.7,57.6 31.9,0 57.7,-25.8 57.7,-57.6 0,-31.9 -25.8,-57.7 -57.7,-57.7 -31.8,0 -57.7,25.8 -57.7,57.7"
         style="fill:#b65615;fill-opacity:1;fill-rule:nonzero;stroke:none"
         id="path186" />
      <path
         d="m 12679.4,5004 c 0,31.9 25.9,57.7 57.7,57.7 31.9,0 57.7,-25.8 57.7,-57.7 0,-31.9 -25.8,-57.7 -57.7,-57.7 -31.8,0 -57.7,25.8 -57.7,57.7"
         style="fill:#b65615;fill-opacity:1;fill-rule:nonzero;stroke:none"
         id="path188" />
      <path
         d="m 12118.3,5626.7 c 0,31.9 25.8,57.7 57.7,57.7 31.8,0 57.7,-25.8 57.7,-57.7 0,-31.9 -25.9,-57.7 -57.7,-57.7 -31.9,0 -57.7,25.8 -57.7,57.7"
         style="fill:#b65615;fill-opacity:1;fill-rule:nonzero;stroke:none"
         id="path190" />
      <path
         d="m 6314.88,5259.4 c 0,526 426.45,952.5 952.49,952.5 526.05,0 952.5,-426.5 952.5,-952.5 0,-526.1 -426.45,-952.5 -952.5,-952.5 -526.04,0 -952.49,426.4 -952.49,952.5"
         style="fill:#233862;fill-opacity:1;fill-rule:nonzero;stroke:none"
         id="path192" />
      <path
         d="m 4066.92,10402.4 c 0,0 144.27,786 1234.93,786 l 15.95,-843.4 -1250.88,57.4"
         style="fill:#d57912;fill-opacity:1;fill-rule:nonzero;stroke:none"
         id="path194" />
      <path
         d="M 7111.56,6840.9 H 2975.01 l 344.3,2794.1 c 55.96,454.2 441.75,795.4 899.35,795.4 h 2892.9 V 6840.9"
         style="fill:#e69d43;fill-opacity:1;fill-rule:nonzero;stroke:none"
         id="path196" />
      <path
         d="M 4707.01,8548.9 H 3547.04 l 153.65,1103.3 c 31.64,227.2 225.94,396.3 455.33,396.3 h 586.92 l -35.93,-1499.6"
         style="fill:#d57912;fill-opacity:1;fill-rule:nonzero;stroke:none"
         id="path198" />
      <path
         d="m 4621.24,8631.9 h -763.72 c -115.25,0 -204.14,101.5 -188.98,215.7 l 101.35,763.4 c 26.77,201.6 191.14,351.7 385.21,351.7 h 496.54 l -30.4,-1330.8"
         style="fill:#dce7f9;fill-opacity:1;fill-rule:nonzero;stroke:none"
         id="path200" />
      <path
         d="M 13221.5,5999.6 H 5265.16 v 5617 h 7956.34 v -5617"
         style="fill:#d15050;fill-opacity:1;fill-rule:nonzero;stroke:none"
         id="path202" />
      <path
         d="M 12910.1,6212.6 H 5557.34 v 5190.9 H 12919.7 V 7206.9 l -9.6,-994.3"
         style="fill:#b64c41;fill-opacity:1;fill-rule:nonzero;stroke:none"
         id="path204" />
      <path
         d="M 5499.04,6840.9 H 2975.01 c -222.26,-14.8 -243.75,-124.7 -243.75,-124.7 L 2515.44,5672.3 c 0,-35.6 32.79,-64.8 72.88,-64.8 h 634.6 c 40.08,0 69,29.3 86.09,66.5 0,0 97.65,120.6 163.16,163.8 164.07,108.2 342.19,179.1 605.31,179.1 323.53,0 609.33,-102.9 781.48,-260.2 h 640.08 c 77.26,0 140.47,40.4 140.47,89.6 v 905 c 0,49.3 -63.21,89.6 -140.47,89.6"
         style="fill:#d57912;fill-opacity:1;fill-rule:nonzero;stroke:none"
         id="path206" />
      <path
         d="m 13918.6,4791.7 h -799.9 c -18.4,96.9 -53.2,182.3 -100.2,257.5 -241.9,387.6 -807.4,506.1 -1129.5,542.3 -141.2,15.9 -235.7,16 -235.7,16 h 1375.1 c 359.6,-48.8 580.5,-244.9 712.1,-432.7 137.7,-196.1 178.1,-383.1 178.1,-383.1"
         style="fill:#d15050;fill-opacity:1;fill-rule:nonzero;stroke:none"
         id="path208" />
      <path
         d="m 17085,4791.7 h -799.9 c -21,110.3 -63.2,205.7 -120.4,288.2 -365.3,526.9 -1345,527.6 -1345,527.6 h 1375.1 c 300.8,-40.8 504.4,-184.7 640.1,-340.5 196,-225.2 250.1,-475.3 250.1,-475.3"
         style="fill:#d15050;fill-opacity:1;fill-rule:nonzero;stroke:none"
         id="path210" />
      <path
         d="m 13740.5,5174.8 c 0,0 -526.4,111.1 -722,-125.6 -241.9,387.6 -807.4,506.1 -1129.5,542.3 -6.6,5.4 -13,10.7 -19.4,16 h 1158.8 c 359.6,-48.8 580.5,-244.9 712.1,-432.7"
         style="fill:#a03c37;fill-opacity:1;fill-rule:nonzero;stroke:none"
         id="path212" />
      <path
         d="m 16834.9,5267 v -0.1 c 0,0 -440.4,9.9 -670.2,-187 -365.3,526.9 -1345,527.6 -1345,527.6 h 1375.1 c 300.8,-40.8 504.4,-184.7 640.1,-340.5"
         style="fill:#a03c37;fill-opacity:1;fill-rule:nonzero;stroke:none"
         id="path214" />
      <path
         d="M 5445.46,5454.8 H 17175.5 c 58.9,0 107.1,48.2 107.1,107.1 v 330.6 c 0,58.9 -48.2,107.1 -107.1,107.1 H 5445.46 c -58.9,0 -107.09,-48.2 -107.09,-107.1 v -330.6 c 0,-58.9 48.19,-107.1 107.09,-107.1"
         style="fill:#a03c37;fill-opacity:1;fill-rule:nonzero;stroke:none"
         id="path216" />
      <path
         d="M 8116.65,4656.1 H 5946.97 c -56.77,0 -103.22,46.4 -103.22,103.2 v 1000.2 c 0,56.7 46.45,103.2 103.22,103.2 h 2169.68 c 56.77,0 103.22,-46.5 103.22,-103.2 V 4759.3 c 0,-56.8 -46.45,-103.2 -103.22,-103.2"
         style="fill:#a03c37;fill-opacity:1;fill-rule:nonzero;stroke:none"
         id="path218" />
      <path
         d="M 12919.7,6212.6 H 5566.93 l -9.59,5190.9 H 7179.15 C 7581.22,10217.7 9023.52,7404.9 12919.7,7194.3 v -981.7"
         style="fill:#c44943;fill-opacity:1;fill-rule:nonzero;stroke:none"
         id="path220" />
      <path
         d="m 3050.27,9089.7 c 0,0 -103.41,-555.7 -98.28,-646.4 5.14,-90.6 90.68,-134.8 155.7,-134.8 l -57.42,781.2"
         style="fill:#b64c41;fill-opacity:1;fill-rule:nonzero;stroke:none"
         id="path222" />
      <path
         d="m 3364.23,8308.5 h -251.31 c -36.76,0 -66.83,30.1 -66.83,66.9 v 693.8 c 0,36.8 30.07,66.8 66.83,66.8 h 251.31 c 36.75,0 66.82,-30 66.82,-66.8 v -693.8 c 0,-36.8 -30.07,-66.9 -66.82,-66.9"
         style="fill:#d57912;fill-opacity:1;fill-rule:nonzero;stroke:none"
         id="path224" />
      <path
         d="m 3344.95,8348.8 h -199.06 c -31.36,0 -57.02,25.6 -57.02,57 v 626.8 c 0,31.4 25.66,57.1 57.02,57.1 h 199.06 c 31.35,0 57.01,-25.7 57.01,-57.1 v -626.8 c 0,-31.4 -25.66,-57 -57.01,-57"
         style="fill:#dce7f9;fill-opacity:1;fill-rule:nonzero;stroke:none"
         id="path226" />
      <path
         d="m 3238.57,9120.9 c -7.09,0 -12.83,6.8 -12.83,15.1 v 233.6 l 0.1,1.9 c 0.15,1.3 16.01,134.3 155.93,130 127.97,-4 183.1,-0.1 183.65,0 7.08,0.5 13.16,-5.8 13.6,-14.2 0.44,-8.3 -4.93,-15.5 -12.01,-16 -2.25,-0.1 -56.8,-4 -185.92,0 -112.69,3.4 -128.31,-92 -129.69,-102.7 V 9136 c 0,-8.3 -5.74,-15.1 -12.83,-15.1"
         style="fill:#b64c41;fill-opacity:1;fill-rule:nonzero;stroke:none"
         id="path228" />
      <path
         d="m 4599.52,8189.3 h -234.05 c -32.77,0 -59.6,26.9 -59.6,59.6 0,32.8 26.83,59.6 59.6,59.6 h 234.05 c 32.78,0 59.6,-26.8 59.6,-59.6 0,-32.7 -26.82,-59.6 -59.6,-59.6"
         style="fill:#d57912;fill-opacity:1;fill-rule:nonzero;stroke:none"
         id="path230" />
      <path
         d="m 14076.1,6006.7 h 1022.3 V 7029 H 14076.1 V 6006.7"
         style="fill:#e69d43;fill-opacity:1;fill-rule:nonzero;stroke:none"
         id="path232" />
      <path
         d="m 14076.1,5999.6 h 1022.3 V 7029 h -217.3 l -805,-796.9 v -232.5"
         style="fill:#e78b37;fill-opacity:1;fill-rule:nonzero;stroke:none"
         id="path234" />
      <path
         d="M 15055.9,5999.6 H 15524 V 7029 h -468.1 V 5999.6"
         style="fill:#d57912;fill-opacity:1;fill-rule:nonzero;stroke:none"
         id="path236" />
      <path
         d="m 7494.63,8875.7 c -1.22,19.4 -5.02,37.6 -11.41,54.3 -6.39,16.7 -15.84,31.4 -28.32,43.8 -12.49,12.5 -28.17,22.3 -47.04,29.3 -18.88,7 -41.41,10.5 -67.59,10.5 h -122.39 v -411 h 126.96 c 24.96,0 46.58,3.5 64.85,10.5 18.27,6.9 33.48,16.5 45.67,28.7 12.17,12.2 21.47,26.8 27.86,43.9 6.39,17 10.19,35.3 11.41,54.8 2.43,45 2.43,90.1 0,135.2 z m -149.79,252.1 c 45.05,0 84.17,-6 117.37,-17.8 33.18,-11.9 60.89,-28.8 83.12,-50.7 22.22,-22 39.27,-48.5 51.15,-79.5 11.87,-31.1 19.02,-65.8 21.46,-104.1 2.43,-45.1 2.43,-90.2 0,-135.2 -2.44,-38.4 -9.59,-73.1 -21.46,-104.2 -11.88,-31 -28.77,-57.5 -50.69,-79.4 -21.92,-21.9 -49.18,-38.8 -81.75,-50.7 -32.58,-11.9 -70.79,-17.8 -114.64,-17.8 h -230.17 c -6.71,0 -12.49,2.4 -17.35,7.3 -4.89,4.8 -7.31,10.6 -7.31,17.3 v 590.1 c 0,6.7 2.42,12.5 7.31,17.3 4.86,4.9 10.64,7.4 17.35,7.4 h 225.61"
         style="fill:#ffffff;fill-opacity:1;fill-rule:nonzero;stroke:none"
         id="path238" />
      <path
         d="m 8163.24,8602.6 c 6.7,0 12.47,-2.5 17.36,-7.4 4.86,-4.8 7.31,-10.6 7.31,-17.3 V 8513 c 0,-6.7 -2.45,-12.5 -7.31,-17.3 -4.89,-4.9 -10.66,-7.3 -17.36,-7.3 h -400.98 c -6.71,0 -12.49,2.4 -17.36,7.3 -4.88,4.8 -7.3,10.6 -7.3,17.3 v 590.1 c 0,6.7 2.42,12.5 7.3,17.3 4.87,4.9 10.65,7.4 17.36,7.4 h 393.67 c 6.7,0 12.48,-2.5 17.36,-7.4 4.86,-4.8 7.31,-10.6 7.31,-17.3 v -64.9 c 0,-6.7 -2.45,-12.4 -7.31,-17.3 -4.88,-4.9 -10.66,-7.3 -17.36,-7.3 h -295.02 v -145.3 h 274.93 c 6.69,0 12.47,-2.4 17.35,-7.3 4.87,-4.8 7.31,-10.6 7.31,-17.3 v -64.9 c 0,-6.7 -2.44,-12.5 -7.31,-17.3 -4.88,-4.9 -10.66,-7.3 -17.35,-7.3 h -274.93 v -151.6 h 302.33"
         style="fill:#ffffff;fill-opacity:1;fill-rule:nonzero;stroke:none"
         id="path240" />
      <path
         d="m 8725.89,8602.6 c 6.69,0 12.47,-2.5 17.35,-7.4 4.87,-4.8 7.31,-10.6 7.31,-17.3 V 8513 c 0,-6.7 -2.44,-12.5 -7.31,-17.3 -4.88,-4.9 -10.66,-7.3 -17.35,-7.3 h -400.07 c -6.71,0 -12.49,2.4 -17.36,7.3 -4.88,4.8 -7.3,10.6 -7.3,17.3 v 590.1 c 0,6.7 2.42,12.5 7.3,17.3 4.87,4.9 10.65,7.4 17.36,7.4 h 73.98 c 6.69,0 12.48,-2.5 17.36,-7.4 4.86,-4.8 7.3,-10.6 7.3,-17.3 v -500.5 h 301.43"
         style="fill:#ffffff;fill-opacity:1;fill-rule:nonzero;stroke:none"
         id="path242" />
      <path
         d="m 8862.89,8488.4 c -6.71,0 -12.48,2.4 -17.35,7.3 -4.89,4.8 -7.31,10.6 -7.31,17.3 v 590.1 c 0,6.7 2.42,12.5 7.31,17.3 4.87,4.9 10.64,7.4 17.35,7.4 h 73.99 c 6.69,0 12.48,-2.5 17.35,-7.4 4.87,-4.8 7.31,-10.6 7.31,-17.3 V 8513 c 0,-6.7 -2.44,-12.5 -7.31,-17.3 -4.87,-4.9 -10.66,-7.3 -17.35,-7.3 h -73.99"
         style="fill:#ffffff;fill-opacity:1;fill-rule:nonzero;stroke:none"
         id="path244" />
      <path
         d="m 9336.02,8669.2 153.45,435.7 c 1.83,4.9 5.02,9.9 9.59,15.1 4.57,5.2 11.42,7.8 20.55,7.8 h 69.42 c 6.7,0 12.48,-2.5 17.36,-7.4 4.86,-4.8 7.31,-10.6 7.31,-17.3 0,-1.2 0,-2.3 0,-3.2 0,-0.9 -0.62,-2.9 -1.83,-5.9 l -204.6,-574.6 c -3.66,-10.3 -7.92,-18.1 -12.79,-23.3 -4.89,-5.1 -12.19,-7.7 -21.92,-7.7 h -73.07 c -9.75,0 -17.06,2.6 -21.93,7.7 -4.88,5.2 -9.13,13 -12.78,23.3 l -204.6,574.6 c -1.23,3 -1.83,5 -1.83,5.9 0,0.9 0,2 0,3.2 0,6.7 2.42,12.5 7.3,17.3 4.87,4.9 10.65,7.4 17.36,7.4 h 69.42 c 9.13,0 15.98,-2.6 20.55,-7.8 4.56,-5.2 7.76,-10.2 9.59,-15.1 l 153.45,-435.7"
         style="fill:#ffffff;fill-opacity:1;fill-rule:nonzero;stroke:none"
         id="path246" />
      <path
         d="m 10136.1,8602.6 c 6.7,0 12.5,-2.5 17.4,-7.4 4.9,-4.8 7.3,-10.6 7.3,-17.3 V 8513 c 0,-6.7 -2.4,-12.5 -7.3,-17.3 -4.9,-4.9 -10.7,-7.3 -17.4,-7.3 h -400.93 c -6.71,0 -12.49,2.4 -17.36,7.3 -4.88,4.8 -7.31,10.6 -7.31,17.3 v 590.1 c 0,6.7 2.43,12.5 7.31,17.3 4.87,4.9 10.65,7.4 17.36,7.4 h 393.63 c 6.7,0 12.5,-2.5 17.4,-7.4 4.9,-4.8 7.3,-10.6 7.3,-17.3 v -64.9 c 0,-6.7 -2.4,-12.4 -7.3,-17.3 -4.9,-4.9 -10.7,-7.3 -17.4,-7.3 h -294.99 v -145.3 h 274.89 c 6.7,0 12.5,-2.4 17.4,-7.3 4.9,-4.8 7.3,-10.6 7.3,-17.3 v -64.9 c 0,-6.7 -2.4,-12.5 -7.3,-17.3 -4.9,-4.9 -10.7,-7.3 -17.4,-7.3 h -274.89 v -151.6 h 302.29"
         style="fill:#ffffff;fill-opacity:1;fill-rule:nonzero;stroke:none"
         id="path248" />
      <path
         d="m 10397.4,8840 h 132.4 c 34.7,0 62.4,6.1 83.1,18.3 20.7,12.2 31.1,35.3 31.1,69.4 0,34.1 -10.4,57 -31.1,68.5 -20.7,11.6 -48.4,17.4 -83.1,17.4 h -132.4 z m 137,287.8 c 76.1,0 133.9,-17.7 173.5,-53 39.6,-35.3 59.4,-84.4 59.4,-147.1 0,-44.4 -10.2,-82.3 -30.6,-113.7 -20.4,-31.4 -50.4,-54.7 -90,-69.9 l 126.1,-225.6 c 1.8,-3.6 2.7,-7 2.7,-10 0,-5.5 -2,-10.2 -5.9,-14.2 -4,-3.9 -8.7,-5.9 -14.2,-5.9 h -77.6 c -12.2,0 -21.2,2.9 -27,8.7 -5.8,5.7 -9.9,11.1 -12.3,15.9 l -119.6,212.9 h -121.5 V 8513 c 0,-6.7 -2.5,-12.5 -7.3,-17.3 -4.9,-4.9 -10.7,-7.3 -17.4,-7.3 h -74 c -6.7,0 -12.5,2.4 -17.3,7.3 -4.9,4.8 -7.3,10.6 -7.3,17.3 v 590.1 c 0,6.7 2.4,12.5 7.3,17.3 4.8,4.9 10.6,7.4 17.3,7.4 h 235.7"
         style="fill:#ffffff;fill-opacity:1;fill-rule:nonzero;stroke:none"
         id="path250" />
      <path
         d="m 11348.2,9127.8 c 6.7,0 12.5,-2.5 17.4,-7.4 4.9,-4.8 7.3,-10.6 7.3,-17.3 0,-3.1 -0.6,-5.8 -1.8,-8.2 L 11154.6,8714 v -201 c 0,-6.7 -2.5,-12.5 -7.3,-17.3 -4.9,-4.9 -10.7,-7.3 -17.4,-7.3 h -73 c -6.8,0 -12.5,2.4 -17.4,7.3 -4.9,4.8 -7.3,10.6 -7.3,17.3 v 201 l -216.5,380.9 c -1.2,2.4 -1.8,5.1 -1.8,8.2 0,6.7 2.4,12.5 7.3,17.3 4.9,4.9 10.6,7.4 17.4,7.4 h 68.5 c 12.1,0 21.3,-3.1 27.4,-9.2 6,-6.1 9.7,-10.6 10.9,-13.7 l 148,-258.5 148,258.5 c 1.2,3.1 4.8,7.6 10.9,13.7 6.1,6.1 15.2,9.2 27.4,9.2 h 68.5"
         style="fill:#ffffff;fill-opacity:1;fill-rule:nonzero;stroke:none"
         id="path252" />
      <path
         d="m 18791.7,6792.1 c 19.9,43 9.2,66.1 9.2,66.1 0,0 -460.3,170.7 -504.9,182.1 -30.5,7.8 -375.6,151.5 -548.3,251.9 -85.7,49.9 -152.2,-3.7 -230.6,-58.5 l -64.5,-45.2 c -77.9,-54.4 -58.9,-183.1 32.2,-217.4 256.6,-96.9 652.8,-168.8 728.4,-186.5 187.7,-44.1 529.4,-55.7 529.4,-55.7 0,0 32,26.2 49.1,63.2"
         style="fill:#91cecf;fill-opacity:1;fill-rule:nonzero;stroke:none"
         id="path254" />
      <path
         d="m 20209.4,6798.1 -61.8,-3.5 c 0,0 -109.2,41.7 -166.5,-71.8 0,0 -20.1,-48.6 17.9,-51 38,-2.3 23.7,4.1 77.2,-0.4 53.5,-4.4 104.2,16.2 121.6,51.4 l 33.8,28.8 -22.2,46.5"
         style="fill:#ffb27d;fill-opacity:1;fill-rule:nonzero;stroke:none"
         id="path256" />
      <path
         d="m 20164.1,6754 c -13.3,42.5 -10.1,49.2 -10.1,49.2 0,0 377.2,202.9 411.8,223.4 34.6,20.6 424.9,434.1 424.9,434.1 l 398.6,-110.8 c 0,0 -618.3,-468.7 -706.9,-519.1 -146.4,-83.3 -485,-129.8 -485,-129.8 0,0 -23,19.6 -33.3,53"
         style="fill:#91cecf;fill-opacity:1;fill-rule:nonzero;stroke:none"
         id="path258" />
      <path
         d="m 20598.1,6479.3 -1561.6,-332.4 -362,1700.3 1561.7,332.4 361.9,-1700.3"
         style="fill:#d57912;fill-opacity:1;fill-rule:nonzero;stroke:none"
         id="path260" />
      <path
         d="m 19932.8,6337.7 -1142.7,-243.3 -362,1700.4 1142.7,243.2 362,-1700.3"
         style="fill:#e69d43;fill-opacity:1;fill-rule:nonzero;stroke:none"
         id="path262" />
      <path
         d="m 19932.8,6337.7 -1142.7,-243.3 -70,328.9 661.5,1574.4 189.2,40.3 362,-1700.3"
         style="fill:#e78b37;fill-opacity:1;fill-rule:nonzero;stroke:none"
         id="path264" />
      <path
         d="m 19122,4555.4 c 0,0 60.8,-67.1 202,-30.6 0,0 113.9,25.9 138.9,-30.9 0,0 -143.3,-90.6 -187.5,-114.9 -33.3,-18.3 -68.1,-47.2 -92.7,-69.5 -19.4,-17.6 -49.7,-15.2 -66.3,5.1 -7.7,9.5 -16.4,20.7 -26.1,33.8 -26.9,36.5 -89.7,154.4 -89.7,154.4 l 121.4,52.6"
         style="fill:#233862;fill-opacity:1;fill-rule:nonzero;stroke:none"
         id="path266" />
      <path
         d="m 19176.1,4590.5 c 0,0 -56.2,-129.4 -185.7,-105.6 0,0 -264.4,218.3 -445.7,445.1 -58.9,73.6 -109.1,148.2 -138.5,216.4 -120.3,278.4 -444.8,693.7 -651.2,904.1 l 516.3,186.8 c 0,0 165.4,-332.7 385.4,-741.3 158.6,-294.4 345.5,-628.2 519.4,-905.5"
         style="fill:#2b478b;fill-opacity:1;fill-rule:nonzero;stroke:none"
         id="path268" />
      <path
         d="m 18656.7,5496 -112,-566 c -58.9,73.6 -109.1,148.2 -138.5,216.4 -120.3,278.4 -444.8,693.7 -651.2,904.1 l 516.3,186.8 c 0,0 165.4,-332.7 385.4,-741.3"
         style="fill:#233862;fill-opacity:1;fill-rule:nonzero;stroke:none"
         id="path270" />
      <path
         d="m 18234.7,4480.3 c 0,0 -5.6,-103.3 119.5,-117 0,0 75.6,-1.6 75.8,-67.3 h -367.9 c 0,0 -10.5,26.5 -13.1,83.3 -2,43.6 42.3,157.6 42.3,157.6 l 143.4,-56.6"
         style="fill:#233862;fill-opacity:1;fill-rule:nonzero;stroke:none"
         id="path272" />
      <path
         d="m 18102,6237.3 c 0,0 230,-252.7 376,-708 79.4,-247.8 -145.6,-870.6 -189.5,-1087 0,0 -151,-12.8 -254.2,27.1 0,0 -7.8,446.9 52.5,791.4 33.8,192.8 -302.8,412.4 -449.9,760.8 -100.1,237 21.7,232.9 171.3,238.6 l 293.8,-22.9"
         style="fill:#2b478b;fill-opacity:1;fill-rule:nonzero;stroke:none"
         id="path274" />
      <path
         d="m 17836.4,7364.9 c -127.9,-72.3 -389.9,-5.7 -389.9,-5.7 0,0 106.4,121.7 58,317.5 l 100.5,-51 107.9,-54.8 c 0,0 7,-34.6 11.9,-96.7 1.2,-16 2.3,-33.9 3.1,-53.4 65.7,-19.9 108.5,-55.9 108.5,-55.9"
         style="fill:#ffb07b;fill-opacity:1;fill-rule:nonzero;stroke:none"
         id="path276" />
      <path
         d="m 18305.7,6250.4 c 0,-22.5 -25.9,-33.3 -31.4,-34.4 -51.7,-9.4 -195.8,-65.5 -325.6,-78.3 -109.3,-11.5 -210.8,-0.6 -322.3,21.8 -14.8,3 -49.4,12.3 -51.9,26.4 -3.1,15.5 -430.1,870.5 -98.1,1237.8 7.8,8.6 73.3,-6.9 133.2,-21.1 55.4,-13.1 106.1,-5.8 151.5,12.4 l 56.1,-29.6 c 69.1,-38.5 199.6,-175.1 214.9,-282.3 7.8,-54.5 39,-94.9 48,-142.8 3.3,-17.8 6.7,-35.1 10.2,-52 6.8,-33.1 13.8,-64.6 21,-94.6 19.6,-81.1 40.2,-150.9 60.4,-211.2 21.6,-64 42.7,-117.3 61.5,-161.8 24.5,-57.8 45.2,-100.9 58.1,-134 9.1,-23.3 14.4,-41.5 14.4,-56.3"
         style="fill:#abddda;fill-opacity:1;fill-rule:nonzero;stroke:none"
         id="path278" />
      <path
         d="m 18291.3,6306.7 c -602.7,284 -811.5,829.3 -811.5,829.3 0,0 485.5,-159.6 606.3,-206.6 6.8,-33.1 18,-85.7 25.2,-115.7 19.6,-81.1 40.2,-150.9 60.4,-211.2 21.6,-64 42.7,-117.3 61.5,-161.8 24.5,-57.8 45.2,-100.9 58.1,-134"
         style="fill:#91cecf;fill-opacity:1;fill-rule:nonzero;stroke:none"
         id="path280" />
      <path
         d="m 18507,7691.2 11.5,54.3 c 0,0 -87.8,92.7 21.7,174.1 0,0 48.6,30.6 65.1,-4.6 16.6,-35.1 4,-23.3 28.7,-72.5 24.6,-49.3 19.5,-102.1 -14.6,-126.9 l -20.7,-38.7 -91.7,14.3"
         style="fill:#ffb07b;fill-opacity:1;fill-rule:nonzero;stroke:none"
         id="path282" />
      <path
         d="m 17724.8,7474.2 c -125.9,-7.1 -207.7,96.8 -207.7,96.8 0,0 56.9,31.5 87.9,54.7 l 107.9,-54.8 c 0,0 7,-34.6 11.9,-96.7"
         style="fill:#ea8e50;fill-opacity:1;fill-rule:nonzero;stroke:none"
         id="path284" />
      <path
         d="m 17778.4,7603.4 c 0,0 -190.7,-136.8 -274.1,-16.8 -83.3,120.1 -164.1,183.2 -45.9,275.7 118.2,92.4 173.9,63.2 211.5,29.9 37.6,-33.3 155.9,-250.1 108.5,-288.8"
         style="fill:#ffb07b;fill-opacity:1;fill-rule:nonzero;stroke:none"
         id="path286" />
      <path
         d="m 17690.1,8000.6 c -6.9,46.2 -22.3,78.7 -22.3,78.7 0,0 -11.9,-49.6 -102.5,-42.8 -90.6,6.9 -234.2,-8.9 -282,-112.1 -3.1,-6.6 -5.8,-13.3 -8.2,-20.2 -8.6,22.8 -10.7,57.1 -10.7,57.1 -17.3,-44.4 0,-100 0,-100 v 0 c -0.3,-1.6 -0.5,-3.2 -0.7,-4.9 -20,-16.9 -36.8,-69.4 -36.8,-69.4 6,14.7 20.7,24.2 33.8,30.1 -0.4,-80.3 32.2,-158.8 89.4,-182.2 83.6,-34.2 82.9,-8.1 167,-63.9 0,0 22.6,28 7.2,46.8 -15.4,18.8 -73.5,46.1 -41,73.5 32.4,27.3 44.4,-3.4 56.4,15.4 11.9,18.8 -47.9,73.5 29,124.7 76.9,51.3 128.2,123.1 121.4,169.2"
         style="fill:#2b478b;fill-opacity:1;fill-rule:nonzero;stroke:none"
         id="path288" />
      <path
         d="m 22168.3,4597.8 c 0,0 64.1,-59.5 51.6,-101.8 -12.5,-42.2 -70.4,-70.4 -78.2,-122 -7.8,-51.6 -39.1,-79.8 -67.3,-79.8 -28.2,0 -134.3,0 -134.3,0 0,0 -20.7,36.3 29.4,47.3 50,10.9 68.9,71.6 65.8,128 -3.2,56.3 4.7,131.4 4.7,131.4 l 106.4,25 21.9,-28.1"
         style="fill:#2c3a64;fill-opacity:1;fill-rule:nonzero;stroke:none"
         id="path290" />
      <path
         d="m 21368.7,4296.4 c -1.6,-0.8 -4.1,-1.5 -7.6,-2.2 h -356 c 2.9,12.5 14,37.5 56.9,44.4 56.1,9.1 153.3,41.7 175,113.5 0.7,2.3 1.3,4.6 1.8,7 17.2,76.7 142.4,-23.5 142.4,-23.5 0,0 0.4,-3 0.9,-8.2 2.9,-28.1 10.4,-119.1 -13.4,-131"
         style="fill:#2c3a64;fill-opacity:1;fill-rule:nonzero;stroke:none"
         id="path292" />
      <path
         d="m 21076.9,6347.2 c 0,0 19,-237.2 41.4,-522.4 30.3,-387.3 66.8,-863.1 70.5,-953.2 6.2,-156.5 31.3,-406.8 31.3,-406.8 0,0 59.4,-59.5 178.4,-34.4 0,0 106,357.3 136.2,735.4 0.5,6.2 1,12.5 1.4,18.7 28.2,385 72,1195.5 72,1195.5 l -531.2,-32.8"
         style="fill:#2b478b;fill-opacity:1;fill-rule:nonzero;stroke:none"
         id="path294" />
      <path
         d="m 21076.9,6347.2 c 0,0 19,-237.2 41.4,-522.4 l 416.4,-659 c 0.5,6.2 1,12.5 1.4,18.7 28.2,385 72,1195.5 72,1195.5 l -531.2,-32.8"
         style="fill:#233862;fill-opacity:1;fill-rule:nonzero;stroke:none"
         id="path296" />
      <path
         d="m 21163.7,6319 c 0,0 342.7,-859.1 568,-1262.8 225.3,-403.7 295.8,-516.3 295.8,-516.3 0,0 129.1,51.6 140.8,86.8 0,0 -86.2,779.4 -237.1,969.4 -85.2,107.3 -185.4,429.5 -190.1,542.2 -4.7,112.6 -30.5,335.6 -30.5,335.6 L 21163.7,6319"
         style="fill:#2b478b;fill-opacity:1;fill-rule:nonzero;stroke:none"
         id="path298" />
      <path
         d="m 21199.1,7704.4 c 0,0 -171,-225.5 -310.7,-239.4 0,0 16.5,81.2 57,132.8 -11.4,17.8 -21.4,34 -29.9,48.4 -28.3,48.3 -41,77.2 -41,77.2 l 62.4,117.5 42.3,79.7 c 11.4,-29.2 24.9,-54.6 39.5,-76.7 75.2,-113.9 180.4,-139.5 180.4,-139.5"
         style="fill:#ffb27d;fill-opacity:1;fill-rule:nonzero;stroke:none"
         id="path300" />
      <path
         d="m 21018.7,7843.9 c 0,0 0.3,-124.4 -103.2,-197.7 -28.3,48.3 -41,77.2 -41,77.2 l 62.4,117.5 c 51.3,8.5 81.8,3 81.8,3"
         style="fill:#ed975d;fill-opacity:1;fill-rule:nonzero;stroke:none"
         id="path302" />
      <path
         d="m 20835.6,7710.2 c 0,0 217.8,53.3 182.5,188.4 -35.2,135.1 -30.9,233 -171.4,204.7 -140.6,-28.3 -154,-86.9 -153.2,-134.9 0.8,-47.9 84.5,-268.6 142.1,-258.2"
         style="fill:#ffb27d;fill-opacity:1;fill-rule:nonzero;stroke:none"
         id="path304" />
      <path
         d="m 21745,6358.5 c -99.5,-109 -745.4,-186.7 -726.9,-104.5 7,31.4 18.3,87 21.6,164 0.8,18 1.1,37.2 0.9,57.5 -1.4,111.4 -20.4,256.8 -83,430.6 -4.6,13 -9.6,26.1 -14.7,39.5 -26.3,67.5 -47,138 -60.8,206 -26.7,130.8 -28.3,252.8 3.9,328.1 l 42.3,121.1 c 138.5,43.1 178.4,150.5 178.4,150.5 0,0 434.8,-139.1 605.6,-765.9 0,0 119.3,-532 32.7,-626.9"
         style="fill:#abddda;fill-opacity:1;fill-rule:nonzero;stroke:none"
         id="path306" />
      <path
         d="m 21039.7,6418 c 0.8,18 1.1,37.2 0.9,57.5 -1.4,111.4 -20.4,256.8 -83,430.6 26.1,85.5 55.6,155.7 81.9,185.5 106.5,121.4 161,135.3 161,135.3 0,0 58.7,-579.5 -160.8,-808.9"
         style="fill:#91cecf;fill-opacity:1;fill-rule:nonzero;stroke:none"
         id="path308" />
      <path
         d="m 21079.4,8132.8 c 1.9,2.6 6.5,5.1 17.2,6.9 0,0 -9.2,4.5 -20.8,3.6 -3.9,14.9 -14.8,41 -41.3,44.7 0,0 14.7,-6 18.3,-22 -33.3,27.9 -99.8,43.5 -275.3,9.8 -231.3,-44.4 -137.7,-187.7 -105.4,-202.5 32.2,-14.7 102.7,43.2 159.5,44.9 56.8,1.7 76.6,-79.8 97,-89 20.3,-9.2 10.6,10 35.1,24.7 24.6,14.7 31.8,-28.5 27.5,-57.6 -4.4,-29.1 35.2,-62.5 35.2,-62.5 0,0 0,0 31.6,43.2 31.5,43.2 47,213.1 26.8,246.8 -1.8,2.9 -3.5,5.9 -5.4,9"
         style="fill:#233862;fill-opacity:1;fill-rule:nonzero;stroke:none"
         id="path310" />
      <path
         d="m 20441.3,6548.3 c 0,0 -78.4,-4.3 -95.2,-10.2 -16.8,-5.9 -69.8,-47.5 -69.3,-52.5 0.6,-5.1 4.5,-8.3 15,-6.1 10.6,2.1 43.4,15.9 42.4,11.2 -1,-4.7 -93.8,-51.1 -89.5,-71.2 4.4,-20 68.3,-41.9 114.4,-31.8 46.1,10 139.6,81 145.7,86.2 6.1,5.2 -63.5,74.4 -63.5,74.4"
         style="fill:#ffb27d;fill-opacity:1;fill-rule:nonzero;stroke:none"
         id="path312" />
      <path
         d="m 20446.2,6508.3 c -29,37.3 -13.1,57.5 -13.1,57.5 0,0 349.8,339.8 376.5,373.2 26.7,33.4 113.8,529.2 113.8,529.2 0,0 49.8,119.3 159.2,152.7 95.1,29 144.5,68.6 194.4,17 59.5,-61.5 74.6,-153.5 39,-231.4 -79.9,-174.7 -241.6,-521.8 -293.1,-583.6 -99.4,-119.5 -416.8,-311.1 -499.2,-359.8 -12,-7.1 -27.3,-5.6 -37.7,3.8 -12,10.7 -27.6,25.7 -39.8,41.4"
         style="fill:#abddda;fill-opacity:1;fill-rule:nonzero;stroke:none"
         id="path314" />
      <path
         d="m 18632.4,7707.7 c 0,0 -17.3,27 -58.6,36.4 -52.4,11.9 -76.2,17.4 -76.2,17.4 0,0 -261.7,-435.1 -283.3,-478.7 -4.7,-9.6 -13,-25 -24.9,-46.2 -9.1,-16.1 -28,-24.1 -45.9,-19.3 -101.2,27.2 -212.4,61.8 -295.3,100.1 -93.1,43 -202.2,31.2 -284,-30.6 l -67.3,-51 c -81.3,-61.5 -56.7,-189.5 41.6,-216.4 237.6,-65.2 584.2,-103.2 729.1,-120 65.6,-7.6 145.4,155.3 185,247.2 l -0.4,0.1 c 84.7,190.7 180.2,561 180.2,561"
         style="fill:#abddda;fill-opacity:1;fill-rule:nonzero;stroke:none"
         id="path316" />
      <path
         d="m 28127.1,4378.9 c -55,-1.3 -109.2,4.4 -161.1,12.9 61.3,45.1 190.2,138.5 295.2,204.2 143.1,89.3 224.3,239.8 22.4,265.4 -172,21.9 -307.2,-353.5 -343.6,-465.1 -23.5,4.4 -46.5,9.1 -68.8,13.9 27.7,79.4 88.2,247.7 145.7,365 77.5,158.3 351.7,425.8 77.5,456.3 -243.9,27.2 -308.6,-649.4 -319.9,-799.9 -49,10.4 -91.8,17.4 -125.7,14.9 -78,-5.7 -152.7,-90.7 -108.5,-128.2 h 823.4 c -26.7,22.4 -95.6,64 -236.6,60.6"
         style="fill:#86d1cd;fill-opacity:1;fill-rule:nonzero;stroke:none"
         id="path318" />
      <path
         d="m 3600.86,4458.9 v 0 c -124.79,301 -393.69,877.6 -598.18,809.5 -202.11,-67.4 252.29,-566.8 508.12,-827.5 -50.84,-10.7 -96.75,-21.2 -139.13,-30.9 -197.2,179.5 -522.82,473.7 -552.51,352.7 -26.03,-106.1 253.37,-266.5 467.1,-372 -133.07,-29 -233.76,-42.8 -358.66,-14.4 -205.76,46.8 -310.88,-92.9 -310.88,-92.9 H 4187.2 c 0,0 -258.74,237.3 -586.34,175.5"
         style="fill:#86d1cd;fill-opacity:1;fill-rule:nonzero;stroke:none"
         id="path320" />
      <path
         d="M 29326.5,4252.5 H 673.535 C 655.641,4252.5 641,4267.1 641,4285 v 11.1 c 0,17.9 14.641,32.5 32.535,32.5 H 29326.5 c 17.9,0 32.5,-14.6 32.5,-32.5 V 4285 c 0,-17.9 -14.6,-32.5 -32.5,-32.5"
         style="fill:#2e3552;fill-opacity:1;fill-rule:nonzero;stroke:none"
         id="path322" />
    </g>
  </g>
</svg>
