<?xml version="1.0" encoding="UTF-8" standalone="no"?>
<!-- Created with Inkscape (http://www.inkscape.org/) -->

<svg
   version="1.1"
   id="svg2"
   width="4000"
   height="2666.6667"
   viewBox="0 0 4000 2666.6667"
   sodipodi:docname="IST_37929_05200.eps"
   xmlns:inkscape="http://www.inkscape.org/namespaces/inkscape"
   xmlns:sodipodi="http://sodipodi.sourceforge.net/DTD/sodipodi-0.dtd"
   xmlns="http://www.w3.org/2000/svg"
   xmlns:svg="http://www.w3.org/2000/svg">
  <defs
     id="defs6" />
  <sodipodi:namedview
     id="namedview4"
     pagecolor="#ffffff"
     bordercolor="#000000"
     borderopacity="0.25"
     inkscape:showpageshadow="2"
     inkscape:pageopacity="0.0"
     inkscape:pagecheckerboard="0"
     inkscape:deskcolor="#d1d1d1" />
  <g
     id="g8"
     inkscape:groupmode="layer"
     inkscape:label="ink_ext_XXXXXX"
     transform="matrix(1.3333333,0,0,-1.3333333,0,2666.6667)">
    <g
       id="g10"
       transform="scale(0.1)">
      <path
         d="M 30000,0 H 0 V 20000 H 30000 V 0"
         style="fill:#ffffff;fill-opacity:1;fill-rule:nonzero;stroke:none"
         id="path12" />
      <path
         d="M 5135.91,3739.8 H 24577.7 c 529.7,126.4 1165.3,481.1 1584.2,1395.5 1084.1,2366 -437.4,4613.5 -3062,4775.4 -3785.4,233.5 -1687.5,6277.1 -7660.9,4637.3 -1679.6,-461.1 -5332.9,1919.2 -7483.43,-2113.9 C 7589.89,11748.3 6496.73,11782 5040.3,10612 2646.33,8689 3286.17,4341.6 5135.91,3739.8"
         style="fill:#fcecdb;fill-opacity:1;fill-rule:nonzero;stroke:none"
         id="path14" />
      <path
         d="m 21252.7,6177 c 0,0 -389.1,454 -24,742.3 0,0 266.7,161.5 484.2,148.4 0,0 -308.1,-516.7 -208.4,-568.1 99.7,-51.4 301.8,600.5 301.8,600.5 0,0 607,58.9 802.2,-35 0,0 -518.9,-424.6 -409.6,-449.9 109.3,-25.2 669.7,391.5 669.7,391.5 0,0 564.9,-96.1 534.8,-440.7 -30.1,-344.6 -224.8,-451 -310.3,-441.9 -85.6,9.2 -586,200.2 -596.9,130.1 -10.9,-70.1 290.3,-299.2 501.3,-309.9 0,0 -398.3,-439.2 -663,-312.4 -264.6,126.7 -287.2,327.7 -452.2,403 -165,75.4 -305.9,75.2 -237.7,-1.7 68.1,-76.8 366.7,-151.5 461,-318.4 94.4,-166.9 179,-279.5 -94.8,-238.3 -273.9,41.2 -719,241.6 -738.5,471.1 -19.6,229.4 -19.6,229.4 -19.6,229.4"
         style="fill:#599dad;fill-opacity:1;fill-rule:nonzero;stroke:none"
         id="path16" />
      <path
         d="m 23125.8,6556.7 c 0,0 -1534.2,59.1 -1873.1,-379.7 0,0 -74.9,-224.4 -305.5,-428.8 l -35.9,-97.9 c 0,0 265.8,280.3 361,297.3 0,0 -148.8,543.6 1853.5,609.1"
         style="fill:#599dad;fill-opacity:1;fill-rule:nonzero;stroke:none"
         id="path18" />
      <path
         d="m 20947.2,5748.2 c 0,0 -329.3,-243.5 -352.2,-678.7 l 59.8,-5.3 c 0,0 105.2,449.9 295.3,625.9 190.1,175.9 -2.9,58.1 -2.9,58.1"
         style="fill:#599dad;fill-opacity:1;fill-rule:nonzero;stroke:none"
         id="path20" />
      <path
         d="m 19892.2,6747.9 c 0,0 619,346.7 330.1,817.1 0,0 -231.1,288.9 -478.7,363.2 0,0 132.1,-701.6 0,-718.1 -132,-16.5 -90.7,792.4 -90.7,792.4 0,0 -652.1,313.6 -907.9,288.8 0,0 404.4,-685 272.3,-668.5 -132,16.5 -586,709.8 -586,709.8 0,0 -668.5,123.8 -775.8,-272.4 -107.3,-396.1 66,-594.2 165.1,-619 99,-24.7 734.5,-16.5 718,-99 -16.5,-82.5 -445.7,-214.6 -685,-140.3 0,0 264.1,-652 610.8,-619 346.6,33 453.9,247.6 668.5,264.1 214.6,16.5 371.4,-41.3 264.1,-99.1 -107.3,-57.7 -470.5,-18.9 -643.8,-166.2 -173.3,-147.4 -313.6,-238.2 8.3,-304.2 321.8,-66 899.6,-24.8 1015.1,222.8 115.6,247.6 115.6,247.6 115.6,247.6"
         style="fill:#6bb7bf;fill-opacity:1;fill-rule:nonzero;stroke:none"
         id="path22" />
      <path
         d="m 17960.9,7936.4 c 0,0 1733.2,-561.2 1931.3,-1188.5 0,0 -8.3,-280.6 165.1,-602.5 v -123.8 c 0,0 -181.6,421 -280.7,478.7 0,0 388,544.8 -1815.7,1436.1"
         style="fill:#6bb7bf;fill-opacity:1;fill-rule:nonzero;stroke:none"
         id="path24" />
      <path
         d="m 20057.3,6145.4 c 0,0 267.3,-405.9 114.9,-900 l -68.8,18.5 c 0,0 66.8,544.2 -73.1,817.9 -139.8,273.7 27,63.6 27,63.6"
         style="fill:#6bb7bf;fill-opacity:1;fill-rule:nonzero;stroke:none"
         id="path26" />
      <path
         d="m 20877,7226 c 0,0 -816,456.9 -435.2,1077.1 0,0 304.6,380.8 631,478.7 0,0 -174,-924.8 0,-946.5 174.1,-21.8 119.7,1044.4 119.7,1044.4 0,0 859.5,413.4 1196.7,380.8 0,0 -533.1,-903 -359,-881.3 174.1,21.8 772.5,935.7 772.5,935.7 0,0 881.2,163.2 1022.7,-359 141.4,-522.3 -87.1,-783.4 -217.6,-816 -130.6,-32.7 -968.3,-21.8 -946.6,-130.6 21.8,-108.8 587.5,-282.8 903,-184.9 0,0 -348.1,-859.5 -805,-816 -457,43.5 -598.4,326.4 -881.3,348.2 -282.9,21.7 -489.6,-54.4 -348.1,-130.6 141.4,-76.2 620.1,-24.9 848.6,-219.2 228.4,-194.2 413.4,-313.9 -10.9,-400.9 -424.3,-87.1 -1185.9,-32.7 -1338.2,293.7 C 20877,7226 20877,7226 20877,7226"
         style="fill:#86d1cd;fill-opacity:1;fill-rule:nonzero;stroke:none"
         id="path28" />
      <path
         d="m 23422.8,8792.7 c 0,0 -2284.7,-739.8 -2545.8,-1566.7 0,0 10.9,-369.9 -217.6,-794.2 v -163.2 c 0,0 239.4,554.9 369.9,631 0,0 -511.3,718.1 2393.5,1893.1"
         style="fill:#6bb7bf;fill-opacity:1;fill-rule:nonzero;stroke:none"
         id="path30" />
      <path
         d="m 20659.4,6431.8 c 0,0 -352.3,-535 -151.5,-1186.3 l 90.7,24.3 c 0,0 -88,717.4 96.3,1078.2 184.4,360.8 -35.5,83.8 -35.5,83.8"
         style="fill:#6bb7bf;fill-opacity:1;fill-rule:nonzero;stroke:none"
         id="path32" />
      <path
         d="m 20849.5,3833.1 c 882.7,0 1598.3,715.6 1598.3,1598.3 h -3196.7 c 0,-882.7 715.6,-1598.3 1598.4,-1598.3"
         style="fill:#efcbab;fill-opacity:1;fill-rule:nonzero;stroke:none"
         id="path34" />
      <path
         d="m 21242.8,3845.3 c -65,-8.1 -131.3,-12.2 -198.6,-12.2 -882.7,0 -1598.3,715.6 -1598.3,1598.3 h 397.1 c 0,-815.5 610.8,-1488.3 1399.8,-1586.1"
         style="fill:#ffebdc;fill-opacity:1;fill-rule:nonzero;stroke:none"
         id="path36" />
      <path
         d="m 22469.9,3751.7 h -3240.8 v 0 c 0,109 88.3,197.2 197.2,197.2 h 2846.4 c 108.9,0 197.2,-88.2 197.2,-197.2 v 0"
         style="fill:#efcbab;fill-opacity:1;fill-rule:nonzero;stroke:none"
         id="path38" />
      <path
         d="m 22484.2,5382.4 h -3285.6 v 49 h 3285.6 v -49"
         style="fill:#efcdaf;fill-opacity:1;fill-rule:nonzero;stroke:none"
         id="path40" />
      <path
         d="m 10105.1,7911.3 c 0,0 506.5,955.8 -252.43,1319.7 0,0 -534.83,179.1 -913.43,69.6 0,0 749.03,-789.6 593.48,-919.9 -155.53,-130.3 -771.19,940 -771.19,940 0,0 -1094.55,-137.1 -1401.88,-380.3 0,0 1084.32,-543.4 901.51,-631.4 -182.84,-88 -1337.4,425.1 -1337.4,425.1 0,0 -958.82,-394 -768.81,-990.2 189.97,-596.3 575.75,-706.8 723.1,-656.6 147.35,50.1 954.7,586 1001.76,466.6 47.08,-119.4 -393.59,-643.3 -761.63,-746 0,0 877.27,-617 1294.08,-288.2 416.81,328.8 376.9,692.4 638.16,890.9 261.27,198.5 509.94,254.1 420.23,91.4 -89.71,-162.7 -587.05,-413.1 -687.32,-745.1 -100.25,-332 -204.97,-564.3 262,-382.8 466.94,181.4 1172.97,711.8 1116.37,1124.5 -56.6,412.7 -56.6,412.7 -56.6,412.7"
         style="fill:#599dad;fill-opacity:1;fill-rule:nonzero;stroke:none"
         id="path42" />
      <path
         d="m 6648.49,7837.7 c 0,0 2684.37,713.5 3456.61,73.6 0,0 221.4,-366.3 709.4,-635.4 l 102.4,-158.6 c 0,0 -580.6,389.2 -755.2,381.3 0,0 46.7,1018.5 -3513.21,339.1"
         style="fill:#599dad;fill-opacity:1;fill-rule:nonzero;stroke:none"
         id="path44" />
      <path
         d="m 10814.5,7275.9 c 0,0 678,-299.1 891.1,-1058 l -103.4,-33.2 c 0,0 -364.2,752.4 -769.6,987.4 -405.4,235.1 -18.1,103.8 -18.1,103.8"
         style="fill:#599dad;fill-opacity:1;fill-rule:nonzero;stroke:none"
         id="path46" />
      <path
         d="m 13608.8,9383.4 c 0,0 1500,782.3 844.9,1924.1 0,0 -530.4,705 -1115.2,899.6 0,0 264.9,-1681.5 -51,-1711.5 -316,-30 -160.2,1895 -160.2,1895 0,0 -1531.8,793.8 -2143.4,753 0,0 915.3,-1661.5 601.7,-1612.8 -313.6,48.7 -1346.3,1733.4 -1346.3,1733.4 0,0 -1584.71,342.5 -1868.58,-594.1 -283.87,-936.7 115.2,-1421.1 349.51,-1487.2 234.3,-66 1749.67,-91.5 1704.47,-287 -45.2,-195.5 -1077.56,-479.8 -1642.78,-285.8 0,0 583.23,-1572.9 1411.78,-1518.8 828.6,54.1 1099.6,558 1612.3,582.1 512.6,24.1 882.3,-124.7 622.4,-254.8 -259.8,-130.1 -1122.6,-11.8 -1546.2,-350.7 -423.6,-338.9 -764.5,-545.3 -1.9,-725.5 762.5,-180.3 2142.5,-122.9 2435.5,459 293,582 293,582 293,582"
         style="fill:#86d1cd;fill-opacity:1;fill-rule:nonzero;stroke:none"
         id="path48" />
      <path
         d="m 9089.8,12353.3 c 0,0 4091.4,-1460.7 4519,-2969.9 0,0 -39.6,-668.3 350.6,-1447.8 l -8.7,-295.1 c 0,0 -403,1016.2 -634.9,1160.9 0,0 963.3,1270.9 -4226,3551.9"
         style="fill:#6bb7bf;fill-opacity:1;fill-rule:nonzero;stroke:none"
         id="path50" />
      <path
         d="m 13959.4,7935.6 c 0,0 608.3,-986.4 210.1,-2153.3 l -162.6,48.9 c 0,0 197.7,1292.4 -116.2,1954.7 -313.9,662.4 68.7,149.7 68.7,149.7"
         style="fill:#6bb7bf;fill-opacity:1;fill-rule:nonzero;stroke:none"
         id="path52" />
      <path
         d="m 21735.8,3751.7 h -8560.5 l -1791.1,7337 h 8560.5 l 1791.1,-7337"
         style="fill:#c67022;fill-opacity:1;fill-rule:nonzero;stroke:none"
         id="path54" />
      <path
         d="m 9589.98,3751.7 h 8560.52 l 1791,7337 H 11381 l -1791.02,-7337"
         style="fill:#f1a34f;fill-opacity:1;fill-rule:nonzero;stroke:none"
         id="path56" />
      <path
         d="m 10176.7,4167.6 h 7590.1 l 1588,6505.3 h -7590.1 l -1588,-6505.3"
         style="fill:#ffffff;fill-opacity:1;fill-rule:nonzero;stroke:none"
         id="path58" />
      <path
         d="m 18017.5,8927.8 h 705.3 l 147.6,604.6 h -705.3 l -147.6,-604.6"
         style="fill:#afcdfb;fill-opacity:1;fill-rule:nonzero;stroke:none"
         id="path60" />
      <path
         d="m 16950.2,8927.8 h 705.3 l 147.6,604.6 h -705.3 l -147.6,-604.6"
         style="fill:#afcdfb;fill-opacity:1;fill-rule:nonzero;stroke:none"
         id="path62" />
      <path
         d="m 15870.6,8927.8 h 705.4 l 147.5,604.6 h -705.3 l -147.6,-604.6"
         style="fill:#afcdfb;fill-opacity:1;fill-rule:nonzero;stroke:none"
         id="path64" />
      <path
         d="m 14791.1,8927.8 h 705.3 l 147.5,604.6 h -705.3 l -147.5,-604.6"
         style="fill:#afcdfb;fill-opacity:1;fill-rule:nonzero;stroke:none"
         id="path66" />
      <path
         d="m 13711.5,8927.8 h 705.3 l 147.6,604.6 h -705.3 l -147.6,-604.6"
         style="fill:#afcdfb;fill-opacity:1;fill-rule:nonzero;stroke:none"
         id="path68" />
      <path
         d="m 12631.9,8927.8 h 705.3 l 147.6,604.6 h -705.3 l -147.6,-604.6"
         style="fill:#afcdfb;fill-opacity:1;fill-rule:nonzero;stroke:none"
         id="path70" />
      <path
         d="m 11552.3,8927.8 h 705.4 l 147.5,604.6 h -705.3 l -147.6,-604.6"
         style="fill:#afcdfb;fill-opacity:1;fill-rule:nonzero;stroke:none"
         id="path72" />
      <path
         d="m 17723.4,7858.2 h 705.3 l 147.5,604.5 h -705.3 l -147.5,-604.5"
         style="fill:#afcdfb;fill-opacity:1;fill-rule:nonzero;stroke:none"
         id="path74" />
      <path
         d="m 16656.1,7858.2 h 705.3 l 147.5,604.5 h -705.3 l -147.5,-604.5"
         style="fill:#afcdfb;fill-opacity:1;fill-rule:nonzero;stroke:none"
         id="path76" />
      <path
         d="m 15576.5,7858.2 h 705.3 l 147.6,604.5 h -705.3 l -147.6,-604.5"
         style="fill:#afcdfb;fill-opacity:1;fill-rule:nonzero;stroke:none"
         id="path78" />
      <path
         d="m 14496.9,7858.2 h 705.3 l 147.6,604.5 h -705.3 l -147.6,-604.5"
         style="fill:#afcdfb;fill-opacity:1;fill-rule:nonzero;stroke:none"
         id="path80" />
      <path
         d="m 13417.3,7858.2 h 705.4 l 147.5,604.5 h -705.3 l -147.6,-604.5"
         style="fill:#afcdfb;fill-opacity:1;fill-rule:nonzero;stroke:none"
         id="path82" />
      <path
         d="m 12337.8,7858.2 h 705.3 l 147.6,604.5 h -705.4 l -147.5,-604.5"
         style="fill:#afcdfb;fill-opacity:1;fill-rule:nonzero;stroke:none"
         id="path84" />
      <path
         d="m 11258.2,7858.2 h 705.3 l 147.6,604.5 h -705.3 l -147.6,-604.5"
         style="fill:#afcdfb;fill-opacity:1;fill-rule:nonzero;stroke:none"
         id="path86" />
      <path
         d="m 17455.9,6801.9 h 705.4 l 147.5,604.5 h -705.3 l -147.6,-604.5"
         style="fill:#afcdfb;fill-opacity:1;fill-rule:nonzero;stroke:none"
         id="path88" />
      <path
         d="m 16388.6,6801.9 h 705.4 l 147.5,604.5 h -705.3 l -147.6,-604.5"
         style="fill:#afcdfb;fill-opacity:1;fill-rule:nonzero;stroke:none"
         id="path90" />
      <path
         d="m 15309.1,6801.9 h 705.3 l 147.6,604.5 h -705.4 l -147.5,-604.5"
         style="fill:#afcdfb;fill-opacity:1;fill-rule:nonzero;stroke:none"
         id="path92" />
      <path
         d="m 14229.5,6801.9 h 705.3 l 147.6,604.5 h -705.3 l -147.6,-604.5"
         style="fill:#afcdfb;fill-opacity:1;fill-rule:nonzero;stroke:none"
         id="path94" />
      <path
         d="m 13149.9,6801.9 h 705.3 l 147.6,604.5 h -705.3 l -147.6,-604.5"
         style="fill:#afcdfb;fill-opacity:1;fill-rule:nonzero;stroke:none"
         id="path96" />
      <path
         d="m 12070.4,6801.9 h 705.3 l 147.5,604.5 h -705.3 l -147.5,-604.5"
         style="fill:#afcdfb;fill-opacity:1;fill-rule:nonzero;stroke:none"
         id="path98" />
      <path
         d="m 10990.8,6801.9 h 705.3 l 147.6,604.5 h -705.4 l -147.5,-604.5"
         style="fill:#afcdfb;fill-opacity:1;fill-rule:nonzero;stroke:none"
         id="path100" />
      <path
         d="m 17188.5,5772.4 h 705.3 l 147.6,604.5 h -705.3 l -147.6,-604.5"
         style="fill:#afcdfb;fill-opacity:1;fill-rule:nonzero;stroke:none"
         id="path102" />
      <path
         d="m 16121.2,5772.4 h 705.3 l 147.6,604.5 h -705.3 l -147.6,-604.5"
         style="fill:#afcdfb;fill-opacity:1;fill-rule:nonzero;stroke:none"
         id="path104" />
      <path
         d="m 15041.7,5772.4 h 705.3 l 147.5,604.5 h -705.3 l -147.5,-604.5"
         style="fill:#afcdfb;fill-opacity:1;fill-rule:nonzero;stroke:none"
         id="path106" />
      <path
         d="m 13962.1,5772.4 h 705.3 l 147.6,604.5 h -705.3 l -147.6,-604.5"
         style="fill:#afcdfb;fill-opacity:1;fill-rule:nonzero;stroke:none"
         id="path108" />
      <path
         d="m 12882.5,5772.4 h 705.3 l 147.6,604.5 h -705.3 l -147.6,-604.5"
         style="fill:#afcdfb;fill-opacity:1;fill-rule:nonzero;stroke:none"
         id="path110" />
      <path
         d="m 11802.9,5772.4 h 705.4 l 147.5,604.5 h -705.3 l -147.6,-604.5"
         style="fill:#afcdfb;fill-opacity:1;fill-rule:nonzero;stroke:none"
         id="path112" />
      <path
         d="m 10723.4,5772.4 h 705.3 l 147.6,604.5 h -705.4 l -147.5,-604.5"
         style="fill:#afcdfb;fill-opacity:1;fill-rule:nonzero;stroke:none"
         id="path114" />
      <path
         d="m 16934.5,4756.2 h 705.3 l 147.6,604.5 h -705.3 l -147.6,-604.5"
         style="fill:#afcdfb;fill-opacity:1;fill-rule:nonzero;stroke:none"
         id="path116" />
      <path
         d="m 15867.2,4756.2 h 705.3 l 147.6,604.5 h -705.3 l -147.6,-604.5"
         style="fill:#afcdfb;fill-opacity:1;fill-rule:nonzero;stroke:none"
         id="path118" />
      <path
         d="m 14787.6,4756.2 h 705.3 l 147.6,604.5 h -705.3 l -147.6,-604.5"
         style="fill:#afcdfb;fill-opacity:1;fill-rule:nonzero;stroke:none"
         id="path120" />
      <path
         d="m 21735.8,3751.7 -1818.2,348.9 -1767.1,-348.9 z"
         style="fill:#aa5d17;fill-opacity:1;fill-rule:nonzero;stroke:none"
         id="path122" />
      <path
         d="m 18428.2,11855.7 c 429.2,0 779.6,-343.2 791.6,-769.6 h -316.9 c -11.8,251.6 -220.2,452.7 -474.7,452.7 -262.1,0 -475.4,-213.3 -475.4,-475.4 0,-262.1 213.3,-475.3 475.4,-475.3 87.5,0 158.4,-71 158.4,-158.5 0,-87.5 -70.9,-158.5 -158.4,-158.5 -436.9,0 -792.3,355.4 -792.3,792.3 0,436.9 355.4,792.3 792.3,792.3"
         style="fill:#1c468a;fill-opacity:1;fill-rule:nonzero;stroke:none"
         id="path124" />
      <path
         d="m 16421.1,11855.7 c 429.3,0 779.6,-343.2 791.7,-769.6 h -316.9 c -11.9,251.6 -220.3,452.7 -474.8,452.7 -262.1,0 -475.3,-213.3 -475.3,-475.4 0,-262.1 213.2,-475.3 475.3,-475.3 87.5,0 158.5,-71 158.5,-158.5 0,-87.5 -71,-158.5 -158.5,-158.5 -436.8,0 -792.2,355.4 -792.2,792.3 0,436.9 355.4,792.3 792.2,792.3"
         style="fill:#1c468a;fill-opacity:1;fill-rule:nonzero;stroke:none"
         id="path126" />
      <path
         d="m 14414.1,11855.7 c 429.2,0 779.6,-343.2 791.6,-769.6 h -316.9 c -11.8,251.6 -220.2,452.7 -474.7,452.7 -262.2,0 -475.4,-213.3 -475.4,-475.4 0,-262.1 213.2,-475.3 475.4,-475.3 87.5,0 158.4,-71 158.4,-158.5 0,-87.5 -70.9,-158.5 -158.4,-158.5 -436.9,0 -792.3,355.4 -792.3,792.3 0,436.9 355.4,792.3 792.3,792.3"
         style="fill:#1c468a;fill-opacity:1;fill-rule:nonzero;stroke:none"
         id="path128" />
      <path
         d="m 12407,11855.7 c 429.3,0 779.6,-343.2 791.7,-769.6 h -316.9 c -11.9,251.6 -220.3,452.7 -474.8,452.7 -262.1,0 -475.3,-213.3 -475.3,-475.4 0,-262.1 213.2,-475.3 475.3,-475.3 87.5,0 158.5,-71 158.5,-158.5 0,-87.5 -71,-158.5 -158.5,-158.5 -436.8,0 -792.2,355.4 -792.2,792.3 0,436.9 355.4,792.3 792.2,792.3"
         style="fill:#1c468a;fill-opacity:1;fill-rule:nonzero;stroke:none"
         id="path130" />
      <path
         d="m 19941.5,11088.7 -23.9,-6988.1 1818.2,-348.9 z"
         style="fill:#d88029;fill-opacity:1;fill-rule:nonzero;stroke:none"
         id="path132" />
      <path
         d="m 14295.4,8535.9 c -273.5,-79.4 -552,-89.6 -772.6,-52.6 -222.8,37.3 -372.8,160.5 -412.3,296.9 -35.9,123.6 16.9,262.1 152.8,400.7 v 0 c -130.2,-132.8 -176.1,-285.6 -143.5,-398 36.2,-124.7 179.9,-216.8 394.3,-252.8 219.8,-36.8 491.1,-13.5 764,65.7 272.8,79.2 514.5,204.7 680.4,353.5 161.9,145.1 233.9,299.8 197.7,424.5 -38.3,132 -199.5,263.2 -420.7,342.3 -251.5,89.9 -524,71.2 -781.5,-3.5 -483.4,-140.3 -651.3,-305.1 -785.1,-489.4 v 0 c 134.3,185.1 286.5,394.9 771.7,535.7 258.5,75 540,66.5 792.7,-23.8 225.9,-80.7 391.6,-218.1 432.3,-358.6 39.6,-136.4 -31.3,-294.5 -199.5,-445.3 -166.5,-149.3 -397.1,-315.9 -670.7,-395.3"
         style="fill:#c65447;fill-opacity:1;fill-rule:nonzero;stroke:none"
         id="path134" />
      <path
         d="m 9416.48,7607.2 c 0,0 22.04,-214.3 46.23,-254.8 24.18,-40.6 127.16,-170.1 171.02,-195.5 43.87,-25.4 -26.79,170.6 -17.85,208.8 8.94,38.2 36.11,-69.6 55.44,-72.2 19.33,-2.5 14.35,94.5 15.05,129.8 0.69,35.3 -94.07,122.5 -127.47,197.7 -33.41,75.1 -142.42,-13.8 -142.42,-13.8"
         style="fill:#ffb27d;fill-opacity:1;fill-rule:nonzero;stroke:none"
         id="path136" />
      <path
         d="m 12049.3,9583.7 49.3,92.9 c 0,0 -24.5,165.6 183,270.4 0,0 75.8,30.8 118.6,-31 39.5,-57 -75.1,-46.7 -68.9,-144.1 6.1,-97.5 -40.2,-154.7 -104.6,-186.4 l -53.2,-61.7 -124.2,59.9"
         style="fill:#ffb27d;fill-opacity:1;fill-rule:nonzero;stroke:none"
         id="path138" />
      <path
         d="m 10088.5,9805.8 c 0,0 178.2,-874.5 1158.7,-1160.2 306.1,-89.2 1001.4,918.5 1001.4,918.5 0,0 -24.4,92.9 -177.6,71.5 0,0 -677,-448.2 -762.3,-496.9 -75.6,-43.2 -573,555.4 -799.8,652 -226.7,96.5 -420.4,15.1 -420.4,15.1"
         style="fill:#aa413e;fill-opacity:1;fill-rule:nonzero;stroke:none"
         id="path140" />
      <path
         d="m 11787.1,9838 27.8,-181 910.5,139.8 -27.8,181 -910.5,-139.8"
         style="fill:#aa413e;fill-opacity:1;fill-rule:nonzero;stroke:none"
         id="path142" />
      <path
         d="m 12923.2,9919.8 -197.8,-123 -27.8,181 z"
         style="fill:#ffb27d;fill-opacity:1;fill-rule:nonzero;stroke:none"
         id="path144" />
      <path
         d="m 11690.4,9761.7 8.8,-57.3 c 5.4,-35.2 38.4,-59.3 73.6,-53.9 l 42.1,6.5 -27.8,181 -45.8,-7.1 c -33.2,-5.1 -56,-36.1 -50.9,-69.2"
         style="fill:#ffb27d;fill-opacity:1;fill-rule:nonzero;stroke:none"
         id="path146" />
      <path
         d="m 8917.82,4308.2 c 0,0 -121.64,-111 -97.9,-189.9 23.74,-78.9 133.5,-131.5 148.34,-227.9 14.83,-96.4 74.17,-149 127.57,-149 53.41,0 254.61,0 254.61,0 0,0 39.31,67.9 -55.64,88.3 -94.93,20.5 -130.72,133.8 -124.8,238.9 5.94,105.2 -8.89,245.4 -8.89,245.4 l -201.75,46.8 -41.54,-52.6"
         style="fill:#233862;fill-opacity:1;fill-rule:nonzero;stroke:none"
         id="path148" />
      <path
         d="m 10410.2,4021.1 c 0,0 -21.9,-252.7 31.5,-279 l 683.5,1.4 c 0,0 0,78.9 -109.8,96.4 -109.8,17.6 -302.6,81.8 -335.2,225 -32.7,143.1 -270,-43.8 -270,-43.8"
         style="fill:#233862;fill-opacity:1;fill-rule:nonzero;stroke:none"
         id="path150" />
      <path
         d="m 10987.2,7589.8 c 0,0 -36.1,-442.8 -78.4,-975.2 -57.6,-723.1 -126.9,-1611.3 -133.7,-1779.6 -11.9,-292.2 -59.4,-759.6 -59.4,-759.6 0,0 -112.7,-111 -338.2,-64.2 0,0 -201,667.2 -258.4,1373.1 -0.9,11.6 -1.8,23.3 -2.7,34.9 -53.4,718.7 -136.42,2231.9 -136.42,2231.9 l 1007.22,-61.3"
         style="fill:#2b478b;fill-opacity:1;fill-rule:nonzero;stroke:none"
         id="path152" />
      <path
         d="m 10987.2,7589.8 c 0,0 -36.1,-442.8 -78.4,-975.2 l -789.7,-1230.3 c -0.9,11.6 -1.8,23.3 -2.7,34.9 -53.4,718.7 -136.42,2231.9 -136.42,2231.9 l 1007.22,-61.3"
         style="fill:#233862;fill-opacity:1;fill-rule:nonzero;stroke:none"
         id="path154" />
      <path
         d="m 10822.6,7537.2 c 0,0 -649.8,-1603.8 -1077.01,-2357.5 -427.24,-753.7 -560.75,-964.1 -560.75,-964.1 0,0 -244.77,96.5 -267.02,162.2 0,0 163.38,1455 449.49,1809.7 161.66,200.5 351.58,802 360.47,1012.3 8.9,210.3 57.85,626.6 57.85,626.6 l 1036.97,-289.2"
         style="fill:#2b478b;fill-opacity:1;fill-rule:nonzero;stroke:none"
         id="path156" />
      <path
         d="m 9967.68,10008.8 c 0,0 439.62,-212.1 693.12,-133.4 0,0 -62.4,78.7 -171.6,137.3 8.8,50.8 15.6,95 19.5,132.4 10.7,86.4 10.7,135.3 10.7,135.3 l -169.6,133.5 -160.8,127.6 c 12.6,-358.9 -221.32,-532.7 -221.32,-532.7"
         style="fill:#ffb27d;fill-opacity:1;fill-rule:nonzero;stroke:none"
         id="path158" />
      <path
         d="m 9736.01,7744.3 c -0.98,-26.9 56.53,-57.6 81.88,-69.1 188.11,-82.6 363.61,-140.2 562.41,-159.4 235,-24 512.8,28.8 608.3,26.9 9.7,0 18.5,3.8 26.3,10.6 6.8,4.8 11.7,287.9 6.8,644 0,14.4 0,28.8 -0.9,43.2 v 4.8 c -2,139.2 -6.8,285.1 -13.7,430.9 -13.6,320.6 -39,629.7 -81.9,800.6 -51.6,201.5 -168.6,334.9 -274.8,431.9 l -87.8,76.8 c -87.7,-17.3 -180.3,-12.5 -272.9,32.6 -101.4,49 -210.6,101.7 -228.1,88.3 -132.59,-96.9 -222.26,-314.8 -270.03,-593.2 -27.3,-160.3 -40.95,-339.8 -39.97,-527.9 0,-69.1 1.95,-140.1 5.86,-210.2 23.38,-380.1 0,-710.2 -13.66,-901.2 -3.9,-55.7 -6.82,-98.9 -7.79,-129.6"
         style="fill:#c65447;fill-opacity:1;fill-rule:nonzero;stroke:none"
         id="path160" />
      <path
         d="m 9743.8,7761.7 c 1539.5,3.1 283.9,1670.5 283.9,1670.5 l -249.37,81 c -19.73,-171.2 -29.59,-363 -28.9,-564 0,-73.8 1.41,-149.7 4.24,-224.6 16.9,-406 0,-758.8 -9.87,-962.9"
         style="fill:#aa413e;fill-opacity:1;fill-rule:nonzero;stroke:none"
         id="path162" />
      <path
         d="m 10186,10404.3 c 0,0 111.2,-202.5 322.7,-259.2 10.7,86.4 10.7,135.3 10.7,135.3 l -169.6,133.5 -163.8,-9.6"
         style="fill:#ed985f;fill-opacity:1;fill-rule:nonzero;stroke:none"
         id="path164" />
      <path
         d="m 10596.7,10286.3 c 0,0 -419.3,-68.6 -458.7,189.2 -39.4,257.8 -120,422.6 146.1,477.3 266.1,54.7 333.3,-35.9 367.7,-118.8 34.3,-82.9 53,-523.2 -55.1,-547.7"
         style="fill:#ffb27d;fill-opacity:1;fill-rule:nonzero;stroke:none"
         id="path166" />
      <path
         d="m 9985.56,10983.7 c -3.81,4.4 -12.59,7.9 -32.13,9 0,0 15.62,9.7 36.5,10.2 4.1,27.2 18.57,75.3 65.27,87 0,0 -25.1,-13.4 -28.4,-42.3 54.2,55.6 170.3,96.1 491.7,70.8 423.6,-33.5 284,-304.7 229.1,-337 -54.8,-32.3 -192.8,56.3 -295,48.2 -102.2,-8.1 -121.6,-155.8 -156.3,-176 -34.6,-20.3 -21,15.5 -67.9,36.7 -46.9,21.2 -51.4,-56.5 -37.8,-107 13.5,-50.5 -50.9,-117.2 -50.9,-117.2 0,0 0,0 -65.1,70.2 -65.1,70.1 -126.51,367.1 -96.91,430.4 2.61,5.6 5.2,11.3 7.87,17"
         style="fill:#2c3a64;fill-opacity:1;fill-rule:nonzero;stroke:none"
         id="path168" />
      <path
         d="m 10061.8,10108.5 c 0,0 -265.39,-125.6 -392.61,-318.8 -197.35,-299.6 -426.11,-1391.7 -430.33,-1492.8 -4.23,-101.1 166.97,-815.1 166.97,-815.1 0,0 173.62,11.5 218.41,99.1 0,0 -34.69,733.6 -12.72,780.7 21.99,47.2 723.88,984 644.88,1183.9 -78.9,199.9 -194.6,563 -194.6,563"
         style="fill:#c65447;fill-opacity:1;fill-rule:nonzero;stroke:none"
         id="path170" />
      <path
         d="m 12099.5,9681 c 0,0 -14.5,57 25.1,82.6 39.5,25.7 75.9,95.3 92.6,85.9 34.5,-19.5 -18.9,-80.3 -9.2,-156.2 3.5,-26.5 -58.4,-96.1 -108.5,-12.3"
         style="fill:#ffb27d;fill-opacity:1;fill-rule:nonzero;stroke:none"
         id="path172" />
      <path
         d="M 26794.4,3707 H 3205.64 c -12.65,0 -23,10.3 -23,23 v 4.3 c 0,12.6 10.35,23 23,23 H 26794.4 c 12.6,0 23,-10.4 23,-23 v -4.3 c 0,-12.7 -10.4,-23 -23,-23"
         style="fill:#1c468a;fill-opacity:1;fill-rule:nonzero;stroke:none"
         id="path174" />
    </g>
  </g>
</svg>
