<?xml version="1.0" encoding="UTF-8" standalone="no"?>
<!-- Created with Inkscape (http://www.inkscape.org/) -->

<svg
   version="1.1"
   id="svg2"
   width="3697.6667"
   height="2666.6667"
   viewBox="0 0 3697.6667 2666.6667"
   sodipodi:docname="IST_37322_04815.eps"
   xmlns:inkscape="http://www.inkscape.org/namespaces/inkscape"
   xmlns:sodipodi="http://sodipodi.sourceforge.net/DTD/sodipodi-0.dtd"
   xmlns="http://www.w3.org/2000/svg"
   xmlns:svg="http://www.w3.org/2000/svg">
  <defs
     id="defs6">
    <clipPath
       clipPathUnits="userSpaceOnUse"
       id="clipPath20">
      <path
         d="m 19155.2,2187.9 h -6480 c -349.4,0 -632.7,283.2 -632.7,632.7 v 9655 c 0,349.4 283.3,632.7 632.7,632.7 h 6480 c 349.4,0 632.7,-283.3 632.7,-632.7 v -9655 c 0,-349.5 -283.3,-632.7 -632.7,-632.7 m -6667.1,10423.3 v -9464 h 6854.2 v 9464 h -6854.2"
         id="path18" />
    </clipPath>
    <linearGradient
       x1="0"
       y1="0"
       x2="1"
       y2="0"
       gradientUnits="userSpaceOnUse"
       gradientTransform="matrix(-9760.53,8.533e-4,8.533e-4,9760.53,21186.1,7648.1)"
       spreadMethod="pad"
       id="linearGradient26">
      <stop
         style="stop-opacity:1;stop-color:#ff9f55"
         offset="0"
         id="stop22" />
      <stop
         style="stop-opacity:1;stop-color:#ffd255"
         offset="1"
         id="stop24" />
    </linearGradient>
  </defs>
  <sodipodi:namedview
     id="namedview4"
     pagecolor="#ffffff"
     bordercolor="#000000"
     borderopacity="0.25"
     inkscape:showpageshadow="2"
     inkscape:pageopacity="0.0"
     inkscape:pagecheckerboard="0"
     inkscape:deskcolor="#d1d1d1" />
  <g
     id="g8"
     inkscape:groupmode="layer"
     inkscape:label="ink_ext_XXXXXX"
     transform="matrix(1.3333333,0,0,-1.3333333,0,2666.6667)">
    <g
       id="g10"
       transform="scale(0.1)">
      <path
         d="M 0,0 H 27732.5 V 20000 H 0 Z"
         style="fill:#fcfcfc;fill-opacity:1;fill-rule:nonzero;stroke:none"
         id="path12" />
      <g
         id="g14">
        <g
           id="g16"
           clip-path="url(#clipPath20)">
          <path
             d="m 19155.2,2187.9 h -6480 c -349.4,0 -632.7,283.2 -632.7,632.7 v 9655 c 0,349.4 283.3,632.7 632.7,632.7 h 6480 c 349.4,0 632.7,-283.3 632.7,-632.7 v -9655 c 0,-349.5 -283.3,-632.7 -632.7,-632.7 m -6667.1,10423.3 v -9464 h 6854.2 v 9464 h -6854.2"
             style="fill:url(#linearGradient26);fill-opacity:1;fill-rule:nonzero;stroke:none"
             id="path28" />
        </g>
      </g>
      <path
         d="m 12488.1,3147.2 h 6854.2 v 9464.04 h -6854.2 z"
         style="fill:#e8e8e8;fill-opacity:1;fill-rule:nonzero;stroke:none"
         id="path30" />
      <path
         d="m 8873.07,11915.6 440.39,196.2 189.79,-355.2 -387.72,-172.7 z m -17.03,1052.2 189.78,-355.1 -514.69,-229.3 -242.47,331.7 z m 1454.06,-321.9 -451.16,-200.9 -137.1,378.6 503.86,224.5 82.8,-394.1 z m -423.04,-278.6 440.44,196.2 84.4,-402.1 -387.7,-172.7 z m -66.26,-29.5 137.1,-378.6 -388.39,-173.1 -189.78,355.2 z m -264.18,942.1 567.38,252.8 84.4,-402.1 -514.68,-229.3 z m 70.84,-408.1 -515.38,-229.6 -189.78,355.2 568.05,253 z m -352.92,-687.2 -451.21,-200.9 -242.47,331.7 503.89,224.4 z m -123.53,384.7 504.57,224.8 137.1,-378.6 -451.88,-201.3 z M 10497.7,11751 c 20,-45 -0.3,-97.8 -45.2,-117.9 -45,-20 -97.8,0.3 -117.8,45.2 -20.1,45 0.2,97.8 45.2,117.9 44.9,20 97.8,-0.3 117.8,-45.2 z m -890.09,-396.6 c 20.02,-44.9 -0.26,-97.8 -45.2,-117.8 -44.95,-20 -97.81,0.3 -117.83,45.2 -20.02,45 0.25,97.8 45.2,117.9 44.95,20 97.81,-0.3 117.83,-45.3 z m 436.89,2630.4 72.4,-365.1 -1929.38,-859.5 33.52,-75.2 851.75,-1165.2 16.76,-37.7 157.25,70.1 114.33,-149.1 57.48,25.6 c -44.99,-43.9 -60.54,-112.7 -33.52,-173.4 34.64,-77.7 126.07,-112.8 203.82,-78.2 77.75,34.7 112.82,126.1 78.18,203.8 -27.01,60.7 -88.6,95.2 -151.28,91.1 l 792.89,353.2 c -45,-43.9 -60.5,-112.7 -33.5,-173.4 34.6,-77.7 126,-112.8 203.8,-78.2 77.7,34.7 112.8,126.1 78.2,203.9 -27,60.6 -88.6,95.1 -151.3,91 l 62.7,27.9 -26.5,59.5 -1060.55,-472.4 -73.59,95.9 1196.94,533.2 -16.8,37.7 -242.7,1156.2 -126.9,640 809,360.4 -26.5,59.5 -856.5,-381.6"
         style="fill:#ffca55;fill-opacity:1;fill-rule:nonzero;stroke:none"
         id="path32" />
      <path
         d="m 22447.9,12453.1 c -333.7,269.9 -824.8,218 -1094.7,-115.8 -269.9,-333.7 -218,-824.8 115.7,-1094.7 333.8,-269.9 824.8,-217.9 1094.7,115.8 269.9,333.7 218,824.8 -115.7,1094.7 z m -1096.4,-1355.7 c -413.8,334.7 -478.2,943.6 -143.6,1357.4 334.7,413.8 943.7,478.2 1357.5,143.5 413.8,-334.6 478.2,-943.6 143.5,-1357.4 -334.7,-413.8 -943.6,-478.2 -1357.4,-143.5"
         style="fill:#ffca55;fill-opacity:1;fill-rule:nonzero;stroke:none"
         id="path34" />
      <path
         d="m 21671.7,11591.2 -65.2,616.7 185.7,19.6 45.6,-430.9 604.1,63.9 19.6,-185.8 -789.8,-83.5"
         style="fill:#ffca55;fill-opacity:1;fill-rule:nonzero;stroke:none"
         id="path36" />
      <path
         d="m 14902,4062.8 h -1259.7 c -80,0 -144.9,64.9 -144.9,144.9 v 344.6 c 0,80.1 64.9,145 144.9,145 h 138.2 c 145.2,-135.3 304.6,-254.9 476.2,-356.6 200.2,-118.6 416.7,-212.7 645.3,-277.9 m 758.8,347.1 c -11,0 -22,0 -32.9,0.4 -392.5,5.4 -760.8,109 -1082.2,287 h 1084.1 c 80.1,0 145,-64.9 145,-145 v -139.6 c -37.8,-1.9 -75.8,-2.8 -114,-2.8"
         style="fill:#f9f9f9;fill-opacity:1;fill-rule:nonzero;stroke:none"
         id="path38" />
      <path
         d="m 18188,4062.8 h -1654.6 c -22.8,0 -44.4,5.2 -63.6,14.6 343.3,105.2 658.1,275.6 930,496.9 48.7,39.2 95.9,80.3 141.5,123 h 646.7 c 80.1,0 145,-64.9 145,-145 v -344.6 c 0,-80 -64.9,-144.9 -145,-144.9 m -1799.6,464.3 v 25.2 c 0,80.1 65,145 145,145 h 242.9 c -122.8,-68.1 -252.5,-125.2 -387.9,-170.2"
         style="fill:#f9f9f9;fill-opacity:1;fill-rule:nonzero;stroke:none"
         id="path40" />
      <path
         d="m 17919,10508.5 h -3029.8 c -53.1,0 -96.2,43.1 -96.2,96.2 v 96.9 c 0,53.1 43.1,96.1 96.2,96.1 H 17919 c 53.1,0 96.1,-43 96.1,-96.1 v -96.9 c 0,-53.1 -43,-96.2 -96.1,-96.2"
         style="fill:#f9f9f9;fill-opacity:1;fill-rule:nonzero;stroke:none"
         id="path42" />
      <path
         d="m 18368.2,10040.9 h -3479 c -53.1,0 -96.2,43.1 -96.2,96.2 v 96.9 c 0,53.1 43.1,96.1 96.2,96.1 h 3479 c 53.1,0 96.1,-43 96.1,-96.1 v -96.9 c 0,-53.1 -43,-96.2 -96.1,-96.2"
         style="fill:#f9f9f9;fill-opacity:1;fill-rule:nonzero;stroke:none"
         id="path44" />
      <path
         d="m 13551.4,9953.7 h 561.5 c 102.1,0 184.9,82.8 184.9,184.9 v 561.4 c 0,102.1 -82.8,184.9 -184.9,184.9 h -561.5 c -102.1,0 -184.8,-82.8 -184.8,-184.9 v -561.4 c 0,-102.1 82.7,-184.9 184.8,-184.9"
         style="fill:#ffffff;fill-opacity:1;fill-rule:nonzero;stroke:none"
         id="path46" />
      <path
         d="m 13800.4,10194.3 -258.4,224.5 c -21.2,18.4 -23.5,50.5 -5.1,71.7 18.4,21.2 50.5,23.4 71.7,5 l 182.8,-158.7 259.7,290.6 c 18.7,21 50.8,22.8 71.8,4.1 20.9,-18.7 22.7,-50.9 4,-71.8 l -326.5,-365.4"
         style="fill:#e8734d;fill-opacity:1;fill-rule:nonzero;stroke:none"
         id="path48" />
      <path
         d="m 17131.5,9188 h -245.1 c -253.6,125.9 -529.3,214 -819.8,256.7 -83.9,12.2 -168.5,21.1 -254.4,25.6 -50,2.9 -100.5,4.1 -151.4,4.1 -59.8,0 -119.6,-1.6 -179.1,-5.7 -25.6,-1.6 -51.6,-3.7 -77.3,-6.1 -28.5,-2.5 -57,-5.7 -85.4,-9 -26.1,-3.2 -51.7,-6.9 -77.4,-11 -154.1,-23.4 -304,-59.7 -448.6,-107.5 v 58.7 c 0,46 37.3,83.4 83.4,83.4 h 2255.1 c 46,0 83.3,-37.4 83.3,-83.4 v -122.5 c 0,-46 -37.3,-83.3 -83.3,-83.3"
         style="fill:#f9f9f9;fill-opacity:1;fill-rule:nonzero;stroke:none"
         id="path50" />
      <path
         d="m 17685.2,8720.4 h -129.1 c -112.2,106.1 -233.4,203 -362.1,289.2 h 491.2 c 47.8,0 86.6,-38.8 86.6,-86.6 v -116 c 0,-47.8 -38.8,-86.6 -86.6,-86.6 m -2610.7,225.9 c 1.8,0.5 3.6,1 5.5,1.4 -1.8,-0.5 -3.6,-0.9 -5.5,-1.4 m 108,25.5 c 17.4,3.8 34.8,7.3 52.2,10.5 2.1,0.5 4.5,0.9 6.9,1.3 4,0.7 7.9,1.3 11.8,2 -23.7,-4.2 -47.4,-8.8 -70.9,-13.8 m 144.6,25.7 c 5.8,0.9 11.5,1.8 17.3,2.5 -5.8,-0.8 -11.6,-1.6 -17.3,-2.5 m 62.2,8.2 c 5.1,0.6 10.1,1.2 15.1,1.9 6.4,0.7 12.7,1.4 19.1,2 h 1.6 c -12,-1.2 -23.9,-2.5 -35.8,-3.9"
         style="fill:#f9f9f9;fill-opacity:1;fill-rule:nonzero;stroke:none"
         id="path52" />
      <path
         d="m 13551.4,8633.2 h 561.5 c 102.1,0 184.9,82.8 184.9,184.9 v 561.4 c 0,102.1 -82.8,184.9 -184.9,184.9 h -561.5 c -102.1,0 -184.8,-82.8 -184.8,-184.9 v -561.4 c 0,-102.1 82.7,-184.9 184.8,-184.9"
         style="fill:#ffffff;fill-opacity:1;fill-rule:nonzero;stroke:none"
         id="path54" />
      <path
         d="m 13800.4,8873.8 -258.4,224.5 c -21.2,18.4 -23.5,50.5 -5.1,71.7 18.4,21.2 50.5,23.4 71.7,5 l 182.8,-158.8 259.7,290.7 c 18.7,20.9 50.8,22.7 71.8,4 20.9,-18.7 22.7,-50.8 4,-71.7 l -326.5,-365.4"
         style="fill:#e8734d;fill-opacity:1;fill-rule:nonzero;stroke:none"
         id="path56" />
      <path
         d="m 18206.3,7867.4 h -37.8 c -46,99.9 -97.7,196.4 -154.8,289.2 h 192.6 c 55.5,0 100.4,-44.9 100.4,-100.4 v -88.4 c 0,-55.4 -44.9,-100.4 -100.4,-100.4 m -1851.3,0 h -1461.6 c -55.4,0 -100.4,45 -100.4,100.4 v 88.4 c 0,55.5 45,100.4 100.4,100.4 h 927.1 c 178.7,-75.1 359.2,-169.9 534.5,-289.2 m 1259.1,74.3 c -7.1,11.3 -14.3,22.5 -21.6,33.7 4.3,-6.6 8.6,-13.3 12.9,-19.9 2.9,-4.6 5.8,-9.2 8.7,-13.8"
         style="fill:#f9f9f9;fill-opacity:1;fill-rule:nonzero;stroke:none"
         id="path58" />
      <path
         d="m 17863.5,7399.9 v 0 c -23.6,75.9 -51,150.3 -82,222.7 31,-72.4 58.4,-146.7 82,-222.7 m -976.2,0 h -2004.2 c -49.8,0 -90.1,40.3 -90.1,90 V 7599 c 0,49.7 40.3,90.1 90.1,90.1 h 1707.3 c 102.5,-86.3 201.8,-182.3 296.9,-289.2 m 894,223.3 c -0.4,0.7 -0.7,1.4 -1,2.2 0.3,-0.7 0.6,-1.5 1,-2.2"
         style="fill:#f9f9f9;fill-opacity:1;fill-rule:nonzero;stroke:none"
         id="path60" />
      <path
         d="m 13551.4,7312.7 h 561.5 c 102.1,0 184.9,82.7 184.9,184.8 V 8059 c 0,102.1 -82.8,184.9 -184.9,184.9 h -561.5 c -102.1,0 -184.8,-82.8 -184.8,-184.9 v -561.5 c 0,-102.1 82.7,-184.8 184.8,-184.8"
         style="fill:#ffffff;fill-opacity:1;fill-rule:nonzero;stroke:none"
         id="path62" />
      <path
         d="m 13800.4,7553.2 -258.4,224.5 c -21.2,18.5 -23.5,50.6 -5.1,71.7 18.4,21.2 50.5,23.5 71.7,5.1 l 182.8,-158.8 259.7,290.7 c 18.7,20.9 50.8,22.7 71.8,4 20.9,-18.7 22.7,-50.8 4,-71.8 l -326.5,-365.4"
         style="fill:#e8734d;fill-opacity:1;fill-rule:nonzero;stroke:none"
         id="path64" />
      <path
         d="m 17131.5,6546.9 h -2255.1 c -46.1,0 -83.4,37.3 -83.4,83.4 v 122.5 c 0,46 37.3,83.3 83.4,83.3 h 2255.1 c 46,0 83.3,-37.3 83.3,-83.3 v -122.5 c 0,-46.1 -37.3,-83.4 -83.3,-83.4"
         style="fill:#f9f9f9;fill-opacity:1;fill-rule:nonzero;stroke:none"
         id="path66" />
      <path
         d="m 16437.8,6079.3 h -1579.2 c -36.2,0 -65.6,29.4 -65.6,65.7 v 157.9 c 0,36.3 29.4,65.6 65.6,65.6 h 1579.2 c 36.2,0 65.6,-29.3 65.6,-65.6 V 6145 c 0,-36.3 -29.4,-65.7 -65.6,-65.7"
         style="fill:#f9f9f9;fill-opacity:1;fill-rule:nonzero;stroke:none"
         id="path68" />
      <path
         d="m 13408.2,5648.2 h 737.6 c 134.2,0 242.9,108.7 242.9,242.9 v 737.6 c 0,134.1 -108.7,242.8 -242.9,242.8 h -737.6 c -134.1,0 -242.9,-108.7 -242.9,-242.8 v -737.6 c 0,-134.2 108.8,-242.9 242.9,-242.9"
         style="fill:#ffffff;fill-opacity:1;fill-rule:nonzero;stroke:none"
         id="path70" />
      <path
         d="m 13735.2,5964.2 -339.4,295 c -27.9,24.2 -30.8,66.4 -6.7,94.2 24.2,27.8 66.4,30.8 94.2,6.6 l 240.1,-208.6 341.2,381.9 c 24.6,27.5 66.8,29.8 94.3,5.3 27.5,-24.6 29.9,-66.8 5.3,-94.3 l -429,-480.1"
         style="fill:#e8734d;fill-opacity:1;fill-rule:nonzero;stroke:none"
         id="path72" />
      <path
         d="m 15034.9,11451.6 h -1517.8 c -83.2,0 -150.5,67.4 -150.5,150.5 v 347.2 c 0,83.1 67.3,150.4 150.5,150.4 h 1517.8 c 83.1,0 150.5,-67.3 150.5,-150.4 v -347.2 c 0,-83.1 -67.4,-150.5 -150.5,-150.5"
         style="fill:#ffffff;fill-opacity:1;fill-rule:nonzero;stroke:none"
         id="path74" />
      <path
         d="m 18313.8,11451.6 h -2569.3 c -83.1,0 -150.5,67.4 -150.5,150.5 v 347.2 c 0,83.1 67.4,150.4 150.5,150.4 h 2569.3 c 83.1,0 150.5,-67.3 150.5,-150.4 v -347.2 c 0,-83.1 -67.4,-150.5 -150.5,-150.5"
         style="fill:#ffffff;fill-opacity:1;fill-rule:nonzero;stroke:none"
         id="path76" />
      <path
         d="m 10133.5,6909.4 c 0,0 286.9,649.9 -46,596 0,0 -113.24,-93.6 -229.51,-284.4 -88.07,-144.5 -271.17,-527 -264.39,-656.4 6.78,-129.3 98.79,-225.8 198.15,-433.6 0,0 206.55,-385.6 215.25,-432 l 218.3,113.3 c 0,0 -185,368.7 -315.37,692.8 l 223.57,404.3"
         style="fill:#ffc855;fill-opacity:1;fill-rule:nonzero;stroke:none"
         id="path78" />
      <path
         d="m 8453.05,4960.8 4395.25,748.4 -127.2,747.2 -4395.29,-748.4 127.24,-747.2"
         style="fill:#e8734d;fill-opacity:1;fill-rule:nonzero;stroke:none"
         id="path80" />
      <path
         d="m 12833,5799.2 234.8,40 -96.6,567.2 -234.8,-40 96.6,-567.2"
         style="fill:#2d3038;fill-opacity:1;fill-rule:nonzero;stroke:none"
         id="path82" />
      <path
         d="m 11794,1403.6 h 54.1 c 0,0 -18,204.5 32.1,206.5 50.1,2 174.3,-166.4 248.5,-192.4 74.1,-26.1 454.9,-48.1 456.9,22 2,70.1 -146.3,98.2 -192.4,118.2 -46.1,20.1 -270.5,238.6 -310.6,264.6 -40.1,26.1 -108.5,207.2 -108.5,207.2 l -212.6,9.4 c 0,0 -12,-169.3 -24.8,-258.9 -4.8,-33.2 -8.3,-63.4 -8.8,-84 -2,-76.1 66.1,-292.6 66.1,-292.6"
         style="fill:#eea886;fill-opacity:1;fill-rule:nonzero;stroke:none"
         id="path84" />
      <path
         d="m 10424.6,1444.1 h 45.1 v 190.2 c 37.6,-3.1 163.9,-122.6 203,-157.2 39,-34.6 92.6,-33 257.3,-43.5 164.5,-10.5 180.1,88.1 154,121.6 -26,33.5 -110.2,48.2 -154,69.2 -43.9,20.9 -216.8,215.9 -262.9,262 -46,46.1 -74.1,178.2 -74.1,178.2 l -192.4,-16.8 c 0,0 1.2,-120.8 -20.7,-222.2 v 0 l -0.2,-0.8 c -1.9,-8.6 -3.9,-17.1 -6.2,-25.4 -28.5,-105.3 51.1,-355.3 51.1,-355.3"
         style="fill:#eea886;fill-opacity:1;fill-rule:nonzero;stroke:none"
         id="path86" />
      <path
         d="m 11136,5756.9 c 0,0 72.7,-172 79.1,-215.4 6.5,-43.4 176.7,-454.9 225.9,-732.3 29.5,-166.1 110.8,-685.9 117.4,-752 11.3,-113.1 64.6,-362.8 72.8,-478.3 4.6,-64.6 322.7,-1056 399.7,-1573.6 0,0 -183,-27.1 -320.4,9.3 0,0 -279.3,534.9 -434.3,1293.7 -93.4,457 -176,700.6 -248.4,888.9 -72.3,188.2 -482.1,721.2 -524.9,781.1 -42.8,59.9 -310.8,390.9 -57,749.4 253.8,358.5 690.1,29.2 690.1,29.2"
         style="fill:#1d3b54;fill-opacity:1;fill-rule:nonzero;stroke:none"
         id="path88" />
      <path
         d="m 10219.9,4233.9 c 23.2,-154.4 -1.2,-357.1 -49.6,-921.5 -48.6,-564.4 84.8,-1247.8 84.8,-1247.8 167.5,-57.3 360.5,0 360.5,0 -4.5,39.7 0,1375.7 0,1494.7 0,119.1 34.1,254.2 42.9,390.8 6.1,93.1 49.4,264.8 98.1,440.1 14.6,52.5 29.7,105.3 44.4,156.4 v 0.1 c 8.3,28.6 16.3,56.8 24.2,84 68.7,238.1 161,1157.5 161,1157.5 0,0 -511.7,412.2 -760.9,24.1 -249.09,-387.9 -121.2,-670.1 -112.4,-718.6 8.8,-48.5 83.8,-705.5 107,-859.8"
         style="fill:#1d3b54;fill-opacity:1;fill-rule:nonzero;stroke:none"
         id="path90" />
      <path
         d="m 10432.1,5063.1 c 4,-8.8 258.9,-574.8 324.5,-672.9 14.6,52.5 34.4,121.5 49.1,172.6 0,0 -365.1,487.8 -373.6,500.3"
         style="fill:#122536;fill-opacity:1;fill-rule:nonzero;stroke:none"
         id="path92" />
      <path
         d="m 10424.6,1444.1 h 45.1 v 190.2 c 37.6,-3.1 163.9,-122.6 203,-157.2 39,-34.6 92.6,-33 257.3,-43.5 164.5,-10.5 180.1,88.1 154,121.6 -26,33.5 -110.2,48.2 -154,69.2 -176.1,-9.5 -391,238.1 -494.1,237.6 -54.8,-0.3 -54.3,-30.6 -56,-36.4 v 0 l -0.2,-0.8 c -1.9,-8.6 -3.9,-17.1 -6.2,-25.4 -28.5,-105.3 51.1,-355.3 51.1,-355.3"
         style="fill:#172f42;fill-opacity:1;fill-rule:nonzero;stroke:none"
         id="path94" />
      <path
         d="m 11794,1403.6 h 54.1 c 0,0 -18,204.5 32.1,206.5 50.1,2 174.3,-166.4 248.5,-192.4 74.1,-26.1 454.9,-48.1 456.9,22 2,70.1 -146.3,98.2 -192.4,118.2 -157,0.4 -412.4,173.3 -491.6,208.3 -79.2,35 -164.9,14 -164.9,14 -4.8,-33.2 -8.3,-63.4 -8.8,-84 -2,-76.1 66.1,-292.6 66.1,-292.6"
         style="fill:#172f42;fill-opacity:1;fill-rule:nonzero;stroke:none"
         id="path96" />
      <path
         d="m 10684.2,7915.1 c 0,0 -81.6,-216 -18.1,-383 0,0 -299.4,19.5 -310.7,54.4 -11.4,35 12,358.7 -29.2,454.3 -41.2,95.7 358,-125.7 358,-125.7"
         style="fill:#eea886;fill-opacity:1;fill-rule:nonzero;stroke:none"
         id="path98" />
      <path
         d="m 10713.1,7605.2 c 0,0 177,-62.9 256.9,-80.4 80,-17.5 247.2,-96.7 233.6,-395 -13.6,-298.3 -63.5,-556.9 -81.6,-685.1 -18.2,-128.1 -6.8,-454.4 22.6,-612.8 0,0 -424.1,-107.2 -923.1,0 0,0 88.5,270.3 86.2,340.2 -2.2,69.9 -294.8,645.5 -308.43,736.4 -13.61,90.8 -72.58,491.6 61.23,580.2 133.8,88.5 242.7,76.9 299.4,116.5 56.7,39.6 270.5,28.4 353.2,0"
         style="fill:#ffc855;fill-opacity:1;fill-rule:nonzero;stroke:none"
         id="path100" />
      <path
         d="m 10030.5,5363.2 c 724.6,-192.3 1301.3,-0.8 1301.3,-0.8 -52.6,108.1 -91.3,215.9 -119.3,320.3 v 0.1 c -19.9,73.8 -34.3,145.8 -44.7,215 v 0 c -58.9,394.8 17.9,697.1 17.9,697.1 -83.6,688.3 -1125.2,893.8 -1208.61,675.6 -83.42,-218.2 161.71,-1156 174.11,-1236.4 12.4,-80.3 -120.7,-670.9 -120.7,-670.9"
         style="fill:#ffc855;fill-opacity:1;fill-rule:nonzero;stroke:none"
         id="path102" />
      <path
         d="m 10423.3,8781.8 c 120.3,41.3 445.7,85.3 529,-414.1 83.3,-499.4 -98.2,-508 -284.7,-493.8 -186.4,14.2 -478.1,351.3 -500.5,453.8 -22.3,102.4 -87.2,336.3 256.2,454.1"
         style="fill:#eea886;fill-opacity:1;fill-rule:nonzero;stroke:none"
         id="path104" />
      <path
         d="m 10885.3,8590 c 0,0 -99.4,-212.6 -229.8,-286.7 0,0 -81.6,-225.9 -258.5,-317.2 0,0 -469.24,310.8 -196.9,680.3 272.3,369.4 654.4,75.2 685.2,-76.4"
         style="fill:#fccca2;fill-opacity:1;fill-rule:nonzero;stroke:none"
         id="path106" />
      <path
         d="m 10216,8609.3 c -10.3,16 -321.06,159.8 -385.7,-140.8 -64.64,-300.6 250.3,-650.1 305.4,-800.4 55.2,-150.3 -24.9,-502.6 -24.9,-502.6 0,0 189.5,179.1 246.8,366.6 63,205.9 84.1,725.1 -141.6,1077.2"
         style="fill:#fccca2;fill-opacity:1;fill-rule:nonzero;stroke:none"
         id="path108" />
      <path
         d="m 10200.3,8619.5 c 0,0 95.1,-75.2 107.4,-194 0,0 17.8,92.6 -20.5,149.3 -38.4,56.6 -86.9,44.7 -86.9,44.7"
         style="fill:#e54242;fill-opacity:1;fill-rule:nonzero;stroke:none"
         id="path110" />
      <path
         d="m 11212.5,5682.8 c -19.9,73.8 -43.1,212.1 -53.4,281.2 0,0 -39,35.4 -55.1,83.9 -16.2,48.6 -136.1,645.3 -136.1,645.3 0,0 -126.9,-560.4 244.6,-1010.4"
         style="fill:#b58e3c;fill-opacity:1;fill-rule:nonzero;stroke:none"
         id="path112" />
      <path
         d="m 11745.9,5648.2 c 0,0 93.4,-92.8 123.6,-102.1 30.2,-9.4 88.5,42.1 303.1,58 18.8,1.4 51.9,-15.6 44.1,-40.5 -7.8,-24.8 -101.2,-92.5 -141.1,-102.9 -40,-10.3 -228.6,-85.2 -320.5,-48.5 -91.9,36.8 -154.4,153.7 -154.4,153.7 l 145.2,82.3"
         style="fill:#eea886;fill-opacity:1;fill-rule:nonzero;stroke:none"
         id="path114" />
      <path
         d="m 11020,7508.4 c 0,0 248.2,-98.3 262.9,-443.2 14.7,-344.9 28.1,-524.9 41.6,-578.1 13.5,-53.2 39.2,-267.2 101.7,-395.9 60.5,-124.9 458.2,-520.2 458.2,-520.2 l -192.5,-181 c 0,0 -554.3,556.2 -587.9,657.9 -33.7,101.7 -172.3,809.4 -183.3,928.7 -8.9,96.2 -135.7,524.7 99.3,531.8"
         style="fill:#ffc855;fill-opacity:1;fill-rule:nonzero;stroke:none"
         id="path116" />
      <path
         d="m 17789.7,5828.6 c -5.3,-13.4 -10.9,-26.4 -16.6,-39.4 l -6.6,-14.7 c -6.9,-15 -13.4,-29.7 -20.7,-44.4 l -17.9,-37.4 c -9.8,-19.5 -20,-39.1 -30.1,-58.6 -201.5,-378.9 -505.5,-694.7 -875.1,-910.4 -341,-199.4 -738.2,-313.8 -1161.9,-313.8 -11,0 -22,0 -32.9,0.4 -411.5,5.7 -796.5,119.3 -1128.6,313.4 -84.3,49.2 -165.2,103.8 -242.6,163.2 -325.1,249.9 -581.5,584.4 -736.2,970.6 -23.2,57 -43.9,115.6 -62.3,175 -23.2,74.5 -42.7,151 -58.2,228.8 -14.2,71.2 -25.2,143.2 -32.5,216.5 -2.9,25.6 -4.9,51.3 -6.9,77.3 -0.9,11.8 -1.7,23.6 -2.1,35.4 -1.6,26.1 -2.4,51.7 -2.8,77.8 -0.4,15.8 -0.4,31.7 -0.4,47.6 0,675.5 290.6,1283.6 753.7,1705.2 19.5,17.9 39.1,35 59.4,52.1 19.6,16.7 39.5,33 59.4,48.8 22.4,18 45.2,35.5 68.8,52.1 18.7,14.3 37.5,27.7 56.6,40.7 44.8,31 90.3,60.3 137.5,88 22.8,13.4 45.6,26.4 69.2,39 20.4,11.4 41.1,22.4 62.3,33 18.7,9.3 37.4,18.7 56.6,27.3 12.6,6.5 25.6,12.2 38.6,17.9 16.3,7.3 32.2,14.2 48.5,21.1 10.5,4.5 21.1,9 31.7,13 38.7,15.9 78.1,30.6 118,44 9,3.3 18.3,6.5 27.7,9.4 19.9,6.5 39.9,13 60.2,18.7 21.2,6.5 42.4,12.2 63.5,17.9 7.8,2.4 15.9,4.5 24,6.1 18.4,4.9 36.7,9.3 55.4,13.4 8.1,2.1 16.7,4.1 24.8,5.7 1.2,0.4 2.5,0.4 3.7,0.8 19.9,4.5 39.9,8.6 59.8,12.2 2.1,0.5 4.5,0.9 6.9,1.3 25.7,4.4 51.3,8.9 77.4,12.6 11.8,2 23.2,3.6 34.9,4.9 10.2,1.6 20.8,2.8 31,4 6.5,0.9 13,1.7 19.5,2.5 25.7,2.8 51.7,5.3 77.3,6.9 4.1,0.4 8.2,0.8 12.7,0.8 15.4,1.2 30.9,2.4 46.3,3.3 21.6,0.8 42.8,1.6 64.4,2 18.7,0.8 37,0.8 55.7,0.8 62.3,0 123.7,-2.4 184.8,-7.7 190.9,-14.7 375.2,-52.9 549.8,-111.9 31.4,-10.2 62.7,-21.6 93.2,-33.4 96.5,-37 190.1,-80.6 280,-130.2 340.3,-186.4 628.4,-456.7 836.8,-782.7 178.2,-279.2 298.3,-599 342.3,-942.9 l 0.4,-1.7 v -0.8 c 0.4,-1.2 0.4,-2.8 0.4,-4.5 v -1.2 -0.4 l 0.4,-1.2 c 1.2,-7.3 2,-14.7 2.4,-22 8.6,-69.6 13.4,-140 14.7,-211.6 0.8,-17.5 0.8,-35.4 0.8,-53.3 0,-19.2 -0.4,-38.3 -0.8,-57.4 0,-5.3 0,-10.6 -0.5,-15.5 v -6.5 c -0.8,-22 -2,-43.9 -3.2,-65.9 -0.4,-5.3 -0.8,-10.2 -0.8,-15.5 v -0.4 c -1.2,-16.3 -2.4,-32.6 -4.1,-48.4 -4.5,-47.2 -9.7,-94 -17.1,-140.4 -4,-26.5 -8.5,-52.9 -13.4,-79 -1.6,-8.5 -3.3,-17.1 -5.3,-25.6 -4.1,-20.8 -8.6,-41.6 -13,-62.3 -0.4,-2.4 -1.2,-4.9 -1.7,-6.9 -5.2,-22.4 -10.5,-44.8 -16.6,-66.8 l -6.6,-24 c -5.6,-20.7 -11.4,-41.5 -17.9,-61.8 -0.4,-2.5 -1.2,-4.5 -2,-7 l -0.8,-2.4 c -3.7,-12.2 -7.7,-24.4 -11.8,-36.6 l -16.7,-48.9 c -7.3,-20.3 -14.7,-40.3 -22.4,-60.2 l -10.6,-26.9 -11.8,-28.9 m 628.4,981.7 c -0.4,9.3 -0.8,18.7 -1.2,28.1 0,5.7 -0.4,11.8 -0.8,17.5 -2.1,42.7 -5.3,85.4 -9.4,127.8 -0.4,6.9 -1.2,13.8 -2,20.7 0,2.9 -0.4,5.7 -0.8,8.6 0,2 -0.4,4 -0.8,5.7 v 2.8 c -0.4,4.1 -0.9,7.7 -1.7,11.4 0,3.3 -0.4,6.5 -0.8,9.8 l -0.4,1.6 c -0.8,6.9 -1.6,13.4 -2,19.9 -5.3,38.7 -10.6,77 -17.5,114.8 -24,143.7 -59.4,283.7 -105,418.8 -17.5,52.1 -36.7,103.8 -57.8,154.6 -3.3,8.6 -6.5,17.5 -10.6,26.1 -3.7,8.9 -7.3,18.3 -11.4,27.3 -61.8,143.6 -135.5,280.8 -219.8,410.2 -421.6,650 -1109.8,1111.1 -1909.5,1228.7 -83.9,12.2 -168.5,21.1 -254.4,25.6 -50,2.9 -100.5,4.1 -151.4,4.1 -59.8,0 -119.6,-1.6 -179.1,-5.7 -25.6,-1.6 -51.6,-3.7 -77.3,-6.1 -28.5,-2.5 -57,-5.7 -85.4,-9 -26.1,-3.2 -51.7,-6.9 -77.4,-11 -1324.7,-201.8 -2339.3,-1345.8 -2339.3,-2726.7 0,-15.9 0,-31.8 0.4,-47.6 0.4,-26.1 1.2,-51.7 2.5,-77.8 0.4,-11.8 0.8,-23.6 1.6,-35.4 1.2,-26 3.2,-51.7 5.7,-77.3 2,-26.9 4.9,-53.3 7.7,-79.8 v -0.4 c 14.3,-124.1 37,-246.2 67.2,-365.1 17.1,-66.7 36.6,-132.2 58.2,-196.9 143.6,-427 389,-807.1 706.9,-1111.9 152.6,-146.1 321.5,-274.7 504.2,-383 402.5,-238.5 871,-377.7 1371.2,-383.3 10.9,-0.5 21.9,-0.5 32.9,-0.5 659.3,0 1264.5,231.2 1739,617.4 58.7,47.2 115.2,97.3 169.4,149.4 13.4,13 26.8,26 40.2,39.9 346,344.3 600.7,780.6 724.9,1268.9 39,152.7 65.1,310.2 76.9,471.3 4.9,56.6 7.3,113.6 8.1,171 0.4,13.8 0.4,27.2 0.4,41.1 0,31.7 -0.4,63 -1.6,94.4 m -5512.9,-219.8 c 0.4,-11.8 0.8,-23.6 1.6,-35.4 h 453.8 c -0.9,11.8 -1.7,23.6 -2.1,35.4 h -453.3"
         style="fill:#3f444f;fill-opacity:1;fill-rule:nonzero;stroke:none"
         id="path118" />
      <path
         d="m 17697.7,5634.1 c -148.8,788.2 -446.9,1356.6 -810.4,1765.8 h 976.2 c 13.8,-44.4 26.2,-89.2 37.3,-134.7 20.2,-82.5 35.9,-166.8 46.9,-252.6 l 0.2,-1 c 0,-0.4 0.1,-0.9 0.2,-1.3 v -0.2 c 0,0 0,0 0,-0.1 0.1,-1 0.2,-1.9 0.4,-2.9 0,-0.5 0,-1 0,-1.5 v -1.2 -0.4 l 0.4,-1.2 c 0.2,-1.2 0.4,-2.4 0.5,-3.6 0.5,-3.7 0.9,-7.3 1.4,-11 0.2,-2.5 0.4,-4.9 0.5,-7.4 1.9,-15.7 3.7,-31.5 5.2,-47.3 4.4,-46.5 7.4,-93.3 8.9,-140.6 0.2,-7.9 0.4,-15.8 0.6,-23.7 0.1,-2.1 0.1,-4.2 0.2,-6.2 0.3,-15.7 0.5,-31.5 0.5,-47.3 0,-10.1 -0.1,-20.3 -0.2,-30.5 -0.2,-8.9 -0.3,-17.8 -0.5,-26.7 0,-0.4 0,-0.9 0,-1.3 -0.2,-4.7 -0.3,-9.3 -0.4,-13.9 0,-0.1 0,-0.2 -0.1,-0.3 v -0.4 c -3,-98.2 -12.2,-194.8 -27.2,-289.5 -2.9,-18.5 -6,-36.9 -9.4,-55.2 -1,-5.7 -2.1,-11.4 -3.2,-17.1 -1.2,-6.5 -2.5,-13 -4.1,-19.5 -4,-20.2 -8.3,-40.4 -12.6,-60.5 -0.5,-2.2 -1,-4.4 -1.5,-6.6 -0.2,-0.7 -0.4,-1.4 -0.6,-2.1 -2.3,-10.1 -4.7,-20.2 -7.2,-30.2 -1.5,-6.3 -3.1,-12.6 -4.7,-18.9 -1.5,-5.9 -3.1,-11.8 -4.7,-17.7 l -6.6,-24 c -3,-11 -6,-22 -9.1,-32.9 -2.2,-7.4 -4.4,-14.7 -6.6,-22.1 -0.7,-2.3 -1.4,-4.6 -2.2,-6.8 0,-0.2 0,-0.4 -0.1,-0.6 -0.7,-2.5 -1.5,-4.9 -2.2,-7.4 l -0.5,-1.4 c -0.4,-1.2 -0.7,-2.4 -1.1,-3.6 -1.5,-4.9 -3.1,-9.8 -4.6,-14.6 -2,-6.2 -4.1,-12.3 -6.1,-18.4 l -16.7,-48.9 c -7.3,-20.3 -14.7,-40.3 -22.4,-60.2 l -10.6,-26.9 -11.8,-28.9 c -0.7,-1.9 -1.5,-3.9 -2.3,-5.9 -10.3,-24.4 -21,-48.6 -32,-72.6 -3.1,-6.7 -6.3,-13.3 -9.6,-20 l -17.7,-36.9 c -0.4,-0.8 -0.8,-1.6 -1.2,-2.5 -9.4,-18.6 -19.1,-37.3 -28.8,-55.9 -0.1,-0.2 -0.2,-0.5 -0.3,-0.7 h -0.1 m 54.1,2055 h -1161.4 c -77,64.8 -155.7,124.1 -235.4,178.3 h 1303.9 c 33.4,-57.9 64.5,-117.4 92.9,-178.3 m -290.7,467.5 h -1640.6 c -560.7,235.7 -1104.6,278.1 -1423.6,278.1 -179.4,0 -287.7,-13.4 -287.7,-13.4 13.5,12.3 27.3,24.5 41.1,36.5 6,5.2 12,10.3 18.1,15.4 19.6,16.7 39.5,33 59.4,48.8 22.4,18 45.2,35.5 68.8,52.1 18.7,14.3 37.5,27.7 56.6,40.7 44.8,31 90.3,60.3 137.5,88 22.8,13.4 45.6,26.4 69.2,39 20.4,11.4 41.1,22.4 62.3,33 18.7,9.3 37.4,18.7 56.6,27.3 12.6,6.5 25.6,12.2 38.6,17.9 16.3,7.3 32.2,14.2 48.5,21.1 9,3.9 18.1,7.7 27.1,11.3 V 8807 c 0,-47.8 38.8,-86.6 86.6,-86.6 h 1920.8 c 254.4,-144.7 478.6,-336.6 660.7,-563.8 m -1568.8,853 h -467.2 c 13.8,1.4 27.7,2.7 41.6,3.9 5,0.3 10,0.7 15,1 4.1,0.4 8.2,0.8 12.7,0.8 9,0.7 18.1,1.4 27.1,2.1 10.1,0.6 20.1,1.1 30.2,1.6 17.8,0.6 35.4,1.3 53.4,1.6 18.7,0.8 37,0.8 55.7,0.8 62.3,0 123.7,-2.4 184.8,-7.7 15.6,-1.2 31.2,-2.6 46.7,-4.1"
         style="fill:#cad0dd;fill-opacity:1;fill-rule:nonzero;stroke:none"
         id="path120" />
      <path
         d="m 16800.4,8720.4 h -1920.8 c -47.8,0 -86.6,38.8 -86.6,86.6 v 45.4 c 1.5,0.6 3.1,1.2 4.6,1.7 38.7,15.9 78.1,30.6 118,44 9,3.3 18.3,6.5 27.7,9.4 19.9,6.5 39.9,13 60.2,18.7 21.2,6.5 42.4,12.2 63.5,17.9 2.5,0.8 5,1.5 7.5,2.2 1.9,0.5 3.7,0.9 5.5,1.4 3.6,0.9 7.3,1.7 11,2.5 18.4,4.9 36.7,9.3 55.4,13.4 8.1,2.1 16.7,4.1 24.8,5.7 1.2,0.4 2.5,0.4 3.7,0.8 2.5,0.6 5,1.2 7.6,1.7 23.5,5 47.2,9.6 70.9,13.8 21.8,3.8 43.5,7.5 65.6,10.6 2.7,0.5 5.4,0.9 8.1,1.3 5.7,0.9 11.5,1.7 17.3,2.5 3.2,0.4 6.3,0.7 9.5,1.1 10.2,1.6 20.8,2.8 31,4 1.5,0.2 3,0.4 4.4,0.6 11.9,1.4 23.8,2.7 35.8,3.9 h 467.2 c 174.3,-17 342.8,-53.7 503.1,-107.8 31.4,-10.2 62.7,-21.6 93.2,-33.4 96.5,-37 190.1,-80.6 280,-130.2 10.7,-5.9 21.3,-11.8 31.8,-17.8"
         style="fill:#d6dce8;fill-opacity:1;fill-rule:nonzero;stroke:none"
         id="path122" />
      <path
         d="M 17658.9,7867.4 H 16355 c -175.3,119.3 -355.8,214.1 -534.5,289.2 h 1640.6 c 46.6,-58.2 90.5,-118.6 131.4,-181.2 7.3,-11.2 14.5,-22.4 21.6,-33.7 15.4,-24.5 30.3,-49.2 44.8,-74.3"
         style="fill:#d6dce8;fill-opacity:1;fill-rule:nonzero;stroke:none"
         id="path124" />
      <path
         d="m 17863.5,7399.9 h -976.2 c -95.1,106.9 -194.4,202.9 -296.9,289.2 h 1161.4 c 9.8,-21.1 19.3,-42.3 28.5,-63.7 0.3,-0.8 0.6,-1.5 1,-2.2 0,-0.2 0.1,-0.4 0.2,-0.6 31,-72.4 58.4,-146.8 82,-222.7"
         style="fill:#d6dce8;fill-opacity:1;fill-rule:nonzero;stroke:none"
         id="path126" />
      <path
         d="m 17698.1,5634.8 c 9.7,18.6 19.4,37.3 28.8,55.9 -9.4,-18.8 -19,-37.4 -28.8,-55.9 m 30,58.4 17.7,36.9 c 3.3,6.7 6.5,13.3 9.6,20 -8.9,-19.1 -17.9,-38 -27.3,-56.9 m 59.3,129.5 c 0.8,2 1.6,4 2.3,5.9 l 11.8,28.9 10.6,26.9 c 7.7,19.9 15.1,39.9 22.4,60.2 l 16.7,48.9 c 2,6.1 4.1,12.2 6.1,18.4 -20.6,-64.4 -44,-127.4 -69.9,-189.2 m 74.5,203.8 c 0.4,1.2 0.7,2.4 1.1,3.6 l 0.5,1.4 c -0.6,-1.6 -1.1,-3.3 -1.6,-5 m 3.8,12.4 c 0.1,0.2 0.1,0.4 0.1,0.6 0.8,2.2 1.5,4.5 2.2,6.8 -0.7,-2.5 -1.5,-4.9 -2.3,-7.4 m 8.9,29.5 c 3.1,10.9 6.1,21.9 9.1,32.9 l 6.6,24 c 1.6,5.9 3.2,11.8 4.7,17.7 -6.4,-25 -13.2,-49.9 -20.4,-74.6 m 25.1,93.5 c 2.5,10 4.9,20.1 7.2,30.2 0.2,0.7 0.4,1.4 0.6,2.1 -2.5,-10.8 -5.1,-21.6 -7.8,-32.3 m 9.3,38.9 c 4.3,20.1 8.6,40.3 12.6,60.5 1.6,6.5 2.9,13 4.1,19.5 -5.1,-26.8 -10.7,-53.5 -16.7,-80 m 19.9,97.1 c 3.4,18.3 6.5,36.7 9.4,55.2 -2.9,-18.5 -6,-36.8 -9.4,-55.2 m 36.6,344.7 v 0.4 c 0.1,0.1 0.1,0.2 0.1,0.3 0,-0.3 0,-0.5 -0.1,-0.7 m 0.5,14.6 c 0,0.4 0,0.9 0,1.3 0.2,8.9 0.3,17.8 0.5,26.7 -0.1,-9.3 -0.3,-18.7 -0.5,-28 m 0.2,105.8 c -0.1,2 -0.1,4.1 -0.2,6.2 -0.2,7.9 -0.4,15.8 -0.6,23.7 0.3,-9.9 0.6,-20 0.8,-29.9 m -9.7,170.5 c -1.5,15.8 -3.3,31.6 -5.2,47.3 -0.1,2.5 -0.3,4.9 -0.5,7.4 2.1,-18.2 4,-36.4 5.7,-54.7 m -7.1,65.7 c -0.1,1.2 -0.3,2.4 -0.5,3.6 l -0.4,1.2 v 0.4 1.2 c 0,0.5 0,1 0,1.5 0.3,-2.6 0.6,-5.2 0.9,-7.9 m -1.3,10.8 c 0,0.1 0,0.1 0,0.1 v 0.2 c 0,-0.1 0,-0.2 0,-0.3 m -0.2,1.6 -0.2,1 c -11,85.8 -26.7,170.1 -46.9,252.6 20.3,-82.8 36,-167.5 47.1,-253.6 m -166.4,611 c -0.1,0.2 -0.2,0.4 -0.2,0.6 0,-0.2 0.1,-0.4 0.2,-0.6 m -1.2,2.8 c -9.2,21.4 -18.7,42.6 -28.5,63.7 -28.4,60.9 -59.5,120.4 -92.9,178.3 -14.5,25.1 -29.4,49.8 -44.8,74.3 63.2,-100.5 118.9,-206.2 166.2,-316.3 m -187.8,350 c -40.9,62.6 -84.8,123 -131.4,181.2 -182.1,227.2 -406.3,419.1 -660.7,563.8 -10.5,6 -21.1,11.9 -31.8,17.8 -89.9,49.6 -183.5,93.2 -280,130.2 -30.5,11.8 -61.8,23.2 -93.2,33.4 -160.3,54.1 -328.8,90.8 -503.1,107.8 -15.5,1.5 -31.1,2.9 -46.7,4.1 -61.1,5.3 -122.5,7.7 -184.8,7.7 -18.7,0 -37,0 -55.7,-0.8 -18,-0.3 -35.6,-1 -53.4,-1.6 36.2,1.7 72.6,2.5 109.2,2.5 808.7,0 1520,-416.2 1931.6,-1046.1 m -3442.2,482.4 c 262.7,228 577.5,397.6 924.2,488.5 -2.5,-0.7 -5,-1.4 -7.5,-2.2 -21.1,-5.7 -42.3,-11.4 -63.5,-17.9 -20.3,-5.7 -40.3,-12.2 -60.2,-18.7 -9.4,-2.9 -18.7,-6.1 -27.7,-9.4 -39.9,-13.4 -79.3,-28.1 -118,-44 -1.5,-0.5 -3.1,-1.1 -4.6,-1.7 -9,-3.6 -18.1,-7.4 -27.1,-11.3 -16.3,-6.9 -32.2,-13.8 -48.5,-21.1 -13,-5.7 -26,-11.4 -38.6,-17.9 -19.2,-8.6 -37.9,-18 -56.6,-27.3 -21.2,-10.6 -41.9,-21.6 -62.3,-33 -23.6,-12.6 -46.4,-25.6 -69.2,-39 -47.2,-27.7 -92.7,-57 -137.5,-88 -19.1,-13 -37.9,-26.4 -56.6,-40.7 -23.6,-16.6 -46.4,-34.1 -68.8,-52.1 -19.9,-15.8 -39.8,-32.1 -59.4,-48.8 -6.1,-5.1 -12.1,-10.2 -18.1,-15.4 m 929.7,489.9 c 33.8,8.8 68,16.8 102.5,24.1 -2.6,-0.5 -5.1,-1.1 -7.6,-1.7 -1.2,-0.4 -2.5,-0.4 -3.7,-0.8 -8.1,-1.6 -16.7,-3.6 -24.8,-5.7 -18.7,-4.1 -37,-8.5 -55.4,-13.4 -3.7,-0.8 -7.4,-1.6 -11,-2.5 m 173.4,37.9 c 24.5,4.4 49,8.3 73.7,11.9 -2.7,-0.4 -5.4,-0.8 -8.1,-1.3 -22.1,-3.1 -43.8,-6.8 -65.6,-10.6 m 91,14.4 c 14.9,2 29.9,3.9 44.9,5.7 -1.4,-0.2 -2.9,-0.4 -4.4,-0.6 -10.2,-1.2 -20.8,-2.4 -31,-4 -3.2,-0.4 -6.3,-0.7 -9.5,-1.1 m 122.3,13.5 c 18.2,1.5 36.5,2.8 54.8,3.9 -9,-0.7 -18.1,-1.4 -27.1,-2.1 -4.5,0 -8.6,-0.4 -12.7,-0.8 -5,-0.3 -10,-0.7 -15,-1"
         style="fill:#545e72;fill-opacity:1;fill-rule:nonzero;stroke:none"
         id="path128" />
      <path
         d="m 17407.7,12375.5 h -2985 c -35.7,0 -64.6,28.9 -64.6,64.7 v 649.8 c 0,35.7 28.9,64.7 64.6,64.7 h 2985 c 35.7,0 64.6,-29 64.6,-64.7 v -649.8 c 0,-35.8 -28.9,-64.7 -64.6,-64.7"
         style="fill:#1d3b54;fill-opacity:1;fill-rule:nonzero;stroke:none"
         id="path130" />
      <path
         d="m 16484.4,13108.3 h -1138.5 c -35.7,0 -64.6,28.9 -64.6,64.6 v 112.2 c 0,35.7 28.9,64.7 64.6,64.7 h 1138.5 c 35.7,0 64.7,-29 64.7,-64.7 v -112.2 c 0,-35.7 -29,-64.6 -64.7,-64.6"
         style="fill:#1d3b54;fill-opacity:1;fill-rule:nonzero;stroke:none"
         id="path132" />
      <path
         d="m 16243.2,14011.8 c 0,0 -84.4,-32.7 -124.5,9.9 -30.6,32.5 -84.1,92.2 -92.5,109.6 -7.7,16.1 -53.6,79.5 -62.4,46.6 -8.8,-33 43.2,-179.5 66.5,-197.3 23.3,-17.8 -101.4,-47.3 -119.7,-71.1 -18.2,-23.9 46.1,-234 129.2,-203.6 83.1,30.4 143.9,116.3 158.1,123.3 24.1,11.9 117.6,51 117.6,51 l -72.3,131.6"
         style="fill:#eea886;fill-opacity:1;fill-rule:nonzero;stroke:none"
         id="path134" />
      <path
         d="m 15928.3,13921.3 c 0,0 -248,-110.5 -258.2,-132.2 -10.1,-21.7 -3.2,-35.2 20.5,-25.9 23.6,9.3 242.8,99.6 242.8,99.6 0,0 -270.9,-181.8 -283.1,-197.6 -7.1,-9.3 4.9,-36.3 18,-32.5 13.2,3.8 292.1,168 292.1,168 0,0 -252.6,-170.3 -258.9,-186.7 -5.4,-14.3 11.6,-36.5 31.2,-25.2 19.6,11.3 263.1,155.5 263.1,155.5 0,0 -172.7,-135.4 -173.2,-153.2 -0.5,-15.5 11,-34.4 55.3,2.2 44.3,36.5 157.9,111.3 157.9,111.3 l -107.5,216.7"
         style="fill:#eea886;fill-opacity:1;fill-rule:nonzero;stroke:none"
         id="path136" />
      <path
         d="m 17909.9,15085.1 c -21.3,-28.3 -206.1,-273.2 -341.9,-441 v -0.5 c -19.2,-24 -37.8,-45.8 -54.3,-65.5 -32,-38.4 -58.1,-67.7 -74.1,-82 -82.5,-75.1 -171.4,-200.3 -290.7,-290.8 -89,-67.7 -877.1,-374.9 -887.8,-374.9 -6.4,2.1 -84.7,177.3 -84.7,177.3 0,0 686.5,384.5 756.8,413.8 109.2,45.8 150.2,115.6 188.5,152.8 38.3,36.8 526.7,725.4 551.2,764.3 0,0 145.4,264.1 288.1,121.4 143.3,-142.7 -20.8,-334.5 -51.1,-374.9"
         style="fill:#ffc855;fill-opacity:1;fill-rule:nonzero;stroke:none"
         id="path138" />
      <path
         d="m 17568,15072.3 v -428.7 c -19.2,-24 -37.8,-45.8 -54.3,-65.5 0,0 -72.5,124.1 -25.6,270.5 46.3,146.5 79.9,223.7 79.9,223.7"
         style="fill:#cca044;fill-opacity:1;fill-rule:nonzero;stroke:none"
         id="path140" />
      <path
         d="m 16813.3,11304.2 c 0,0 -152.9,-259.2 -217.5,-301.6 -87.6,-57.5 -32.7,-115.6 8.9,-115.6 41.7,-0.1 254.3,-15.3 301.1,37.9 46.8,53.1 70.1,212.5 113.6,254.1 43.6,41.7 88.6,207.3 -21.2,247.6 -97,35.6 -184.9,-122.4 -184.9,-122.4"
         style="fill:#1d3b54;fill-opacity:1;fill-rule:nonzero;stroke:none"
         id="path142" />
      <path
         d="m 16879.6,11418.3 c 0,0 -175.2,-303.7 -205.4,-348.5 -30.2,-44.9 56.9,-44.8 110.8,-23.5 53.9,21.3 189.6,239.1 209.1,278.7 23.2,47.4 4.1,101.6 4.1,101.6 l -118.6,-8.3"
         style="fill:#eea886;fill-opacity:1;fill-rule:nonzero;stroke:none"
         id="path144" />
      <path
         d="m 17057,11254.9 -40.4,-311.3 -21.4,-0.9 6.6,223.9 55.2,88.3"
         style="fill:#1d3b54;fill-opacity:1;fill-rule:nonzero;stroke:none"
         id="path146" />
      <path
         d="m 18330,11304.2 c 0,0 -152.9,-259.2 -217.5,-301.6 -87.7,-57.5 -32.7,-115.6 8.9,-115.6 41.6,-0.1 254.2,-15.3 301.1,37.9 46.8,53.1 70,212.5 113.6,254.1 43.6,41.7 90.1,211.6 -21.2,247.6 -97.6,31.5 -184.9,-122.4 -184.9,-122.4"
         style="fill:#1d3b54;fill-opacity:1;fill-rule:nonzero;stroke:none"
         id="path148" />
      <path
         d="m 18387.1,11417.6 c 0,0 -166,-303 -196.2,-347.8 -30.2,-44.9 56.8,-44.8 110.8,-23.5 53.9,21.3 189.6,239.1 209,278.7 23.3,47.4 4.2,101.6 4.2,101.6 l -127.8,-9"
         style="fill:#eea886;fill-opacity:1;fill-rule:nonzero;stroke:none"
         id="path150" />
      <path
         d="m 18573.7,11254.9 -40.4,-311.3 -21.5,-0.9 6.7,223.9 55.2,88.3"
         style="fill:#1d3b54;fill-opacity:1;fill-rule:nonzero;stroke:none"
         id="path152" />
      <path
         d="m 19008.6,13663.8 -1384,-630.6 c 0,0 -154.5,-50.3 -171.8,-221.8 -54.1,-535.4 -454.6,-1384.8 -454.6,-1384.8 -128.5,-62.8 -118.6,-8.3 -118.6,-8.3 81,259.9 179.5,1331.3 214.7,1762 7.4,91.3 12.1,153.7 13.1,173.7 0.7,13.6 15.5,31.4 41.2,52.2 189.9,154 971.3,472.8 971.3,472.8 586.8,14.9 888.7,-215.2 888.7,-215.2"
         style="fill:#eea886;fill-opacity:1;fill-rule:nonzero;stroke:none"
         id="path154" />
      <path
         d="m 19132.2,13447.3 c -42.8,-374.1 -439.6,-385.6 -439.6,-385.6 h -647.2 c 0,0 170,-378.3 235.6,-697.3 69.7,-338.7 233.9,-937.8 233.9,-937.8 0,0 -10.8,-20.4 -127.8,-9 0,0 -508.1,1012.6 -702.6,1267.2 -41.8,54.7 -161.7,352.1 -182.4,529.4 -6.9,59.7 -2.6,105.8 19.7,124.5 22.4,18.8 74,54.3 142.8,97.7 202.8,127.8 554.8,324.6 751,368.7 262.7,59.1 497.7,122.3 497.7,122.3 0,0 261.7,-106 218.9,-480.1"
         style="fill:#eea886;fill-opacity:1;fill-rule:nonzero;stroke:none"
         id="path156" />
      <path
         d="m 18112.9,13061.7 h 579.7 c 0,0 441.5,-29.4 484.4,344.7 42.8,374.1 -168.4,546 -168.4,546 0,0 -196.9,-52.7 -443.2,-112.2 -123.3,26.2 -271.9,43.2 -445.5,38.8 0,0 -735.6,-148.1 -1007.7,-510.9 0,0 431.8,217.8 1000.7,-306.4"
         style="fill:#1d3b54;fill-opacity:1;fill-rule:nonzero;stroke:none"
         id="path158" />
      <path
         d="m 17744.5,15692.6 c -4,-41.9 -9.4,-83.7 -14.8,-124 -1.7,-12.6 -4,-25 -6.9,-37.2 -16.9,-72.6 -53.9,-139.5 -103.7,-188.3 h -0.1 v -0.1 c -70.5,-68.9 -166.5,-101.1 -267.6,-60.7 -184.6,73.7 -219.9,713.6 -219.9,713.6 88.3,235.3 414.4,201.4 531.4,95.2 92.4,-83.8 96.6,-241.6 81.6,-398.5"
         style="fill:#eea886;fill-opacity:1;fill-rule:nonzero;stroke:none"
         id="path160" />
      <path
         d="m 17658.8,15316.3 c 0,0 -99.8,-197.7 -116,-381.6 -9.1,-104.8 -70.4,-227.1 18.3,-331.5 88.8,-104.4 202.3,-91.4 224.5,-141 22.2,-49.6 80.9,-133.1 114.8,-160.5 34,-27.4 74.4,-279.6 86.2,-306 11.7,-26.5 -63.6,-164.5 491.4,-170.4 554.9,-5.8 530.6,127.1 530.6,127.1 0,0 -148.9,161.8 -320.8,466.7 -53.1,94.1 -181.3,727.7 -245.9,815.8 -64.6,88 -418,574.4 -783.1,81.4"
         style="fill:#ffc855;fill-opacity:1;fill-rule:nonzero;stroke:none"
         id="path162" />
      <path
         d="m 17984.9,15511.3 c 0,0 -119.6,-514.9 -252.7,-555.4 -137,-41.5 -16.2,464.4 -16.2,464.4 0,0 137.1,199.6 268.9,91"
         style="fill:#eea886;fill-opacity:1;fill-rule:nonzero;stroke:none"
         id="path164" />
      <path
         d="m 17275.1,15935.7 c 0,0 -97.8,-205.2 -98.5,-291.6 0,0 -69,128.6 -70.4,237.1 -1.4,108 -26.8,286 150.9,392.8 177.7,106.8 18,-338.3 18,-338.3"
         style="fill:#fccca2;fill-opacity:1;fill-rule:nonzero;stroke:none"
         id="path166" />
      <path
         d="m 17293.3,13698.2 c 0,0 -81.3,-45.5 -139.2,-73.4 -44.8,-21.7 -141,-106.8 -156,-147.9 -15.1,-41.2 -21.9,-256.6 -32.9,-277.4 -10.9,-20.8 23.3,-25.6 45.3,5.3 0,0 58.1,-49.8 107.7,20.8 49.6,70.5 59.9,159.1 87.5,192.5 27.7,33.4 197.4,218 197.4,218 0,0 -69.2,114.1 -109.8,62.1"
         style="fill:#eea886;fill-opacity:1;fill-rule:nonzero;stroke:none"
         id="path168" />
      <path
         d="m 17011.8,13500.6 c 0,0 -39.3,-55.9 -47.8,-74.2 -8.4,-18.3 -44.3,-89.2 -53.1,-106.1 -8.8,-16.9 33.5,-16.1 109.7,85.7 76.3,101.8 -8.8,94.6 -8.8,94.6"
         style="fill:#eea886;fill-opacity:1;fill-rule:nonzero;stroke:none"
         id="path170" />
      <path
         d="m 17243.5,13703.9 87.3,-159 256.3,101.1 -114.9,166.5 -228.7,-108.6"
         style="fill:#ffc855;fill-opacity:1;fill-rule:nonzero;stroke:none"
         id="path172" />
      <path
         d="m 18122.9,15029.3 c 0,0 -29.3,280 156.6,246.7 186,-33.3 162.3,-268.2 160.5,-315.2 -1.9,-47 -23.4,-601 -46.9,-702.8 -23.5,-101.8 -54.8,-301.5 -142.9,-358.3 -88.1,-56.7 -918.8,-343.2 -924.7,-345.2 -5.8,-1.9 -82,149.4 -82,149.4 0,0 566.2,270.2 632.8,295.7 66.5,25.4 221.2,99.8 231,148.8 9.8,48.9 17.3,837.9 15.6,880.9"
         style="fill:#ffc855;fill-opacity:1;fill-rule:nonzero;stroke:none"
         id="path174" />
      <path
         d="m 17852.1,15373.8 c -19.5,-128.5 -167.1,-180.6 -168.4,-117.9 -0.1,7 -13.6,26 -23.7,40.1 v 0 c -4,5.6 -7.5,10.4 -9.4,13.2 -7.6,11.5 -18.8,23 -31.6,33.9 -47.5,40.6 -117.9,73.8 -117.9,73.8 l 194.4,358.3 c 0,0 21.7,-33.5 49,-82.6 50.5,-91 120.4,-235.2 107.6,-318.8"
         style="fill:#eea886;fill-opacity:1;fill-rule:nonzero;stroke:none"
         id="path176" />
      <path
         d="m 17245.7,15917 c 0,0 66.7,-172.3 212.5,-155.6 145.9,16.8 243.7,-35.2 251.9,-96.9 8.2,-61.7 81.5,-396.6 210.3,-405.2 128.8,-8.6 250.1,171 316.1,122.5 66,-48.4 112.5,-273.9 214.3,-230.1 101.8,43.8 112.8,243.6 -73.9,358.5 -186.6,114.9 -328.5,135.9 -370.1,255.7 -41.7,119.7 -141.4,444.2 -270.8,524.7 -95.9,59.7 -212.8,111 -423.4,14.9 -210.7,-96.1 -181.2,-309.6 -181.2,-309.6 l 114.3,-78.9"
         style="fill:#fccca2;fill-opacity:1;fill-rule:nonzero;stroke:none"
         id="path178" />
      <path
         d="m 17660,15296 c -4,5.6 -7.5,10.4 -9.4,13.2 -7.6,11.5 -18.8,23 -31.6,33.9 0,0 81.7,82.9 103.8,188.3 0,0 18.2,-85.3 -62.8,-235.4"
         style="fill:#a77860;fill-opacity:1;fill-rule:nonzero;stroke:none"
         id="path180" />
      <path
         d="m 22732.9,8786.5 c 0,0 157.5,41.5 234.4,-97.7 77,-139.2 -228.3,-573.1 -99.9,-750 113.3,-156.3 217.2,-77.5 217.2,-77.5 0,0 -216.7,-235.4 -402.6,42.3 -111.4,166.6 -63.3,348 -57.5,498.2 5.8,150.2 108.4,384.7 108.4,384.7"
         style="fill:#fccca2;fill-opacity:1;fill-rule:nonzero;stroke:none"
         id="path182" />
      <path
         d="m 21511.7,1850.2 c 0,0 -42.3,-112.4 -101,-139.1 -58.8,-26.7 -191.8,-150.1 -245.2,-159.1 -53.4,-8.9 -181.6,-18.9 -188.7,-86.6 -7.2,-67.6 6.6,-129 264.8,-93.4 258.1,35.6 502,154.9 502,154.9 0,0 52.1,261.5 -31.8,390.7 -83.9,129.1 -200.1,-67.4 -200.1,-67.4"
         style="fill:#2f4563;fill-opacity:1;fill-rule:nonzero;stroke:none"
         id="path184" />
      <path
         d="m 21511.7,1850.2 48.3,161.4 h 184.4 v -172 c 0,0 -279.1,-104.8 -232.7,10.6"
         style="fill:#eea886;fill-opacity:1;fill-rule:nonzero;stroke:none"
         id="path186" />
      <path
         d="m 23129.9,2154.1 c 0,0 -18.2,-116.5 -46.8,-151.9 -28.6,-35.3 -70,-203.1 -128.4,-256.7 -58.5,-53.6 -201.7,-174.3 -157.8,-234.6 43.8,-60.4 350.3,17.1 459.8,203.7 109.5,186.7 146.9,207.8 133,258.5 -13.9,50.7 -117.8,245.7 -115.3,269.4 2.4,23.7 -144.5,-88.4 -144.5,-88.4"
         style="fill:#2f4563;fill-opacity:1;fill-rule:nonzero;stroke:none"
         id="path188" />
      <path
         d="m 23085.2,2238 c 1.8,0 36.9,-52.9 44.7,-83.9 7.8,-30.9 75.5,-43.1 129.9,24 0,0 16.9,24.3 14.6,64.4 -2.4,40 -48.2,134.7 -48.2,134.7 l -141,-139.2"
         style="fill:#eea886;fill-opacity:1;fill-rule:nonzero;stroke:none"
         id="path190" />
      <path
         d="m 21842.3,6269.8 c -2.4,-3.1 -6,-7.4 -10.5,-13 v 0 c -11.6,-14.2 -29.7,-36.1 -52.4,-63.2 -131.4,-157.1 -420.2,-492 -530.1,-552.4 -77.9,-42.9 -89.9,91.7 -12.4,174.5 70.7,75.5 343.6,562.3 449.2,667.1 51.4,50.8 120.4,531.8 120.4,531.8 0,0 63.8,-401.1 56.7,-447.2 -7.1,-46.1 24.1,-241.6 -20.9,-297.6"
         style="fill:#ffc855;fill-opacity:1;fill-rule:nonzero;stroke:none"
         id="path192" />
      <path
         d="m 21236.9,5815.7 c 0,0 -45.4,-59.7 -68.9,-67.2 -23.5,-7.5 -50.7,-48.9 -70.4,-59.6 -19.7,-10.7 -84.3,-21 -99.9,-39 -6.4,-7.4 -27.1,-68.1 -41.7,-81.7 -14.7,-13.6 -47.8,-37.6 -35.3,-49.8 12.5,-12.3 48.3,1.1 48.3,1.1 0,0 -12.6,-13.1 -5,-27.2 14.9,-27.3 34.5,-27 34.5,-27 0,0 -3.7,-21.7 5.3,-31.6 20.1,-21.8 39,-20.9 39,-20.9 0,0 3.5,-16.3 20.2,-27.8 21.2,-14.8 44,-3.4 44,-3.4 0,0 22.4,-24.5 39.7,-18 17.3,6.6 26.2,20.5 38.1,29.2 11.9,8.7 89.6,116.1 111.8,212.4 22.2,96.3 77.3,161.8 77.3,161.8 l -137,48.7"
         style="fill:#eea886;fill-opacity:1;fill-rule:nonzero;stroke:none"
         id="path194" />
      <path
         d="m 20749.7,5223.6 496.8,-81.4 c 14.2,35.1 59.7,162 18.1,258.7 -20.7,48 -60.6,82.2 -118.5,101.7 -84,28.3 -158.8,24 -222.2,-12.6 -114.7,-66.1 -162.2,-219.8 -174.2,-266.4 z m 512.9,-111.3 -545.3,89.4 2.8,13.7 c 0.4,2.1 11.1,53.9 39.6,116.6 26.5,58.3 74.3,137.2 150.7,181.3 70.4,40.6 152.6,45.6 244.3,14.8 65.5,-22.1 110.7,-61.3 134.6,-116.7 53.2,-123.7 -19.3,-283.1 -22.4,-289.8 l -4.3,-9.3"
         style="fill:#23344a;fill-opacity:1;fill-rule:nonzero;stroke:none"
         id="path196" />
      <path
         d="M 19826,3678.9 21572.4,3451.6 21868.5,5051 20042.7,5363.3 19826,3678.9"
         style="fill:#7888f5;fill-opacity:1;fill-rule:nonzero;stroke:none"
         id="path198" />
      <path
         d="m 19414.9,3795.9 627.8,1567.4 -216.7,-1684.4 -182.8,107.1 -228.3,9.9"
         style="fill:#5b68ba;fill-opacity:1;fill-rule:nonzero;stroke:none"
         id="path200" />
      <path
         d="m 20790.3,5155.1 531.9,1.1 c 8.8,39 34.3,179.2 -25.9,272.7 -29.8,46.5 -77.3,75.3 -141,85.6 -92.5,14.9 -169.7,-2.4 -229.5,-51.5 -108.1,-88.8 -131,-257.3 -135.5,-307.9 z m 553.9,-27.3 -583.9,-1.1 0.5,14.7 c 0.1,2.3 2.3,58.2 21.2,128.4 17.6,65.4 53.7,155.9 125.8,215.1 66.3,54.5 151.1,73.9 252,57.6 72.1,-11.6 126.1,-44.7 160.5,-98.3 76.9,-119.8 28.9,-298.4 26.8,-306 l -2.9,-10.4"
         style="fill:#23344a;fill-opacity:1;fill-rule:nonzero;stroke:none"
         id="path202" />
      <path
         d="m 20094.6,3385.2 1859.7,65.1 32.1,1718.3 -1957.2,9.9 65.4,-1793.3"
         style="fill:#fa565d;fill-opacity:1;fill-rule:nonzero;stroke:none"
         id="path204" />
      <path
         d="m 19645.8,3436.2 383.4,1742.3 65.4,-1793.3 -209.1,80 -239.7,-29"
         style="fill:#ad3434;fill-opacity:1;fill-rule:nonzero;stroke:none"
         id="path206" />
      <path
         d="m 20972.6,5531.5 c 0,0 68.1,90.8 107,92.4 39,1.6 16.2,-32.5 16.2,-32.5 0,0 21.9,34.1 51.4,19.5 29.6,-14.6 0.8,-53.1 0.8,-53.1 0,0 23.7,21.3 47.1,-3.6 23.5,-24.9 -7.8,-51.4 -7.8,-51.4 0,0 50.5,11.7 44.2,-30.1 -10.7,-70.4 -84.8,-109.1 -84.8,-109.1 0,0 -18.8,-7.6 -39.7,18 0,0 -44.7,-21.9 -64.2,31.2 0,0 -57.1,7.4 -44.3,52.5 0,0 -60.3,11.5 -25.9,66.2"
         style="fill:#db9c7c;fill-opacity:1;fill-rule:nonzero;stroke:none"
         id="path208" />
      <path
         d="m 22322,4889.2 c -9.7,-46.5 -71.3,-241.2 -140.3,-457.5 v 0 c -62.9,-197.2 -132,-412.3 -173.4,-549.6 -15.4,-51.2 -27.1,-91.6 -33.1,-116.1 -39.7,-162.6 5,-417.5 19.4,-630.6 14.5,-213.1 -215.3,-1261.4 -215.3,-1261.4 -54.1,-25.3 -294.5,41.6 -294.5,41.6 39.7,75.8 93.2,1380.8 71.5,1463.9 -21.7,83.1 -36.1,314.2 -14.4,404.5 4.4,18.6 6.6,43 7.1,72.5 1.8,113.9 -21.7,302.4 -36,509 -18.1,260 83,906.5 97.5,964.3 1.3,5.3 3.4,12.8 6.1,22 26.6,90.6 112.3,348 112.3,348 173.7,51.7 304.5,61.1 402.1,41.2 129.3,-26.3 200.4,-103.9 236,-202.4 84.9,-235.1 -32.6,-589.1 -45,-649.4"
         style="fill:#1d3b54;fill-opacity:1;fill-rule:nonzero;stroke:none"
         id="path210" />
      <path
         d="M 23309.2,2270.9 23072,2170.2 c -29.8,144.4 -692.2,1147.9 -735.8,1259.9 -43.6,111.9 -90.1,328.6 -90.1,408.1 0,14.2 -1,38.1 -3,69.2 -7.7,120.4 -29.8,347.5 -61.4,524.3 -5.9,33 -12.1,64.2 -18.6,92.7 -35,152.5 -41.1,673.4 -41.5,979.7 -0.2,136.3 0.7,230.2 0.7,230.2 0,0 3.1,2.4 8.7,6.7 65.9,49.8 488.4,353.7 635.7,69.6 38.9,-75 64.2,-155.6 79.7,-239.6 47.2,-257.4 46.1,-574.6 8,-838.8 -32.7,-226 -140.4,-518 -158.3,-755 -9.9,-130.3 -6.3,-235.8 23.1,-287.1 83.1,-144.5 164.3,-266.8 332.3,-776.5 54.7,-165.8 257.7,-642.7 257.7,-642.7"
         style="fill:#1d3b54;fill-opacity:1;fill-rule:nonzero;stroke:none"
         id="path212" />
      <path
         d="m 22358.8,8848.8 c 0,0 -327.1,-11.2 -340.3,-485 -13.1,-473.7 90,-574.5 381.6,-475.9 291.7,98.7 383.8,594.4 390.4,671.1 6.6,76.8 17.9,346.8 -431.7,289.8"
         style="fill:#eea886;fill-opacity:1;fill-rule:nonzero;stroke:none"
         id="path214" />
      <path
         d="m 22950.4,7242.5 c 1.3,-163.1 -186.2,-553 -215.1,-673.4 -28.8,-120.4 -74.6,-158.9 -36.1,-313 38.5,-154.1 158,-675.4 153.2,-721.2 -4.9,-45.7 -1074.5,-214.4 -1235.8,-183.1 0,0 197.2,735.9 211.6,820.1 14.5,84.3 -17.5,400.3 -24.8,489.3 -7.2,89.1 -97.4,280.9 -94.3,370.2 3.1,90.9 47.7,169.5 110.3,266.7 19.3,30.1 39.7,60.8 60,90.6 66.2,97.2 132.4,185.4 164.9,215.8 24.1,22.6 46.8,39.9 66.3,53 l 0.2,0.1 c 40.9,27.2 68.3,36 68.3,36 l 286.6,45.7 c 0,0 178.5,-64.6 281.3,-88.6 0,0 200.5,-29.2 203.4,-408.2"
         style="fill:#ffc855;fill-opacity:1;fill-rule:nonzero;stroke:none"
         id="path216" />
      <path
         d="m 22110.8,7657.6 -166,-261.8 -153.3,-241.5 c 0.3,1.3 10.5,37.8 27.9,143.8 3.3,20.1 6.8,42.7 10.6,68 1.1,7.5 2.7,14.9 4.8,22.3 v 0 c 65.6,151.3 268.4,265.3 275.8,269.1 l 0.2,0.1"
         style="fill:#ffc855;fill-opacity:1;fill-rule:nonzero;stroke:none"
         id="path218" />
      <path
         d="m 22587.7,8101.3 c -28.9,-54.5 -59.4,-393.3 -59.4,-393.3 0,0 -407.8,-154.1 -366,-66.9 18.9,39.6 24.5,90.9 24.8,135.2 0.4,34.8 -2.5,65.3 -4.5,82.2 -1.1,8.9 -1.9,14.1 -1.9,14.1 0,0 435.9,283.3 407,228.7"
         style="fill:#eea886;fill-opacity:1;fill-rule:nonzero;stroke:none"
         id="path220" />
      <path
         d="m 22415.1,7893.4 c -62.6,-92.3 -227.9,-117.1 -227.9,-117.1 h -0.1 c 0.4,34.8 -2.5,65.3 -4.5,82.2 106.3,-20.4 232.5,34.9 232.5,34.9"
         style="fill:#a77860;fill-opacity:1;fill-rule:nonzero;stroke:none"
         id="path222" />
      <path
         d="m 21835.5,7390.2 v 0 c 0,0 -8.9,-18.3 -16.1,-92.1 l 60,90.6 c 0,0 107.3,153.8 144,193.8 36.8,40 87.2,75 87.2,75 0,0 -211,-101.4 -275.1,-267.3"
         style="fill:#ffc855;fill-opacity:1;fill-rule:nonzero;stroke:none"
         id="path224" />
      <path
         d="m 22179.1,7693.6 c 0,0 -192.1,-295.4 -127.1,-321.2 65.1,-25.8 417.1,34.4 566.8,315 0,0 -223.8,114.8 -439.7,6.2"
         style="fill:#eea886;fill-opacity:1;fill-rule:nonzero;stroke:none"
         id="path226" />
      <path
         d="m 21192.3,5765.4 c 0,0 98.1,-32.5 128.3,-88.4 0,0 62.4,81.5 82.9,96.5 l -148.6,64.3 -62.6,-72.4"
         style="fill:#ffc855;fill-opacity:1;fill-rule:nonzero;stroke:none"
         id="path228" />
      <path
         d="m 21803.8,6656.4 c -0.4,4 -0.7,6.3 -0.7,6.7 0.1,-0.2 0.2,-0.8 0.4,-1.9 0.1,-1.1 0.2,-2.7 0.3,-4.8"
         style="fill:#2f4563;fill-opacity:1;fill-rule:nonzero;stroke:none"
         id="path230" />
      <path
         d="m 21831.8,6256.8 v 0 c -11.6,-14.2 -55,-66.6 -77.8,-93.8 0,0 51.9,436.8 49.8,493.3 5.1,-45.2 35.9,-302.5 28,-399.5"
         style="fill:#cca044;fill-opacity:1;fill-rule:nonzero;stroke:none"
         id="path232" />
      <path
         d="m 22185,5666.1 1171.2,353.7 -268.1,1097.7 -1245.9,-322.3 342.8,-1129.1"
         style="fill:#eb4747;fill-opacity:1;fill-rule:nonzero;stroke:none"
         id="path234" />
      <path
         d="m 21891.1,5623.2 -48.9,1172 342.8,-1129.1 -146.4,15.8 -147.5,-58.7"
         style="fill:#ad3434;fill-opacity:1;fill-rule:nonzero;stroke:none"
         id="path236" />
      <path
         d="m 22922.7,7392.8 c 0,0 -45.3,305.3 -269,255 -215,-48.4 -13.5,-448.6 2.3,-496 15.7,-47.4 175,-434.4 188.8,-485.2 43.6,-160.3 2.7,-164.1 -63,-201.9 -193.8,-111.7 -583.3,-131.4 -629.3,-162.1 -46,-30.7 -52.4,-99.2 24.9,-102.5 100.4,-4.3 674.7,49.7 754.8,57.6 77.6,7.6 232.3,14.1 191.7,290.2 -27.4,185.9 -201.2,844.9 -201.2,844.9"
         style="fill:#ffc855;fill-opacity:1;fill-rule:nonzero;stroke:none"
         id="path238" />
      <path
         d="m 22496,6372.3 c 0,0 -119.7,-20.1 -130.9,-18.3 -11.1,1.8 -58.4,79.3 -113.2,93.2 -54.9,13.9 -123.4,24.7 -140.3,35.2 -16.9,10.5 -21.5,-43.2 31.1,-65.2 52.7,-22 65.9,-51.4 -32.7,-71.2 -54.6,-10.9 -258.5,11.9 -241.5,-22.6 9.9,-20.2 206.4,-34.6 206.4,-34.6 0,0 -212,0.9 -219.2,-11.9 -14.2,-25.3 198.4,-34.2 207.3,-33.4 0,0 -182.2,-10.4 -183.8,-26.7 -2,-20.4 182.6,-11.7 180.9,-15.1 0,0 -144.9,-9.9 -143.4,-22.3 1.9,-16.2 129.4,-18.2 154.1,-15.3 24.7,2.9 274.4,31.4 316.3,39.7 42.1,8.4 112.6,13.3 112.6,13.3 l -3.7,155.2"
         style="fill:#eea886;fill-opacity:1;fill-rule:nonzero;stroke:none"
         id="path240" />
      <path
         d="m 22723.2,6435.9 c 0,0 -117.1,-40.3 -227.2,-63.6 -110,-23.4 3.7,-155.2 3.7,-155.2 0,0 190.6,18.1 282.3,26.5 33.7,3.1 -58.8,192.3 -58.8,192.3"
         style="fill:#eea886;fill-opacity:1;fill-rule:nonzero;stroke:none"
         id="path242" />
      <path
         d="m 22633.6,7177.2 c 0,0 244.9,87.1 321,93 0,0 -39.3,427 -292,383.2 -252.8,-43.8 -29,-476.2 -29,-476.2"
         style="fill:#ffc855;fill-opacity:1;fill-rule:nonzero;stroke:none"
         id="path244" />
      <path
         d="m 22433.5,6719.9 c 46.1,-21.7 98.1,-20.3 154.6,4.1 39,16.8 64.6,42.8 76.2,77.2 23.3,69.3 -15.5,154.6 -27.3,178.1 l -339.3,-84.9 c 11,-31.5 52.7,-135.2 135.8,-174.5 z m 216.4,274.8 c 2.6,-4.5 61.9,-110.7 32.1,-199.4 -13.3,-39.7 -42.4,-69.5 -86.5,-88.5 -61.7,-26.6 -118.9,-27.8 -169.9,-3.7 -55.5,26.1 -93.1,78 -114.8,116.8 -23.3,41.8 -33.7,77 -34.1,78.5 l -2.5,8.5 371.1,96.1 4.6,-8.3"
         style="fill:#23344a;fill-opacity:1;fill-rule:nonzero;stroke:none"
         id="path246" />
      <path
         d="m 22270.6,8549.6 c 0,0 63,-232.2 438.2,-301.7 0,0 293.9,503.2 -119.8,608.2 -413.6,105 -546.5,-213.3 -558.9,-369.8 0,0 111.1,70.6 240.5,63.3"
         style="fill:#fccca2;fill-opacity:1;fill-rule:nonzero;stroke:none"
         id="path248" />
      <path
         d="m 22044.9,8547.6 c 0,0 165.3,596.1 675,264 0,0 256,-169.8 -20.8,-587.3 0,0 -385.7,101.3 -654.2,323.3"
         style="fill:#fccca2;fill-opacity:1;fill-rule:nonzero;stroke:none"
         id="path250" />
      <path
         d="m 22448.1,6364.5 c 0,0 40.4,-49.7 22.8,-149.8 0,0 -9.2,-12.6 -42.2,-4.5 0,0 1.7,107.4 -30.6,146.9 0,0 14.9,10.7 50,7.4"
         style="fill:#23344a;fill-opacity:1;fill-rule:nonzero;stroke:none"
         id="path252" />
      <path
         d="m 22459.6,8294.4 c 22.1,48.8 58.3,91.6 112.1,58.6 53.7,-33 18.3,-151.4 -50.1,-169.8 -68.4,-18.3 -81.5,68.3 -62,111.2"
         style="fill:#eea886;fill-opacity:1;fill-rule:nonzero;stroke:none"
         id="path254" />
      <path
         d="m 22591,8258.2 c 0,0 59.4,-80.3 44.8,-159.3 0,0 84.7,88.4 78.5,149 -6.2,60.5 -123.3,10.3 -123.3,10.3"
         style="fill:#fccca2;fill-opacity:1;fill-rule:nonzero;stroke:none"
         id="path256" />
      <path
         d="m 12865.2,16471.1 638,-229.4 634.6,-1347.1 -1415.9,-667.1 -838.9,1780.8 982.2,462.8"
         style="fill:#ffca55;fill-opacity:1;fill-rule:nonzero;stroke:none"
         id="path258" />
      <path
         d="m 13503.2,16241.7 -638,229.4 204.3,-433.7 z"
         style="fill:#dbae49;fill-opacity:1;fill-rule:nonzero;stroke:none"
         id="path260" />
      <path
         d="m 13417.9,15747.8 -895.5,-421.9 -45.9,97.6 895.4,421.8 46,-97.5"
         style="fill:#ffffff;fill-opacity:1;fill-rule:nonzero;stroke:none"
         id="path262" />
      <path
         d="m 13563.5,15438.8 -895.5,-421.9 -45.9,97.6 895.4,421.8 46,-97.5"
         style="fill:#ffffff;fill-opacity:1;fill-rule:nonzero;stroke:none"
         id="path264" />
      <path
         d="m 13709,15129.7 -895.4,-421.8 -46,97.6 895.5,421.8 45.9,-97.6"
         style="fill:#ffffff;fill-opacity:1;fill-rule:nonzero;stroke:none"
         id="path266" />
      <path
         d="m 21283.8,15744.3 c -185.3,68.3 -280.1,274 -211.8,459.3 68.4,185.4 274,280.2 459.4,211.8 185.3,-68.3 280.2,-274 211.8,-459.3 -68.3,-185.4 -274,-280.2 -459.4,-211.8 z m 662.4,136.9 c 109.8,297.5 -42.4,627.6 -339.9,737.3 -297.5,109.7 -627.6,-42.5 -737.3,-340 0,0 -11.9,-23 -23.3,-80.9 -4,-19 -7,-38.1 -9,-57.1 -22.7,-175.9 -24.9,-544.9 134.4,-1244.2 575,428.2 812.9,710.3 910,858.8 10.9,15.8 21,32.3 30.3,49.4 29,51.4 34.8,76.7 34.8,76.7"
         style="fill:#ffca55;fill-opacity:1;fill-rule:nonzero;stroke:none"
         id="path268" />
      <path
         d="m 16903.5,17951.1 -1727.6,-577.6 -395.4,1182.8 1727.6,577.6 395.4,-1182.8"
         style="fill:#ffc655;fill-opacity:1;fill-rule:nonzero;stroke:none"
         id="path270" />
      <path
         d="m 15175.9,17373.5 642.8,950 1084.8,-372.4 z"
         style="fill:#ffbc55;fill-opacity:1;fill-rule:nonzero;stroke:none"
         id="path272" />
      <path
         d="m 16508.1,19133.9 -617.5,-1025.6 -1110.1,448 z"
         style="fill:#ffa655;fill-opacity:1;fill-rule:nonzero;stroke:none"
         id="path274" />
      <path
         d="m 6900.92,866.102 c 187.09,0 383.8,14.699 589.98,44.097 877.15,125.001 1404.01,446.401 1565.95,955.301 103.53,325.3 57.71,728.9 -136.19,1199.6 -154.26,374.4 -402.21,792.4 -736.97,1242.3 -569.29,765.1 -1201.57,1366 -1207.89,1372 l -28.24,-29.8 c 6.3,-6 636.34,-604.8 1203.5,-1367.2 332.64,-447.1 578.82,-862 731.72,-1233.2 190.04,-461.4 235.43,-855.5 134.93,-1171.3 C 8860.95,1385.4 8345.31,1073.5 7485.1,950.801 6494.38,809.602 5726.17,1011.7 5201.8,1551.6 c -604.84,622.7 -775.34,1591.1 -811.85,2293.8 -39.67,763.4 65.82,1387.1 66.88,1393.3 l -40.47,7 c -1.08,-6.3 -107.27,-633.7 -67.48,-1401.5 23.39,-451.3 91.87,-862.3 203.55,-1221.6 139.92,-450.2 348.46,-820.2 619.83,-1099.6 424.42,-437 1004.29,-656.898 1728.66,-656.898"
         style="fill:#e8734d;fill-opacity:1;fill-rule:nonzero;stroke:none"
         id="path276" />
      <path
         d="m 6354.33,2986.9 138.62,-177.2 c 11.61,22.1 60.7,85 129.6,168.4 l 0.1,0.2 c 34.1,41.4 73.12,87.8 114.81,136.8 226.43,266.4 532.65,609.5 572.91,634.2 62.74,38.5 230.02,269.6 253.13,385.1 23.1,115.5 -30.81,310.7 -74.45,462.1 -43.64,151.5 -202.81,552 -290.1,698.3 -87.29,146.3 -147.16,304.7 -147.16,304.7 -804.47,422.7 -697.46,-148.1 -627.22,-379.1 70.13,-231.1 584.4,-931.9 643.45,-1015.8 59.05,-83.8 5.13,-121.5 -69.32,-180.6 -74.45,-59 -189.97,-241.3 -220.78,-320.9 -30.81,-79.6 -423.59,-716.2 -423.59,-716.2"
         style="fill:#eea987;fill-opacity:1;fill-rule:nonzero;stroke:none"
         id="path278" />
      <path
         d="m 6536.6,2713.9 c 0,0 17.12,-256.7 85.57,-325.2 68.46,-68.5 236.19,-212.2 169.44,-270.4 -66.75,-58.2 -342.3,-24 -437.28,159.1 -94.99,183.2 -284.97,236.2 -249.03,397.1 35.95,160.9 164.7,118.9 268.71,316.6 104.01,197.8 162.59,-277.2 162.59,-277.2"
         style="fill:#2a567a;fill-opacity:1;fill-rule:nonzero;stroke:none"
         id="path280" />
      <path
         d="m 6649.76,3114.1 c 11.22,38.6 34.41,109.6 63.78,199.5 75.28,230.5 189.04,578.8 192.75,669.6 2.86,70.1 -18.17,241.4 -40.43,422.8 -17.18,140 -34.94,284.8 -41.71,385.3 -14.75,218.6 -182.86,714.8 -194.26,748.3 -20.94,12.5 -261.65,147.4 -655.91,-0.6 -7.73,-19.3 -66.9,-179.5 1.03,-407 78.81,-263.9 251.51,-612.4 270.95,-651.3 6.74,-13.4 16.67,-32.1 28.18,-53.6 57.98,-108.6 165.89,-310.6 157.18,-408.7 -5.04,-56.6 -27.72,-134.9 -51.73,-217.9 -25.59,-88.3 -52.06,-179.7 -61.24,-257.2 -8.88,-74.8 -12.78,-319.7 -16.56,-556.5 -3.97,-249.5 -7.72,-485.1 -16.84,-545 -14.58,-95.8 -19.04,-129.2 -20.17,-138.2 12.46,-9.6 82.25,-57.6 210.97,-38.7 10.33,54.9 134.84,714.5 174.01,849.2"
         style="fill:#eea987;fill-opacity:1;fill-rule:nonzero;stroke:none"
         id="path282" />
      <path
         d="m 5970.06,5130.5 c 73.63,-246.4 230.23,-569.9 271.31,-652.1 41.07,-82.1 195.11,-344 184.84,-459.5 -8.73,-98.2 -71.27,-263.1 -100.84,-403.4 -5.24,-24.7 -9.45,-48.7 -12.12,-71.5 -17.97,-151.5 -15.4,-983.3 -33.38,-1101.4 -17.97,-118.1 -20.53,-141.2 -20.53,-141.2 0,0 71.88,-64.2 220.78,-41.1 0,0 133.5,711.2 174.57,852.4 20.03,68.9 80.31,247.4 137.4,427 l 0.1,0.1 c 60.08,188.8 116.56,378.7 119.23,443.2 5.13,125.7 -66.75,580.1 -82.16,808.6 -15.4,228.5 -195.1,751.4 -195.1,751.4 0,0 -244.72,158.3 -664.1,0 0,0 -73.53,-166 0,-412.5"
         style="fill:#eea987;fill-opacity:1;fill-rule:nonzero;stroke:none"
         id="path284" />
      <path
         d="m 6262.71,2326.6 c 0,0 44.55,-37.2 91.62,-26.9 47.06,10.3 137.77,-8.6 153.17,-51.3 15.41,-42.8 85.58,-255.1 155.75,-315 70.17,-59.9 429.59,-335.4 263.57,-402.2 -166.01,-66.7 -443.28,25.7 -547.68,222.5 -104.4,196.9 -210.51,181.5 -186.55,345.7 23.96,164.4 70.12,227.2 70.12,227.2"
         style="fill:#2a567a;fill-opacity:1;fill-rule:nonzero;stroke:none"
         id="path286" />
      <path
         d="m 6424.6,5220.3 c 45.08,-148.4 273.36,-490.7 446.6,-738.7 l 0.1,-0.1 c 34.19,-49.1 66.23,-94.4 94.37,-133.8 v -0.1 c 50.94,-71.6 88.72,-123.7 102.38,-143.1 59.04,-83.8 5.13,-121.5 -69.31,-180.5 -24.34,-19.3 -53.1,-51.9 -81.85,-89.7 0,0 176.73,-108.4 291.03,-286.7 l 0.1,0.1 c 52.47,56.3 89.95,94 102.38,101.6 62.74,38.5 230.02,269.6 253.13,385.1 23.11,115.5 -30.81,310.6 -74.45,462.1 -43.65,151.4 -202.82,551.9 -290.1,698.3 -87.29,146.3 -147.15,304.6 -147.15,304.6 -804.47,422.7 -697.47,-148 -627.23,-379.1"
         style="fill:#1d3b54;fill-opacity:1;fill-rule:nonzero;stroke:none"
         id="path288" />
      <path
         d="m 5970.06,5130.5 c 73.63,-246.4 230.23,-569.9 271.31,-652.1 41.07,-82.1 195.11,-344 184.84,-459.5 -8.73,-98.2 -71.27,-263.1 -100.84,-403.4 0,0 179.7,3.9 466.72,-75.8 l 0.1,0.1 c 60.08,188.8 121.69,378.5 124.36,442.9 5.13,125.8 -58.29,559.2 -73.69,787.6 -15.41,228.5 -208.7,772.7 -208.7,772.7 0,0 -244.72,158.3 -664.1,0 0,0 -73.53,-166 0,-412.5"
         style="fill:#1d3b54;fill-opacity:1;fill-rule:nonzero;stroke:none"
         id="path290" />
      <path
         d="m 6197.54,8540.4 c 0,0 -131.15,94.7 -262.26,-53.7 -131.11,-148.3 -73.15,-298.7 -77.2,-440.4 -4.05,-141.7 124.11,-462.1 63.95,-598.3 -60.17,-136.3 2.98,-212.5 2.98,-212.5 0,0 415.65,-131 401.3,505.7 -14.36,636.8 -128.77,799.2 -128.77,799.2"
         style="fill:#fccca2;fill-opacity:1;fill-rule:nonzero;stroke:none"
         id="path292" />
      <path
         d="m 6737.46,3115.1 c -8.01,52 27.42,339.6 27.42,339.6 -43.23,-139.9 -132.4,-457.9 -135.38,-468.1 34.09,41.4 66.27,79.5 107.96,128.5"
         style="fill:#a77860;fill-opacity:1;fill-rule:nonzero;stroke:none"
         id="path294" />
      <path
         d="m 6765.78,5130.3 c 35.94,-140.3 105.42,-648.7 105.42,-648.7 l 0.1,-0.1 c 34.19,-49.1 66.23,-94.4 94.37,-133.8 -3.99,304.5 -195.88,770.2 -199.89,782.6"
         style="fill:#122433;fill-opacity:1;fill-rule:nonzero;stroke:none"
         id="path296" />
      <path
         d="m 4890.93,5582.3 c 0,0 -58.52,-21.4 -133.94,-23.9 -75.43,-2.4 -157.03,-121.4 -171.87,-153.5 -14.84,-32.2 18.34,-44.3 18.34,-44.3 0,0 217.41,101.4 287.47,81.6 70.07,-19.8 82.43,11.6 82.43,11.6 l -82.43,128.5"
         style="fill:#eea987;fill-opacity:1;fill-rule:nonzero;stroke:none"
         id="path298" />
      <path
         d="m 4461.63,5152.7 480.03,283.5 -49.3,91.8 -490.72,-263.7 59.99,-111.6"
         style="fill:#eb4747;fill-opacity:1;fill-rule:nonzero;stroke:none"
         id="path300" />
      <path
         d="m 4973.36,5453.8 c 0,0 -15.73,-57.2 -60.46,-100 -44.74,-42.8 -216.38,-133.8 -230.18,-124.4 -13.79,9.4 -47.8,133.7 -25.43,169.2 22.37,35.5 43.07,-26.8 43.07,-26.8 0,0 -5.69,98 21.31,94.3 26.98,-3.7 28.93,-62.9 28.93,-62.9 0,0 1.98,79.8 26.58,70.8 24.6,-9 30.23,-46.5 30.23,-46.5 0,0 -2.61,70.1 23.58,64.7 26.19,-5.5 53.62,-96 71.98,-78.9 18.35,17.2 70.39,40.5 70.39,40.5"
         style="fill:#eea987;fill-opacity:1;fill-rule:nonzero;stroke:none"
         id="path302" />
      <path
         d="m 6101.88,7528.3 c 0,0 1.71,-77 -23.96,-109.5 -25.67,-32.5 -263.57,-109.6 -314.92,-191.7 -51.34,-82.2 92.42,-480.9 128.37,-588.8 35.94,-107.8 176.28,-328.6 179.7,-409 3.43,-80.5 13.7,-273.9 -1.71,-337.2 -15.4,-63.3 -88.99,-297.8 -99.27,-349.1 0,0 669.2,-118.1 1081.67,56.5 0,0 -100.98,345.7 -99.26,431.3 1.7,85.5 -3.43,399.1 -13.7,485.3 -10.27,86.3 157.45,266 61.62,375.5 -95.85,109.6 -340.59,328.6 -388.52,376.6 -47.92,47.9 -164.3,138.6 -164.3,138.6 0,0 -71.88,133.5 -63.32,222.5 l -302.94,119.8 c 0,0 24.53,-166.7 20.54,-220.8"
         style="fill:#ffc855;fill-opacity:1;fill-rule:nonzero;stroke:none"
         id="path304" />
      <path
         d="m 5956.4,7254.5 c -27.9,10.7 -121.18,97.5 -204.35,-32.5 -83.18,-130.1 -107.14,-301.3 -113.98,-381.7 -6.85,-80.4 -73.6,-462.1 -89,-525.4 -15.41,-63.4 -54.77,-92.5 -133.5,-164.3 -78.73,-71.9 -523.72,-566.5 -559.66,-595.6 l 115.72,-106.8 c 0,0 663.01,485 724.62,563.7 61.62,78.8 100.98,155.8 150.62,323.5 49.63,167.7 203.66,576.8 212.22,641.8 8.56,65.1 44.5,220.8 -102.69,277.3"
         style="fill:#eea987;fill-opacity:1;fill-rule:nonzero;stroke:none"
         id="path306" />
      <path
         d="m 6010.32,6723.9 c 0,0 -230.2,119.8 -399.64,121.5 0,0 59.9,506.6 309.78,458.7 249.88,-47.9 141.2,-393.6 89.86,-580.2"
         style="fill:#ffc855;fill-opacity:1;fill-rule:nonzero;stroke:none"
         id="path308" />
      <path
         d="m 6077.89,7418.7 c 0,0 203.12,-264.1 413.73,-249.8 210.72,14.3 -43.33,238.6 -43.33,238.6 0,0 -14.41,26.9 -32.35,68.7 -7.83,18.3 -14.07,40.2 -19.62,63.6 h -0.09 c -6.68,27.8 -11.51,58.3 -11.92,89.5 L 6069.16,7796 c 0,0 55.86,-305.8 8.73,-377.3"
         style="fill:#eea987;fill-opacity:1;fill-rule:nonzero;stroke:none"
         id="path310" />
      <path
         d="m 6353.07,7536.2 c 50.69,-1 192.84,7.8 280.38,329.4 106.95,392.8 -69.84,609.3 -228.81,656.4 -158.97,47 -310.59,-0.8 -404.47,-204.1 0,0 -69.17,-158.7 12.82,-452.6 82.01,-293.9 285.79,-328.2 340.08,-329.1"
         style="fill:#eea987;fill-opacity:1;fill-rule:nonzero;stroke:none"
         id="path312" />
      <path
         d="m 6263.78,8271.1 c 0,0 215.57,-25.3 400.04,-338.4 0,0 114.07,358.3 -122.81,537.6 -236.88,179.4 -416.98,46.2 -480.97,-22.8 0,0 -87.17,-15 -98.84,-178.2 -11.68,-163.2 -133.44,-399.2 101.13,-529.3 0,0 -14.31,183.3 9.25,224.7 23.56,41.5 95.62,8.7 192.2,306.4"
         style="fill:#fccca2;fill-opacity:1;fill-rule:nonzero;stroke:none"
         id="path314" />
      <path
         d="m 6087.4,8036.5 c -9.36,28.9 -38.45,41.9 -56.49,12.5 -18.02,-29.4 -4.99,-148 37.96,-163.3 42.95,-15.2 37.49,92.3 18.53,150.8"
         style="fill:#eea987;fill-opacity:1;fill-rule:nonzero;stroke:none"
         id="path316" />
      <path
         d="m 6163.01,7613.6 c 0,0 76.4,-150.3 252.93,-137.4 -6.98,18.6 -14.07,40.2 -19.62,63.6 h -0.09 c 0,0 -107.42,-28.9 -233.22,73.8"
         style="fill:#a77860;fill-opacity:1;fill-rule:nonzero;stroke:none"
         id="path318" />
    </g>
  </g>
</svg>
